<svg viewBox="0 0 1700 1700" xmlns="http://www.w3.org/2000/svg">
<circle cx="350" cy="750" fill="none" r="0" stroke="black" stroke-width="1"/>
<circle cx="350" cy="750" fill="none" r="3" stroke="black" stroke-width="1"/>
<circle cx="350" cy="750" fill="none" r="6" stroke="black" stroke-width="1"/>
<circle cx="350" cy="750" fill="none" r="9" stroke="black" stroke-width="1"/>
<circle cx="350" cy="750" fill="none" r="12" stroke="black" stroke-width="1"/>
<circle cx="350" cy="750" fill="none" r="15" stroke="black" stroke-width="1"/>
<circle cx="350" cy="750" fill="none" r="18" stroke="black" stroke-width="1"/>
<circle cx="350" cy="750" fill="none" r="21" stroke="black" stroke-width="1"/>
<circle cx="350" cy="750" fill="none" r="24" stroke="black" stroke-width="1"/>
<circle cx="350" cy="750" fill="none" r="27" stroke="black" stroke-width="1"/>
<circle cx="350" cy="750" fill="none" r="30" stroke="black" stroke-width="1"/>
<circle cx="350" cy="750" fill="none" r="33" stroke="black" stroke-width="1"/>
<circle cx="350" cy="750" fill="none" r="36" stroke="black" stroke-width="1"/>
<circle cx="350" cy="750" fill="none" r="39" stroke="black" stroke-width="1"/>
<circle cx="350" cy="750" fill="none" r="42" stroke="black" stroke-width="1"/>
<circle cx="350" cy="750" fill="none" r="45" stroke="black" stroke-width="1"/>
<circle cx="350" cy="750" fill="none" r="48" stroke="black" stroke-width="1"/>
<circle cx="350" cy="750" fill="none" r="51" stroke="black" stroke-width="1"/>
<circle cx="350" cy="750" fill="none" r="54" stroke="black" stroke-width="1"/>
<circle cx="350" cy="750" fill="none" r="57" stroke="black" stroke-width="1"/>
<circle cx="350" cy="750" fill="none" r="60" stroke="black" stroke-width="1"/>
<circle cx="350" cy="750" fill="none" r="63" stroke="black" stroke-width="1"/>
<circle cx="350" cy="750" fill="none" r="66" stroke="black" stroke-width="1"/>
<circle cx="350" cy="750" fill="none" r="69" stroke="black" stroke-width="1"/>
<circle cx="350" cy="750" fill="none" r="72" stroke="black" stroke-width="1"/>
<circle cx="350" cy="750" fill="none" r="75" stroke="black" stroke-width="1"/>
<circle cx="350" cy="750" fill="none" r="78" stroke="black" stroke-width="1"/>
<circle cx="350" cy="750" fill="none" r="81" stroke="black" stroke-width="1"/>
<circle cx="350" cy="750" fill="none" r="84" stroke="black" stroke-width="1"/>
<circle cx="350" cy="750" fill="none" r="87" stroke="black" stroke-width="1"/>
<circle cx="350" cy="750" fill="none" r="90" stroke="black" stroke-width="1"/>
<circle cx="350" cy="750" fill="none" r="93" stroke="black" stroke-width="1"/>
<circle cx="350" cy="750" fill="none" r="96" stroke="black" stroke-width="1"/>
<circle cx="350" cy="750" fill="none" r="99" stroke="black" stroke-width="1"/>
<circle cx="350" cy="750" fill="none" r="102" stroke="black" stroke-width="1"/>
<circle cx="350" cy="750" fill="none" r="105" stroke="black" stroke-width="1"/>
<circle cx="350" cy="750" fill="none" r="108" stroke="black" stroke-width="1"/>
<circle cx="350" cy="750" fill="none" r="111" stroke="black" stroke-width="1"/>
<circle cx="350" cy="750" fill="none" r="114" stroke="black" stroke-width="1"/>
<circle cx="350" cy="750" fill="none" r="117" stroke="black" stroke-width="1"/>
<circle cx="350" cy="750" fill="none" r="120" stroke="black" stroke-width="1"/>
<circle cx="350" cy="750" fill="none" r="123" stroke="black" stroke-width="1"/>
<circle cx="350" cy="750" fill="none" r="126" stroke="black" stroke-width="1"/>
<circle cx="350" cy="750" fill="none" r="129" stroke="black" stroke-width="1"/>
<circle cx="350" cy="750" fill="none" r="132" stroke="black" stroke-width="1"/>
<circle cx="350" cy="750" fill="none" r="135" stroke="black" stroke-width="1"/>
<circle cx="350" cy="750" fill="none" r="138" stroke="black" stroke-width="1"/>
<circle cx="350" cy="750" fill="none" r="141" stroke="black" stroke-width="1"/>
<circle cx="350" cy="750" fill="none" r="144" stroke="black" stroke-width="1"/>
<circle cx="350" cy="750" fill="none" r="147" stroke="black" stroke-width="1"/>
<circle cx="350" cy="750" fill="none" r="150" stroke="black" stroke-width="1"/>
<circle cx="350" cy="750" fill="none" r="153" stroke="black" stroke-width="1"/>
<circle cx="350" cy="750" fill="none" r="156" stroke="black" stroke-width="1"/>
<circle cx="350" cy="750" fill="none" r="159" stroke="black" stroke-width="1"/>
<circle cx="350" cy="750" fill="none" r="162" stroke="black" stroke-width="1"/>
<circle cx="350" cy="750" fill="none" r="165" stroke="black" stroke-width="1"/>
<circle cx="350" cy="750" fill="none" r="168" stroke="black" stroke-width="1"/>
<circle cx="350" cy="750" fill="none" r="171" stroke="black" stroke-width="1"/>
<circle cx="350" cy="750" fill="none" r="174" stroke="black" stroke-width="1"/>
<circle cx="350" cy="750" fill="none" r="177" stroke="black" stroke-width="1"/>
<circle cx="350" cy="750" fill="none" r="180" stroke="black" stroke-width="1"/>
<circle cx="350" cy="750" fill="none" r="183" stroke="black" stroke-width="1"/>
<circle cx="350" cy="750" fill="none" r="186" stroke="black" stroke-width="1"/>
<circle cx="350" cy="750" fill="none" r="189" stroke="black" stroke-width="1"/>
<circle cx="350" cy="750" fill="none" r="192" stroke="black" stroke-width="1"/>
<circle cx="350" cy="750" fill="none" r="195" stroke="black" stroke-width="1"/>
<circle cx="350" cy="750" fill="none" r="198" stroke="black" stroke-width="1"/>
<circle cx="350" cy="750" fill="none" r="201" stroke="black" stroke-width="1"/>
<circle cx="350" cy="750" fill="none" r="204" stroke="black" stroke-width="1"/>
<circle cx="350" cy="750" fill="none" r="207" stroke="black" stroke-width="1"/>
<circle cx="350" cy="750" fill="none" r="210" stroke="black" stroke-width="1"/>
<circle cx="350" cy="750" fill="none" r="213" stroke="black" stroke-width="1"/>
<circle cx="350" cy="750" fill="none" r="216" stroke="black" stroke-width="1"/>
<circle cx="350" cy="750" fill="none" r="219" stroke="black" stroke-width="1"/>
<circle cx="350" cy="750" fill="none" r="222" stroke="black" stroke-width="1"/>
<circle cx="350" cy="750" fill="none" r="225" stroke="black" stroke-width="1"/>
<circle cx="350" cy="750" fill="none" r="228" stroke="black" stroke-width="1"/>
<circle cx="350" cy="750" fill="none" r="231" stroke="black" stroke-width="1"/>
<circle cx="350" cy="750" fill="none" r="234" stroke="black" stroke-width="1"/>
<circle cx="350" cy="750" fill="none" r="237" stroke="black" stroke-width="1"/>
<circle cx="350" cy="750" fill="none" r="240" stroke="black" stroke-width="1"/>
<circle cx="350" cy="750" fill="none" r="243" stroke="black" stroke-width="1"/>
<circle cx="350" cy="750" fill="none" r="246" stroke="black" stroke-width="1"/>
<circle cx="350" cy="750" fill="none" r="249" stroke="black" stroke-width="1"/>
<circle cx="350" cy="750" fill="none" r="252" stroke="black" stroke-width="1"/>
<circle cx="350" cy="750" fill="none" r="255" stroke="black" stroke-width="1"/>
<circle cx="350" cy="750" fill="none" r="258" stroke="black" stroke-width="1"/>
<circle cx="350" cy="750" fill="none" r="261" stroke="black" stroke-width="1"/>
<circle cx="350" cy="750" fill="none" r="264" stroke="black" stroke-width="1"/>
<circle cx="350" cy="750" fill="none" r="267" stroke="black" stroke-width="1"/>
<circle cx="350" cy="750" fill="none" r="270" stroke="black" stroke-width="1"/>
<circle cx="350" cy="750" fill="none" r="273" stroke="black" stroke-width="1"/>
<circle cx="350" cy="750" fill="none" r="276" stroke="black" stroke-width="1"/>
<circle cx="350" cy="750" fill="none" r="279" stroke="black" stroke-width="1"/>
<circle cx="350" cy="750" fill="none" r="282" stroke="black" stroke-width="1"/>
<circle cx="350" cy="750" fill="none" r="285" stroke="black" stroke-width="1"/>
<circle cx="350" cy="750" fill="none" r="288" stroke="black" stroke-width="1"/>
<circle cx="350" cy="750" fill="none" r="291" stroke="black" stroke-width="1"/>
<circle cx="350" cy="750" fill="none" r="294" stroke="black" stroke-width="1"/>
<circle cx="350" cy="750" fill="none" r="297" stroke="black" stroke-width="1"/>
<circle cx="350" cy="750" fill="none" r="300" stroke="black" stroke-width="1"/>
<circle cx="350" cy="750" fill="none" r="303" stroke="black" stroke-width="1"/>
<circle cx="350" cy="750" fill="none" r="306" stroke="black" stroke-width="1"/>
<circle cx="350" cy="750" fill="none" r="309" stroke="black" stroke-width="1"/>
<circle cx="350" cy="750" fill="none" r="312" stroke="black" stroke-width="1"/>
<circle cx="350" cy="750" fill="none" r="315" stroke="black" stroke-width="1"/>
<circle cx="350" cy="750" fill="none" r="318" stroke="black" stroke-width="1"/>
<circle cx="350" cy="750" fill="none" r="321" stroke="black" stroke-width="1"/>
<circle cx="350" cy="750" fill="none" r="324" stroke="black" stroke-width="1"/>
<circle cx="350" cy="750" fill="none" r="327" stroke="black" stroke-width="1"/>
<circle cx="350" cy="750" fill="none" r="330" stroke="black" stroke-width="1"/>
<circle cx="350" cy="750" fill="none" r="333" stroke="black" stroke-width="1"/>
<circle cx="350" cy="750" fill="none" r="336" stroke="black" stroke-width="1"/>
<circle cx="350" cy="750" fill="none" r="339" stroke="black" stroke-width="1"/>
<circle cx="350" cy="750" fill="none" r="342" stroke="black" stroke-width="1"/>
<circle cx="350" cy="750" fill="none" r="345" stroke="black" stroke-width="1"/>
<circle cx="350" cy="750" fill="none" r="348" stroke="black" stroke-width="1"/>
<circle cx="350" cy="750" fill="none" r="351" stroke="black" stroke-width="1"/>
<circle cx="350" cy="750" fill="none" r="354" stroke="black" stroke-width="1"/>
<circle cx="350" cy="750" fill="none" r="357" stroke="black" stroke-width="1"/>
<circle cx="350" cy="750" fill="none" r="360" stroke="black" stroke-width="1"/>
<circle cx="350" cy="750" fill="none" r="363" stroke="black" stroke-width="1"/>
<circle cx="350" cy="750" fill="none" r="366" stroke="black" stroke-width="1"/>
<circle cx="350" cy="750" fill="none" r="369" stroke="black" stroke-width="1"/>
<circle cx="350" cy="750" fill="none" r="372" stroke="black" stroke-width="1"/>
<circle cx="350" cy="750" fill="none" r="375" stroke="black" stroke-width="1"/>
<circle cx="350" cy="750" fill="none" r="378" stroke="black" stroke-width="1"/>
<circle cx="350" cy="750" fill="none" r="381" stroke="black" stroke-width="1"/>
<circle cx="350" cy="750" fill="none" r="384" stroke="black" stroke-width="1"/>
<circle cx="350" cy="750" fill="none" r="387" stroke="black" stroke-width="1"/>
<circle cx="350" cy="750" fill="none" r="390" stroke="black" stroke-width="1"/>
<circle cx="350" cy="750" fill="none" r="393" stroke="black" stroke-width="1"/>
<circle cx="350" cy="750" fill="none" r="396" stroke="black" stroke-width="1"/>
<circle cx="350" cy="750" fill="none" r="399" stroke="black" stroke-width="1"/>
<circle cx="350" cy="750" fill="none" r="402" stroke="black" stroke-width="1"/>
<circle cx="350" cy="750" fill="none" r="405" stroke="black" stroke-width="1"/>
<circle cx="350" cy="750" fill="none" r="408" stroke="black" stroke-width="1"/>
<circle cx="350" cy="750" fill="none" r="411" stroke="black" stroke-width="1"/>
<circle cx="350" cy="750" fill="none" r="414" stroke="black" stroke-width="1"/>
<circle cx="350" cy="750" fill="none" r="417" stroke="black" stroke-width="1"/>
<circle cx="350" cy="750" fill="none" r="420" stroke="black" stroke-width="1"/>
<circle cx="350" cy="750" fill="none" r="423" stroke="black" stroke-width="1"/>
<circle cx="350" cy="750" fill="none" r="426" stroke="black" stroke-width="1"/>
<circle cx="350" cy="750" fill="none" r="429" stroke="black" stroke-width="1"/>
<circle cx="350" cy="750" fill="none" r="432" stroke="black" stroke-width="1"/>
<circle cx="350" cy="750" fill="none" r="435" stroke="black" stroke-width="1"/>
<circle cx="350" cy="750" fill="none" r="438" stroke="black" stroke-width="1"/>
<circle cx="350" cy="750" fill="none" r="441" stroke="black" stroke-width="1"/>
<circle cx="350" cy="750" fill="none" r="444" stroke="black" stroke-width="1"/>
<circle cx="350" cy="750" fill="none" r="447" stroke="black" stroke-width="1"/>
<circle cx="750" cy="750" fill="none" r="0" stroke="black" stroke-width="1"/>
<circle cx="750" cy="750" fill="none" r="3" stroke="black" stroke-width="1"/>
<circle cx="750" cy="750" fill="none" r="6" stroke="black" stroke-width="1"/>
<circle cx="750" cy="750" fill="none" r="9" stroke="black" stroke-width="1"/>
<circle cx="750" cy="750" fill="none" r="12" stroke="black" stroke-width="1"/>
<circle cx="750" cy="750" fill="none" r="15" stroke="black" stroke-width="1"/>
<circle cx="750" cy="750" fill="none" r="18" stroke="black" stroke-width="1"/>
<circle cx="750" cy="750" fill="none" r="21" stroke="black" stroke-width="1"/>
<circle cx="750" cy="750" fill="none" r="24" stroke="black" stroke-width="1"/>
<circle cx="750" cy="750" fill="none" r="27" stroke="black" stroke-width="1"/>
<circle cx="750" cy="750" fill="none" r="30" stroke="black" stroke-width="1"/>
<circle cx="750" cy="750" fill="none" r="33" stroke="black" stroke-width="1"/>
<circle cx="750" cy="750" fill="none" r="36" stroke="black" stroke-width="1"/>
<circle cx="750" cy="750" fill="none" r="39" stroke="black" stroke-width="1"/>
<circle cx="750" cy="750" fill="none" r="42" stroke="black" stroke-width="1"/>
<circle cx="750" cy="750" fill="none" r="45" stroke="black" stroke-width="1"/>
<circle cx="750" cy="750" fill="none" r="48" stroke="black" stroke-width="1"/>
<circle cx="750" cy="750" fill="none" r="51" stroke="black" stroke-width="1"/>
<circle cx="750" cy="750" fill="none" r="54" stroke="black" stroke-width="1"/>
<circle cx="750" cy="750" fill="none" r="57" stroke="black" stroke-width="1"/>
<circle cx="750" cy="750" fill="none" r="60" stroke="black" stroke-width="1"/>
<circle cx="750" cy="750" fill="none" r="63" stroke="black" stroke-width="1"/>
<circle cx="750" cy="750" fill="none" r="66" stroke="black" stroke-width="1"/>
<circle cx="750" cy="750" fill="none" r="69" stroke="black" stroke-width="1"/>
<circle cx="750" cy="750" fill="none" r="72" stroke="black" stroke-width="1"/>
<circle cx="750" cy="750" fill="none" r="75" stroke="black" stroke-width="1"/>
<circle cx="750" cy="750" fill="none" r="78" stroke="black" stroke-width="1"/>
<circle cx="750" cy="750" fill="none" r="81" stroke="black" stroke-width="1"/>
<circle cx="750" cy="750" fill="none" r="84" stroke="black" stroke-width="1"/>
<circle cx="750" cy="750" fill="none" r="87" stroke="black" stroke-width="1"/>
<circle cx="750" cy="750" fill="none" r="90" stroke="black" stroke-width="1"/>
<circle cx="750" cy="750" fill="none" r="93" stroke="black" stroke-width="1"/>
<circle cx="750" cy="750" fill="none" r="96" stroke="black" stroke-width="1"/>
<circle cx="750" cy="750" fill="none" r="99" stroke="black" stroke-width="1"/>
<circle cx="750" cy="750" fill="none" r="102" stroke="black" stroke-width="1"/>
<circle cx="750" cy="750" fill="none" r="105" stroke="black" stroke-width="1"/>
<circle cx="750" cy="750" fill="none" r="108" stroke="black" stroke-width="1"/>
<circle cx="750" cy="750" fill="none" r="111" stroke="black" stroke-width="1"/>
<circle cx="750" cy="750" fill="none" r="114" stroke="black" stroke-width="1"/>
<circle cx="750" cy="750" fill="none" r="117" stroke="black" stroke-width="1"/>
<circle cx="750" cy="750" fill="none" r="120" stroke="black" stroke-width="1"/>
<circle cx="750" cy="750" fill="none" r="123" stroke="black" stroke-width="1"/>
<circle cx="750" cy="750" fill="none" r="126" stroke="black" stroke-width="1"/>
<circle cx="750" cy="750" fill="none" r="129" stroke="black" stroke-width="1"/>
<circle cx="750" cy="750" fill="none" r="132" stroke="black" stroke-width="1"/>
<circle cx="750" cy="750" fill="none" r="135" stroke="black" stroke-width="1"/>
<circle cx="750" cy="750" fill="none" r="138" stroke="black" stroke-width="1"/>
<circle cx="750" cy="750" fill="none" r="141" stroke="black" stroke-width="1"/>
<circle cx="750" cy="750" fill="none" r="144" stroke="black" stroke-width="1"/>
<circle cx="750" cy="750" fill="none" r="147" stroke="black" stroke-width="1"/>
<circle cx="750" cy="750" fill="none" r="150" stroke="black" stroke-width="1"/>
<circle cx="750" cy="750" fill="none" r="153" stroke="black" stroke-width="1"/>
<circle cx="750" cy="750" fill="none" r="156" stroke="black" stroke-width="1"/>
<circle cx="750" cy="750" fill="none" r="159" stroke="black" stroke-width="1"/>
<circle cx="750" cy="750" fill="none" r="162" stroke="black" stroke-width="1"/>
<circle cx="750" cy="750" fill="none" r="165" stroke="black" stroke-width="1"/>
<circle cx="750" cy="750" fill="none" r="168" stroke="black" stroke-width="1"/>
<circle cx="750" cy="750" fill="none" r="171" stroke="black" stroke-width="1"/>
<circle cx="750" cy="750" fill="none" r="174" stroke="black" stroke-width="1"/>
<circle cx="750" cy="750" fill="none" r="177" stroke="black" stroke-width="1"/>
<circle cx="750" cy="750" fill="none" r="180" stroke="black" stroke-width="1"/>
<circle cx="750" cy="750" fill="none" r="183" stroke="black" stroke-width="1"/>
<circle cx="750" cy="750" fill="none" r="186" stroke="black" stroke-width="1"/>
<circle cx="750" cy="750" fill="none" r="189" stroke="black" stroke-width="1"/>
<circle cx="750" cy="750" fill="none" r="192" stroke="black" stroke-width="1"/>
<circle cx="750" cy="750" fill="none" r="195" stroke="black" stroke-width="1"/>
<circle cx="750" cy="750" fill="none" r="198" stroke="black" stroke-width="1"/>
<circle cx="750" cy="750" fill="none" r="201" stroke="black" stroke-width="1"/>
<circle cx="750" cy="750" fill="none" r="204" stroke="black" stroke-width="1"/>
<circle cx="750" cy="750" fill="none" r="207" stroke="black" stroke-width="1"/>
<circle cx="750" cy="750" fill="none" r="210" stroke="black" stroke-width="1"/>
<circle cx="750" cy="750" fill="none" r="213" stroke="black" stroke-width="1"/>
<circle cx="750" cy="750" fill="none" r="216" stroke="black" stroke-width="1"/>
<circle cx="750" cy="750" fill="none" r="219" stroke="black" stroke-width="1"/>
<circle cx="750" cy="750" fill="none" r="222" stroke="black" stroke-width="1"/>
<circle cx="750" cy="750" fill="none" r="225" stroke="black" stroke-width="1"/>
<circle cx="750" cy="750" fill="none" r="228" stroke="black" stroke-width="1"/>
<circle cx="750" cy="750" fill="none" r="231" stroke="black" stroke-width="1"/>
<circle cx="750" cy="750" fill="none" r="234" stroke="black" stroke-width="1"/>
<circle cx="750" cy="750" fill="none" r="237" stroke="black" stroke-width="1"/>
<circle cx="750" cy="750" fill="none" r="240" stroke="black" stroke-width="1"/>
<circle cx="750" cy="750" fill="none" r="243" stroke="black" stroke-width="1"/>
<circle cx="750" cy="750" fill="none" r="246" stroke="black" stroke-width="1"/>
<circle cx="750" cy="750" fill="none" r="249" stroke="black" stroke-width="1"/>
<circle cx="750" cy="750" fill="none" r="252" stroke="black" stroke-width="1"/>
<circle cx="750" cy="750" fill="none" r="255" stroke="black" stroke-width="1"/>
<circle cx="750" cy="750" fill="none" r="258" stroke="black" stroke-width="1"/>
<circle cx="750" cy="750" fill="none" r="261" stroke="black" stroke-width="1"/>
<circle cx="750" cy="750" fill="none" r="264" stroke="black" stroke-width="1"/>
<circle cx="750" cy="750" fill="none" r="267" stroke="black" stroke-width="1"/>
<circle cx="750" cy="750" fill="none" r="270" stroke="black" stroke-width="1"/>
<circle cx="750" cy="750" fill="none" r="273" stroke="black" stroke-width="1"/>
<circle cx="750" cy="750" fill="none" r="276" stroke="black" stroke-width="1"/>
<circle cx="750" cy="750" fill="none" r="279" stroke="black" stroke-width="1"/>
<circle cx="750" cy="750" fill="none" r="282" stroke="black" stroke-width="1"/>
<circle cx="750" cy="750" fill="none" r="285" stroke="black" stroke-width="1"/>
<circle cx="750" cy="750" fill="none" r="288" stroke="black" stroke-width="1"/>
<circle cx="750" cy="750" fill="none" r="291" stroke="black" stroke-width="1"/>
<circle cx="750" cy="750" fill="none" r="294" stroke="black" stroke-width="1"/>
<circle cx="750" cy="750" fill="none" r="297" stroke="black" stroke-width="1"/>
<circle cx="750" cy="750" fill="none" r="300" stroke="black" stroke-width="1"/>
<circle cx="750" cy="750" fill="none" r="303" stroke="black" stroke-width="1"/>
<circle cx="750" cy="750" fill="none" r="306" stroke="black" stroke-width="1"/>
<circle cx="750" cy="750" fill="none" r="309" stroke="black" stroke-width="1"/>
<circle cx="750" cy="750" fill="none" r="312" stroke="black" stroke-width="1"/>
<circle cx="750" cy="750" fill="none" r="315" stroke="black" stroke-width="1"/>
<circle cx="750" cy="750" fill="none" r="318" stroke="black" stroke-width="1"/>
<circle cx="750" cy="750" fill="none" r="321" stroke="black" stroke-width="1"/>
<circle cx="750" cy="750" fill="none" r="324" stroke="black" stroke-width="1"/>
<circle cx="750" cy="750" fill="none" r="327" stroke="black" stroke-width="1"/>
<circle cx="750" cy="750" fill="none" r="330" stroke="black" stroke-width="1"/>
<circle cx="750" cy="750" fill="none" r="333" stroke="black" stroke-width="1"/>
<circle cx="750" cy="750" fill="none" r="336" stroke="black" stroke-width="1"/>
<circle cx="750" cy="750" fill="none" r="339" stroke="black" stroke-width="1"/>
<circle cx="750" cy="750" fill="none" r="342" stroke="black" stroke-width="1"/>
<circle cx="750" cy="750" fill="none" r="345" stroke="black" stroke-width="1"/>
<circle cx="750" cy="750" fill="none" r="348" stroke="black" stroke-width="1"/>
<circle cx="750" cy="750" fill="none" r="351" stroke="black" stroke-width="1"/>
<circle cx="750" cy="750" fill="none" r="354" stroke="black" stroke-width="1"/>
<circle cx="750" cy="750" fill="none" r="357" stroke="black" stroke-width="1"/>
<circle cx="750" cy="750" fill="none" r="360" stroke="black" stroke-width="1"/>
<circle cx="750" cy="750" fill="none" r="363" stroke="black" stroke-width="1"/>
<circle cx="750" cy="750" fill="none" r="366" stroke="black" stroke-width="1"/>
<circle cx="750" cy="750" fill="none" r="369" stroke="black" stroke-width="1"/>
<circle cx="750" cy="750" fill="none" r="372" stroke="black" stroke-width="1"/>
<circle cx="750" cy="750" fill="none" r="375" stroke="black" stroke-width="1"/>
<circle cx="750" cy="750" fill="none" r="378" stroke="black" stroke-width="1"/>
<circle cx="750" cy="750" fill="none" r="381" stroke="black" stroke-width="1"/>
<circle cx="750" cy="750" fill="none" r="384" stroke="black" stroke-width="1"/>
<circle cx="750" cy="750" fill="none" r="387" stroke="black" stroke-width="1"/>
<circle cx="750" cy="750" fill="none" r="390" stroke="black" stroke-width="1"/>
<circle cx="750" cy="750" fill="none" r="393" stroke="black" stroke-width="1"/>
<circle cx="750" cy="750" fill="none" r="396" stroke="black" stroke-width="1"/>
<circle cx="750" cy="750" fill="none" r="399" stroke="black" stroke-width="1"/>
<circle cx="750" cy="750" fill="none" r="402" stroke="black" stroke-width="1"/>
<circle cx="750" cy="750" fill="none" r="405" stroke="black" stroke-width="1"/>
<circle cx="750" cy="750" fill="none" r="408" stroke="black" stroke-width="1"/>
<circle cx="750" cy="750" fill="none" r="411" stroke="black" stroke-width="1"/>
<circle cx="750" cy="750" fill="none" r="414" stroke="black" stroke-width="1"/>
<circle cx="750" cy="750" fill="none" r="417" stroke="black" stroke-width="1"/>
<circle cx="750" cy="750" fill="none" r="420" stroke="black" stroke-width="1"/>
<circle cx="750" cy="750" fill="none" r="423" stroke="black" stroke-width="1"/>
<circle cx="750" cy="750" fill="none" r="426" stroke="black" stroke-width="1"/>
<circle cx="750" cy="750" fill="none" r="429" stroke="black" stroke-width="1"/>
<circle cx="750" cy="750" fill="none" r="432" stroke="black" stroke-width="1"/>
<circle cx="750" cy="750" fill="none" r="435" stroke="black" stroke-width="1"/>
<circle cx="750" cy="750" fill="none" r="438" stroke="black" stroke-width="1"/>
<circle cx="750" cy="750" fill="none" r="441" stroke="black" stroke-width="1"/>
<circle cx="750" cy="750" fill="none" r="444" stroke="black" stroke-width="1"/>
<circle cx="750" cy="750" fill="none" r="447" stroke="black" stroke-width="1"/>
</svg>