<svg viewBox="0 0 1000 1000" xmlns="http://www.w3.org/2000/svg">
<line stroke="green" x1="900" x2="300" y1="500" y2="846.4101615137754"/>
<line stroke="orange" x1="900" x2="699.9999999999998" y1="500" y2="153.58983848622458"/>
<line stroke="black" x1="900" x2="900.0000000000002" y1="500" y2="499.99999999999955"/>
<line stroke="red" x1="900" x2="299.9999999999998" y1="500" y2="153.58983848622444"/>
<line stroke="blue" x1="900" x2="99.99999999999989" y1="500" y2="500.00000000000017"/>
<line stroke="red" x1="893.75" x2="293.7499999999998" y1="510.8253175473055" y2="164.4151560335299"/>
<line stroke="blue" x1="893.75" x2="106.24999999999989" y1="510.8253175473055" y2="510.82531754730564"/>
<line stroke="green" x1="887.5" x2="325" y1="521.650635094611" y2="846.4101615137754"/>
<line stroke="orange" x1="887.5" x2="674.9999999999998" y1="521.650635094611" y2="153.58983848622458"/>
<line stroke="black" x1="887.5" x2="887.5000000000002" y1="521.650635094611" y2="478.3493649053886"/>
<line stroke="red" x1="887.5" x2="287.4999999999998" y1="521.650635094611" y2="175.24047358083544"/>
<line stroke="blue" x1="887.5" x2="112.49999999999989" y1="521.650635094611" y2="521.6506350946111"/>
<line stroke="red" x1="881.25" x2="281.2499999999998" y1="532.4759526419165" y2="186.06579112814092"/>
<line stroke="blue" x1="881.25" x2="118.74999999999989" y1="532.4759526419165" y2="532.4759526419166"/>
<line stroke="green" x1="875" x2="350" y1="543.3012701892219" y2="846.4101615137754"/>
<line stroke="orange" x1="875" x2="649.9999999999998" y1="543.3012701892219" y2="153.58983848622458"/>
<line stroke="black" x1="875" x2="875.0000000000002" y1="543.3012701892219" y2="456.69872981077765"/>
<line stroke="red" x1="875" x2="274.9999999999998" y1="543.3012701892219" y2="196.8911086754464"/>
<line stroke="blue" x1="875" x2="124.99999999999991" y1="543.3012701892219" y2="543.3012701892221"/>
<line stroke="red" x1="868.75" x2="268.7499999999998" y1="554.1265877365274" y2="207.71642622275186"/>
<line stroke="blue" x1="868.75" x2="131.24999999999991" y1="554.1265877365274" y2="554.1265877365275"/>
<line stroke="green" x1="862.5" x2="375" y1="564.951905283833" y2="846.4101615137754"/>
<line stroke="orange" x1="862.5" x2="624.9999999999998" y1="564.951905283833" y2="153.58983848622458"/>
<line stroke="black" x1="862.5" x2="862.5000000000002" y1="564.951905283833" y2="435.0480947161667"/>
<line stroke="red" x1="862.5" x2="262.4999999999998" y1="564.951905283833" y2="218.5417437700574"/>
<line stroke="blue" x1="862.5" x2="137.49999999999991" y1="564.951905283833" y2="564.951905283833"/>
<line stroke="red" x1="856.25" x2="256.2499999999998" y1="575.7772228311384" y2="229.36706131736287"/>
<line stroke="blue" x1="856.25" x2="143.74999999999991" y1="575.7772228311384" y2="575.7772228311385"/>
<line stroke="green" x1="850" x2="400" y1="586.6025403784439" y2="846.4101615137754"/>
<line stroke="orange" x1="850" x2="599.9999999999998" y1="586.6025403784439" y2="153.58983848622458"/>
<line stroke="black" x1="850" x2="850.0000000000001" y1="586.6025403784439" y2="413.39745962155575"/>
<line stroke="red" x1="850" x2="249.9999999999998" y1="586.6025403784439" y2="240.19237886466834"/>
<line stroke="blue" x1="850" x2="149.99999999999991" y1="586.6025403784439" y2="586.602540378444"/>
<line stroke="red" x1="843.75" x2="243.7499999999998" y1="597.4278579257493" y2="251.01769641197384"/>
<line stroke="blue" x1="843.75" x2="156.24999999999994" y1="597.4278579257493" y2="597.4278579257494"/>
<line stroke="green" x1="837.5" x2="425" y1="608.2531754730549" y2="846.4101615137754"/>
<line stroke="orange" x1="837.5" x2="574.9999999999998" y1="608.2531754730549" y2="153.5898384862246"/>
<line stroke="black" x1="837.5" x2="837.5000000000001" y1="608.2531754730549" y2="391.7468245269448"/>
<line stroke="red" x1="837.5" x2="237.49999999999983" y1="608.2531754730549" y2="261.84301395927935"/>
<line stroke="blue" x1="837.5" x2="162.49999999999994" y1="608.2531754730549" y2="608.253175473055"/>
<line stroke="red" x1="831.25" x2="231.24999999999983" y1="619.0784930203604" y2="272.6683315065848"/>
<line stroke="blue" x1="831.25" x2="168.74999999999994" y1="619.0784930203604" y2="619.0784930203604"/>
<line stroke="green" x1="825" x2="450" y1="629.9038105676658" y2="846.4101615137754"/>
<line stroke="orange" x1="825" x2="549.9999999999998" y1="629.9038105676658" y2="153.5898384862246"/>
<line stroke="black" x1="825" x2="825.0000000000001" y1="629.9038105676658" y2="370.09618943233386"/>
<line stroke="red" x1="825" x2="224.99999999999983" y1="629.9038105676658" y2="283.4936490538903"/>
<line stroke="blue" x1="825" x2="174.99999999999994" y1="629.9038105676658" y2="629.9038105676659"/>
<line stroke="red" x1="818.75" x2="218.74999999999983" y1="640.7291281149713" y2="294.3189666011958"/>
<line stroke="blue" x1="818.75" x2="181.24999999999994" y1="640.7291281149713" y2="640.7291281149714"/>
<line stroke="green" x1="812.5" x2="475" y1="651.5544456622767" y2="846.4101615137754"/>
<line stroke="orange" x1="812.5" x2="524.9999999999998" y1="651.5544456622767" y2="153.5898384862246"/>
<line stroke="black" x1="812.5" x2="812.5" y1="651.5544456622767" y2="348.4455543377229"/>
<line stroke="red" x1="812.5" x2="212.49999999999983" y1="651.5544456622767" y2="305.14428414850124"/>
<line stroke="blue" x1="812.5" x2="187.49999999999994" y1="651.5544456622767" y2="651.5544456622769"/>
<line stroke="red" x1="806.25" x2="206.24999999999986" y1="662.3797632095823" y2="315.9696016958068"/>
<line stroke="blue" x1="806.25" x2="193.74999999999994" y1="662.3797632095823" y2="662.3797632095824"/>
<line stroke="green" x1="800" x2="500" y1="673.2050807568878" y2="846.4101615137754"/>
<line stroke="orange" x1="800" x2="499.99999999999983" y1="673.2050807568878" y2="153.5898384862246"/>
<line stroke="black" x1="800" x2="800" y1="673.2050807568878" y2="326.79491924311196"/>
<line stroke="red" x1="800" x2="199.9999999999999" y1="673.2050807568878" y2="326.79491924311225"/>
<line stroke="blue" x1="800" x2="199.99999999999997" y1="673.2050807568878" y2="673.2050807568878"/>
<line stroke="red" x1="793.75" x2="193.7499999999999" y1="684.0303983041932" y2="337.6202367904177"/>
<line stroke="blue" x1="793.75" x2="206.24999999999997" y1="684.0303983041932" y2="684.0303983041933"/>
<line stroke="green" x1="787.5" x2="525" y1="694.8557158514986" y2="846.4101615137754"/>
<line stroke="orange" x1="787.5" x2="474.99999999999983" y1="694.8557158514986" y2="153.5898384862246"/>
<line stroke="black" x1="787.5" x2="787.5" y1="694.8557158514986" y2="305.144284148501"/>
<line stroke="red" x1="787.5" x2="187.4999999999999" y1="694.8557158514986" y2="348.44555433772325"/>
<line stroke="blue" x1="787.5" x2="212.5" y1="694.8557158514986" y2="694.8557158514988"/>
<line stroke="red" x1="781.25" x2="181.2499999999999" y1="705.6810333988042" y2="359.2708718850287"/>
<line stroke="blue" x1="781.25" x2="218.75" y1="705.6810333988042" y2="705.6810333988043"/>
<line stroke="green" x1="775" x2="550" y1="716.5063509461097" y2="846.4101615137754"/>
<line stroke="orange" x1="775" x2="449.99999999999983" y1="716.5063509461097" y2="153.58983848622464"/>
<line stroke="black" x1="775" x2="775" y1="716.5063509461097" y2="283.49364905389007"/>
<line stroke="red" x1="775" x2="174.9999999999999" y1="716.5063509461097" y2="370.0961894323342"/>
<line stroke="blue" x1="775" x2="225" y1="716.5063509461097" y2="716.5063509461097"/>
<line stroke="red" x1="768.75" x2="168.74999999999991" y1="727.3316684934151" y2="380.9215069796397"/>
<line stroke="blue" x1="768.75" x2="231.25" y1="727.3316684934151" y2="727.3316684934152"/>
<line stroke="green" x1="762.5" x2="575" y1="738.1569860407207" y2="846.4101615137754"/>
<line stroke="orange" x1="762.5" x2="424.99999999999983" y1="738.1569860407207" y2="153.58983848622464"/>
<line stroke="black" x1="762.5" x2="762.4999999999999" y1="738.1569860407207" y2="261.8430139592791"/>
<line stroke="red" x1="762.5" x2="162.49999999999991" y1="738.1569860407207" y2="391.74682452694515"/>
<line stroke="blue" x1="762.5" x2="237.5" y1="738.1569860407207" y2="738.1569860407208"/>
<line stroke="red" x1="756.25" x2="156.24999999999991" y1="748.9823035880261" y2="402.5721420742507"/>
<line stroke="blue" x1="756.25" x2="243.75" y1="748.9823035880261" y2="748.9823035880262"/>
<line stroke="green" x1="750" x2="600" y1="759.8076211353316" y2="846.4101615137754"/>
<line stroke="orange" x1="750" x2="399.99999999999983" y1="759.8076211353316" y2="153.58983848622464"/>
<line stroke="black" x1="750" x2="749.9999999999999" y1="759.8076211353316" y2="240.19237886466817"/>
<line stroke="red" x1="750" x2="149.99999999999994" y1="759.8076211353316" y2="413.39745962155615"/>
<line stroke="blue" x1="750" x2="250" y1="759.8076211353316" y2="759.8076211353317"/>
<line stroke="red" x1="743.75" x2="143.74999999999994" y1="770.6329386826371" y2="424.2227771688616"/>
<line stroke="blue" x1="743.75" x2="256.25" y1="770.6329386826371" y2="770.6329386826371"/>
<line stroke="green" x1="737.5" x2="625" y1="781.4582562299427" y2="846.4101615137754"/>
<line stroke="orange" x1="737.5" x2="374.99999999999983" y1="781.4582562299427" y2="153.58983848622464"/>
<line stroke="black" x1="737.5" x2="737.4999999999999" y1="781.4582562299427" y2="218.54174377005722"/>
<line stroke="red" x1="737.5" x2="137.49999999999994" y1="781.4582562299427" y2="435.04809471616716"/>
<line stroke="blue" x1="737.5" x2="262.5" y1="781.4582562299427" y2="781.4582562299427"/>
<line stroke="red" x1="731.25" x2="131.24999999999994" y1="792.2835737772481" y2="445.87341226347263"/>
<line stroke="blue" x1="731.25" x2="268.75" y1="792.2835737772481" y2="792.2835737772481"/>
<line stroke="green" x1="725" x2="650" y1="803.1088913245535" y2="846.4101615137754"/>
<line stroke="orange" x1="725" x2="349.99999999999983" y1="803.1088913245535" y2="153.58983848622466"/>
<line stroke="black" x1="725" x2="724.9999999999999" y1="803.1088913245535" y2="196.89110867544628"/>
<line stroke="red" x1="725" x2="124.99999999999997" y1="803.1088913245535" y2="456.6987298107781"/>
<line stroke="blue" x1="725" x2="275.00000000000006" y1="803.1088913245535" y2="803.1088913245536"/>
<line stroke="red" x1="718.75" x2="118.74999999999997" y1="813.934208871859" y2="467.5240473580836"/>
<line stroke="blue" x1="718.75" x2="281.25000000000006" y1="813.934208871859" y2="813.934208871859"/>
<line stroke="green" x1="712.5" x2="675" y1="824.7595264191646" y2="846.4101615137754"/>
<line stroke="orange" x1="712.5" x2="324.99999999999983" y1="824.7595264191646" y2="153.58983848622466"/>
<line stroke="black" x1="712.5" x2="712.4999999999998" y1="824.7595264191646" y2="175.24047358083533"/>
<line stroke="red" x1="712.5" x2="112.49999999999999" y1="824.7595264191646" y2="478.34936490538905"/>
<line stroke="blue" x1="712.5" x2="287.50000000000006" y1="824.7595264191646" y2="824.7595264191646"/>
<line stroke="red" x1="706.25" x2="106.24999999999999" y1="835.58484396647" y2="489.1746824526946"/>
<line stroke="blue" x1="706.25" x2="293.75000000000006" y1="835.58484396647" y2="835.58484396647"/>
<line stroke="green" x1="700" x2="99.99999999999989" y1="846.4101615137754" y2="500.00000000000017"/>
<line stroke="orange" x1="700" x2="900.0000000000002" y1="846.4101615137754" y2="499.99999999999955"/>
<line stroke="black" x1="700" x2="700" y1="846.4101615137754" y2="846.4101615137755"/>
<line stroke="red" x1="700" x2="699.9999999999998" y1="846.4101615137754" y2="153.58983848622458"/>
<line stroke="blue" x1="700" x2="299.9999999999998" y1="846.4101615137754" y2="153.58983848622444"/>
<line stroke="red" x1="687.5" x2="687.4999999999998" y1="846.4101615137754" y2="153.58983848622458"/>
<line stroke="blue" x1="687.5" x2="293.7499999999998" y1="846.4101615137754" y2="164.4151560335299"/>
<line stroke="green" x1="675" x2="112.49999999999989" y1="846.4101615137754" y2="521.6506350946111"/>
<line stroke="orange" x1="675" x2="887.5000000000002" y1="846.4101615137754" y2="478.3493649053886"/>
<line stroke="black" x1="675" x2="712.5" y1="846.4101615137754" y2="824.7595264191646"/>
<line stroke="red" x1="675" x2="674.9999999999998" y1="846.4101615137754" y2="153.58983848622458"/>
<line stroke="blue" x1="675" x2="287.4999999999998" y1="846.4101615137754" y2="175.24047358083544"/>
<line stroke="red" x1="662.5" x2="662.4999999999998" y1="846.4101615137754" y2="153.58983848622458"/>
<line stroke="blue" x1="662.5" x2="281.2499999999998" y1="846.4101615137754" y2="186.06579112814092"/>
<line stroke="green" x1="650" x2="124.99999999999991" y1="846.4101615137754" y2="543.3012701892221"/>
<line stroke="orange" x1="650" x2="875.0000000000002" y1="846.4101615137754" y2="456.69872981077765"/>
<line stroke="black" x1="650" x2="725" y1="846.4101615137754" y2="803.1088913245535"/>
<line stroke="red" x1="650" x2="649.9999999999998" y1="846.4101615137754" y2="153.58983848622458"/>
<line stroke="blue" x1="650" x2="274.9999999999998" y1="846.4101615137754" y2="196.8911086754464"/>
<line stroke="red" x1="637.5" x2="637.4999999999998" y1="846.4101615137754" y2="153.58983848622458"/>
<line stroke="blue" x1="637.5" x2="268.7499999999998" y1="846.4101615137754" y2="207.71642622275186"/>
<line stroke="green" x1="625" x2="137.49999999999991" y1="846.4101615137754" y2="564.951905283833"/>
<line stroke="orange" x1="625" x2="862.5000000000002" y1="846.4101615137754" y2="435.0480947161667"/>
<line stroke="black" x1="625" x2="737.5" y1="846.4101615137754" y2="781.4582562299427"/>
<line stroke="red" x1="625" x2="624.9999999999998" y1="846.4101615137754" y2="153.58983848622458"/>
<line stroke="blue" x1="625" x2="262.4999999999998" y1="846.4101615137754" y2="218.5417437700574"/>
<line stroke="red" x1="612.5" x2="612.4999999999998" y1="846.4101615137754" y2="153.58983848622458"/>
<line stroke="blue" x1="612.5" x2="256.2499999999998" y1="846.4101615137754" y2="229.36706131736287"/>
<line stroke="green" x1="600" x2="149.99999999999991" y1="846.4101615137754" y2="586.602540378444"/>
<line stroke="orange" x1="600" x2="850.0000000000001" y1="846.4101615137754" y2="413.39745962155575"/>
<line stroke="black" x1="600" x2="750" y1="846.4101615137754" y2="759.8076211353316"/>
<line stroke="red" x1="600" x2="599.9999999999998" y1="846.4101615137754" y2="153.58983848622458"/>
<line stroke="blue" x1="600" x2="249.9999999999998" y1="846.4101615137754" y2="240.19237886466834"/>
<line stroke="red" x1="587.5" x2="587.4999999999998" y1="846.4101615137754" y2="153.5898384862246"/>
<line stroke="blue" x1="587.5" x2="243.7499999999998" y1="846.4101615137754" y2="251.01769641197384"/>
<line stroke="green" x1="575" x2="162.49999999999994" y1="846.4101615137754" y2="608.253175473055"/>
<line stroke="orange" x1="575" x2="837.5000000000001" y1="846.4101615137754" y2="391.7468245269448"/>
<line stroke="black" x1="575" x2="762.5" y1="846.4101615137754" y2="738.1569860407207"/>
<line stroke="red" x1="575" x2="574.9999999999998" y1="846.4101615137754" y2="153.5898384862246"/>
<line stroke="blue" x1="575" x2="237.49999999999983" y1="846.4101615137754" y2="261.84301395927935"/>
<line stroke="red" x1="562.5" x2="562.4999999999998" y1="846.4101615137754" y2="153.5898384862246"/>
<line stroke="blue" x1="562.5" x2="231.24999999999983" y1="846.4101615137754" y2="272.6683315065848"/>
<line stroke="green" x1="550" x2="174.99999999999994" y1="846.4101615137754" y2="629.9038105676659"/>
<line stroke="orange" x1="550" x2="825.0000000000001" y1="846.4101615137754" y2="370.09618943233386"/>
<line stroke="black" x1="550" x2="775" y1="846.4101615137754" y2="716.5063509461097"/>
<line stroke="red" x1="550" x2="549.9999999999998" y1="846.4101615137754" y2="153.5898384862246"/>
<line stroke="blue" x1="550" x2="224.99999999999983" y1="846.4101615137754" y2="283.4936490538903"/>
<line stroke="red" x1="537.5" x2="537.4999999999998" y1="846.4101615137754" y2="153.5898384862246"/>
<line stroke="blue" x1="537.5" x2="218.74999999999983" y1="846.4101615137754" y2="294.3189666011958"/>
<line stroke="green" x1="525" x2="187.49999999999994" y1="846.4101615137754" y2="651.5544456622769"/>
<line stroke="orange" x1="525" x2="812.5" y1="846.4101615137754" y2="348.4455543377229"/>
<line stroke="black" x1="525" x2="787.5" y1="846.4101615137754" y2="694.8557158514986"/>
<line stroke="red" x1="525" x2="524.9999999999998" y1="846.4101615137754" y2="153.5898384862246"/>
<line stroke="blue" x1="525" x2="212.49999999999983" y1="846.4101615137754" y2="305.14428414850124"/>
<line stroke="red" x1="512.5" x2="512.4999999999998" y1="846.4101615137754" y2="153.5898384862246"/>
<line stroke="blue" x1="512.5" x2="206.24999999999986" y1="846.4101615137754" y2="315.9696016958068"/>
<line stroke="green" x1="500" x2="199.99999999999997" y1="846.4101615137754" y2="673.2050807568878"/>
<line stroke="orange" x1="500" x2="800" y1="846.4101615137754" y2="326.79491924311196"/>
<line stroke="black" x1="500" x2="800" y1="846.4101615137754" y2="673.2050807568878"/>
<line stroke="red" x1="500" x2="499.99999999999983" y1="846.4101615137754" y2="153.5898384862246"/>
<line stroke="blue" x1="500" x2="199.9999999999999" y1="846.4101615137754" y2="326.79491924311225"/>
<line stroke="red" x1="487.5" x2="487.49999999999983" y1="846.4101615137754" y2="153.5898384862246"/>
<line stroke="blue" x1="487.5" x2="193.7499999999999" y1="846.4101615137754" y2="337.6202367904177"/>
<line stroke="green" x1="475" x2="212.5" y1="846.4101615137754" y2="694.8557158514988"/>
<line stroke="orange" x1="475" x2="787.5" y1="846.4101615137754" y2="305.144284148501"/>
<line stroke="black" x1="475" x2="812.5" y1="846.4101615137754" y2="651.5544456622767"/>
<line stroke="red" x1="475" x2="474.99999999999983" y1="846.4101615137754" y2="153.5898384862246"/>
<line stroke="blue" x1="475" x2="187.4999999999999" y1="846.4101615137754" y2="348.44555433772325"/>
<line stroke="red" x1="462.5" x2="462.49999999999983" y1="846.4101615137754" y2="153.58983848622464"/>
<line stroke="blue" x1="462.5" x2="181.2499999999999" y1="846.4101615137754" y2="359.2708718850287"/>
<line stroke="green" x1="450" x2="225" y1="846.4101615137754" y2="716.5063509461097"/>
<line stroke="orange" x1="450" x2="775" y1="846.4101615137754" y2="283.49364905389007"/>
<line stroke="black" x1="450" x2="825" y1="846.4101615137754" y2="629.9038105676658"/>
<line stroke="red" x1="450" x2="449.99999999999983" y1="846.4101615137754" y2="153.58983848622464"/>
<line stroke="blue" x1="450" x2="174.9999999999999" y1="846.4101615137754" y2="370.0961894323342"/>
<line stroke="red" x1="437.5" x2="437.49999999999983" y1="846.4101615137754" y2="153.58983848622464"/>
<line stroke="blue" x1="437.5" x2="168.74999999999991" y1="846.4101615137754" y2="380.9215069796397"/>
<line stroke="green" x1="425" x2="237.5" y1="846.4101615137754" y2="738.1569860407208"/>
<line stroke="orange" x1="425" x2="762.4999999999999" y1="846.4101615137754" y2="261.8430139592791"/>
<line stroke="black" x1="425" x2="837.5" y1="846.4101615137754" y2="608.2531754730549"/>
<line stroke="red" x1="425" x2="424.99999999999983" y1="846.4101615137754" y2="153.58983848622464"/>
<line stroke="blue" x1="425" x2="162.49999999999991" y1="846.4101615137754" y2="391.74682452694515"/>
<line stroke="red" x1="412.5" x2="412.49999999999983" y1="846.4101615137754" y2="153.58983848622464"/>
<line stroke="blue" x1="412.5" x2="156.24999999999991" y1="846.4101615137754" y2="402.5721420742507"/>
<line stroke="green" x1="400" x2="250" y1="846.4101615137754" y2="759.8076211353317"/>
<line stroke="orange" x1="400" x2="749.9999999999999" y1="846.4101615137754" y2="240.19237886466817"/>
<line stroke="black" x1="400" x2="850" y1="846.4101615137754" y2="586.6025403784439"/>
<line stroke="red" x1="400" x2="399.99999999999983" y1="846.4101615137754" y2="153.58983848622464"/>
<line stroke="blue" x1="400" x2="149.99999999999994" y1="846.4101615137754" y2="413.39745962155615"/>
<line stroke="red" x1="387.5" x2="387.49999999999983" y1="846.4101615137754" y2="153.58983848622464"/>
<line stroke="blue" x1="387.5" x2="143.74999999999994" y1="846.4101615137754" y2="424.2227771688616"/>
<line stroke="green" x1="375" x2="262.5" y1="846.4101615137754" y2="781.4582562299427"/>
<line stroke="orange" x1="375" x2="737.4999999999999" y1="846.4101615137754" y2="218.54174377005722"/>
<line stroke="black" x1="375" x2="862.5" y1="846.4101615137754" y2="564.951905283833"/>
<line stroke="red" x1="375" x2="374.99999999999983" y1="846.4101615137754" y2="153.58983848622464"/>
<line stroke="blue" x1="375" x2="137.49999999999994" y1="846.4101615137754" y2="435.04809471616716"/>
<line stroke="red" x1="362.5" x2="362.49999999999983" y1="846.4101615137754" y2="153.58983848622464"/>
<line stroke="blue" x1="362.5" x2="131.24999999999994" y1="846.4101615137754" y2="445.87341226347263"/>
<line stroke="green" x1="350" x2="275.00000000000006" y1="846.4101615137754" y2="803.1088913245536"/>
<line stroke="orange" x1="350" x2="724.9999999999999" y1="846.4101615137754" y2="196.89110867544628"/>
<line stroke="black" x1="350" x2="875" y1="846.4101615137754" y2="543.3012701892219"/>
<line stroke="red" x1="350" x2="349.99999999999983" y1="846.4101615137754" y2="153.58983848622466"/>
<line stroke="blue" x1="350" x2="124.99999999999997" y1="846.4101615137754" y2="456.6987298107781"/>
<line stroke="red" x1="337.5" x2="337.49999999999983" y1="846.4101615137754" y2="153.58983848622466"/>
<line stroke="blue" x1="337.5" x2="118.74999999999997" y1="846.4101615137754" y2="467.5240473580836"/>
<line stroke="green" x1="325" x2="287.50000000000006" y1="846.4101615137754" y2="824.7595264191646"/>
<line stroke="orange" x1="325" x2="712.4999999999998" y1="846.4101615137754" y2="175.24047358083533"/>
<line stroke="black" x1="325" x2="887.5" y1="846.4101615137754" y2="521.650635094611"/>
<line stroke="red" x1="325" x2="324.99999999999983" y1="846.4101615137754" y2="153.58983848622466"/>
<line stroke="blue" x1="325" x2="112.49999999999999" y1="846.4101615137754" y2="478.34936490538905"/>
<line stroke="red" x1="312.5" x2="312.49999999999983" y1="846.4101615137754" y2="153.58983848622466"/>
<line stroke="blue" x1="312.5" x2="106.24999999999999" y1="846.4101615137754" y2="489.1746824526946"/>
<line stroke="green" x1="300.00000000000006" x2="299.9999999999998" y1="846.4101615137755" y2="153.58983848622444"/>
<line stroke="orange" x1="300.00000000000006" x2="700" y1="846.4101615137755" y2="846.4101615137755"/>
<line stroke="black" x1="300.00000000000006" x2="300" y1="846.4101615137755" y2="846.4101615137754"/>
<line stroke="red" x1="300.00000000000006" x2="900.0000000000002" y1="846.4101615137755" y2="499.99999999999955"/>
<line stroke="blue" x1="300.00000000000006" x2="699.9999999999998" y1="846.4101615137755" y2="153.58983848622458"/>
<line stroke="red" x1="293.75000000000006" x2="893.7500000000002" y1="835.58484396647" y2="489.17468245269407"/>
<line stroke="blue" x1="293.75000000000006" x2="687.4999999999998" y1="835.58484396647" y2="153.58983848622458"/>
<line stroke="green" x1="287.50000000000006" x2="287.4999999999998" y1="824.7595264191646" y2="175.24047358083544"/>
<line stroke="orange" x1="287.50000000000006" x2="712.5" y1="824.7595264191646" y2="824.7595264191646"/>
<line stroke="black" x1="287.50000000000006" x2="325" y1="824.7595264191646" y2="846.4101615137754"/>
<line stroke="red" x1="287.50000000000006" x2="887.5000000000002" y1="824.7595264191646" y2="478.3493649053886"/>
<line stroke="blue" x1="287.50000000000006" x2="674.9999999999998" y1="824.7595264191646" y2="153.58983848622458"/>
<line stroke="red" x1="281.25000000000006" x2="881.2500000000002" y1="813.934208871859" y2="467.5240473580831"/>
<line stroke="blue" x1="281.25000000000006" x2="662.4999999999998" y1="813.934208871859" y2="153.58983848622458"/>
<line stroke="green" x1="275.00000000000006" x2="274.9999999999998" y1="803.1088913245536" y2="196.8911086754464"/>
<line stroke="orange" x1="275.00000000000006" x2="725" y1="803.1088913245536" y2="803.1088913245535"/>
<line stroke="black" x1="275.00000000000006" x2="350" y1="803.1088913245536" y2="846.4101615137754"/>
<line stroke="red" x1="275.00000000000006" x2="875.0000000000002" y1="803.1088913245536" y2="456.69872981077765"/>
<line stroke="blue" x1="275.00000000000006" x2="649.9999999999998" y1="803.1088913245536" y2="153.58983848622458"/>
<line stroke="red" x1="268.75" x2="868.7500000000002" y1="792.2835737772481" y2="445.8734122634722"/>
<line stroke="blue" x1="268.75" x2="637.4999999999998" y1="792.2835737772481" y2="153.58983848622458"/>
<line stroke="green" x1="262.5" x2="262.4999999999998" y1="781.4582562299427" y2="218.5417437700574"/>
<line stroke="orange" x1="262.5" x2="737.5" y1="781.4582562299427" y2="781.4582562299427"/>
<line stroke="black" x1="262.5" x2="375" y1="781.4582562299427" y2="846.4101615137754"/>
<line stroke="red" x1="262.5" x2="862.5000000000002" y1="781.4582562299427" y2="435.0480947161667"/>
<line stroke="blue" x1="262.5" x2="624.9999999999998" y1="781.4582562299427" y2="153.58983848622458"/>
<line stroke="red" x1="256.25" x2="856.2500000000001" y1="770.6329386826371" y2="424.2227771688612"/>
<line stroke="blue" x1="256.25" x2="612.4999999999998" y1="770.6329386826371" y2="153.58983848622458"/>
<line stroke="green" x1="250" x2="249.9999999999998" y1="759.8076211353317" y2="240.19237886466834"/>
<line stroke="orange" x1="250" x2="750" y1="759.8076211353317" y2="759.8076211353316"/>
<line stroke="black" x1="250" x2="400" y1="759.8076211353317" y2="846.4101615137754"/>
<line stroke="red" x1="250" x2="850.0000000000001" y1="759.8076211353317" y2="413.39745962155575"/>
<line stroke="blue" x1="250" x2="599.9999999999998" y1="759.8076211353317" y2="153.58983848622458"/>
<line stroke="red" x1="243.75" x2="843.7500000000001" y1="748.9823035880262" y2="402.5721420742503"/>
<line stroke="blue" x1="243.75" x2="587.4999999999998" y1="748.9823035880262" y2="153.5898384862246"/>
<line stroke="green" x1="237.5" x2="237.49999999999983" y1="738.1569860407208" y2="261.84301395927935"/>
<line stroke="orange" x1="237.5" x2="762.5" y1="738.1569860407208" y2="738.1569860407207"/>
<line stroke="black" x1="237.5" x2="425" y1="738.1569860407208" y2="846.4101615137754"/>
<line stroke="red" x1="237.5" x2="837.5000000000001" y1="738.1569860407208" y2="391.7468245269448"/>
<line stroke="blue" x1="237.5" x2="574.9999999999998" y1="738.1569860407208" y2="153.5898384862246"/>
<line stroke="red" x1="231.25" x2="831.2500000000001" y1="727.3316684934152" y2="380.92150697963933"/>
<line stroke="blue" x1="231.25" x2="562.4999999999998" y1="727.3316684934152" y2="153.5898384862246"/>
<line stroke="green" x1="225" x2="224.99999999999983" y1="716.5063509461097" y2="283.4936490538903"/>
<line stroke="orange" x1="225" x2="775" y1="716.5063509461097" y2="716.5063509461097"/>
<line stroke="black" x1="225" x2="450" y1="716.5063509461097" y2="846.4101615137754"/>
<line stroke="red" x1="225" x2="825.0000000000001" y1="716.5063509461097" y2="370.09618943233386"/>
<line stroke="blue" x1="225" x2="549.9999999999998" y1="716.5063509461097" y2="153.5898384862246"/>
<line stroke="red" x1="218.75" x2="818.75" y1="705.6810333988043" y2="359.2708718850284"/>
<line stroke="blue" x1="218.75" x2="537.4999999999998" y1="705.6810333988043" y2="153.5898384862246"/>
<line stroke="green" x1="212.5" x2="212.49999999999983" y1="694.8557158514988" y2="305.14428414850124"/>
<line stroke="orange" x1="212.5" x2="787.5" y1="694.8557158514988" y2="694.8557158514986"/>
<line stroke="black" x1="212.5" x2="475" y1="694.8557158514988" y2="846.4101615137754"/>
<line stroke="red" x1="212.5" x2="812.5" y1="694.8557158514988" y2="348.4455543377229"/>
<line stroke="blue" x1="212.5" x2="524.9999999999998" y1="694.8557158514988" y2="153.5898384862246"/>
<line stroke="red" x1="206.24999999999997" x2="806.25" y1="684.0303983041933" y2="337.62023679041744"/>
<line stroke="blue" x1="206.24999999999997" x2="512.4999999999998" y1="684.0303983041933" y2="153.5898384862246"/>
<line stroke="green" x1="199.99999999999997" x2="199.9999999999999" y1="673.2050807568878" y2="326.79491924311225"/>
<line stroke="orange" x1="199.99999999999997" x2="800" y1="673.2050807568878" y2="673.2050807568878"/>
<line stroke="black" x1="199.99999999999997" x2="500" y1="673.2050807568878" y2="846.4101615137754"/>
<line stroke="red" x1="199.99999999999997" x2="800" y1="673.2050807568878" y2="326.79491924311196"/>
<line stroke="blue" x1="199.99999999999997" x2="499.99999999999983" y1="673.2050807568878" y2="153.5898384862246"/>
<line stroke="red" x1="193.74999999999994" x2="793.75" y1="662.3797632095824" y2="315.9696016958065"/>
<line stroke="blue" x1="193.74999999999994" x2="487.49999999999983" y1="662.3797632095824" y2="153.5898384862246"/>
<line stroke="green" x1="187.49999999999994" x2="187.4999999999999" y1="651.5544456622769" y2="348.44555433772325"/>
<line stroke="orange" x1="187.49999999999994" x2="812.5" y1="651.5544456622769" y2="651.5544456622767"/>
<line stroke="black" x1="187.49999999999994" x2="525" y1="651.5544456622769" y2="846.4101615137754"/>
<line stroke="red" x1="187.49999999999994" x2="787.5" y1="651.5544456622769" y2="305.144284148501"/>
<line stroke="blue" x1="187.49999999999994" x2="474.99999999999983" y1="651.5544456622769" y2="153.5898384862246"/>
<line stroke="red" x1="181.24999999999994" x2="781.25" y1="640.7291281149714" y2="294.31896660119554"/>
<line stroke="blue" x1="181.24999999999994" x2="462.49999999999983" y1="640.7291281149714" y2="153.58983848622464"/>
<line stroke="green" x1="174.99999999999994" x2="174.9999999999999" y1="629.9038105676659" y2="370.0961894323342"/>
<line stroke="orange" x1="174.99999999999994" x2="825" y1="629.9038105676659" y2="629.9038105676658"/>
<line stroke="black" x1="174.99999999999994" x2="550" y1="629.9038105676659" y2="846.4101615137754"/>
<line stroke="red" x1="174.99999999999994" x2="775" y1="629.9038105676659" y2="283.49364905389007"/>
<line stroke="blue" x1="174.99999999999994" x2="449.99999999999983" y1="629.9038105676659" y2="153.58983848622464"/>
<line stroke="red" x1="168.74999999999994" x2="768.75" y1="619.0784930203604" y2="272.6683315065846"/>
<line stroke="blue" x1="168.74999999999994" x2="437.49999999999983" y1="619.0784930203604" y2="153.58983848622464"/>
<line stroke="green" x1="162.49999999999994" x2="162.49999999999991" y1="608.253175473055" y2="391.74682452694515"/>
<line stroke="orange" x1="162.49999999999994" x2="837.5" y1="608.253175473055" y2="608.2531754730549"/>
<line stroke="black" x1="162.49999999999994" x2="575" y1="608.253175473055" y2="846.4101615137754"/>
<line stroke="red" x1="162.49999999999994" x2="762.4999999999999" y1="608.253175473055" y2="261.8430139592791"/>
<line stroke="blue" x1="162.49999999999994" x2="424.99999999999983" y1="608.253175473055" y2="153.58983848622464"/>
<line stroke="red" x1="156.24999999999994" x2="756.2499999999999" y1="597.4278579257494" y2="251.01769641197365"/>
<line stroke="blue" x1="156.24999999999994" x2="412.49999999999983" y1="597.4278579257494" y2="153.58983848622464"/>
<line stroke="green" x1="149.99999999999991" x2="149.99999999999994" y1="586.602540378444" y2="413.39745962155615"/>
<line stroke="orange" x1="149.99999999999991" x2="850" y1="586.602540378444" y2="586.6025403784439"/>
<line stroke="black" x1="149.99999999999991" x2="600" y1="586.602540378444" y2="846.4101615137754"/>
<line stroke="red" x1="149.99999999999991" x2="749.9999999999999" y1="586.602540378444" y2="240.19237886466817"/>
<line stroke="blue" x1="149.99999999999991" x2="399.99999999999983" y1="586.602540378444" y2="153.58983848622464"/>
<line stroke="red" x1="143.74999999999991" x2="743.7499999999999" y1="575.7772228311385" y2="229.3670613173627"/>
<line stroke="blue" x1="143.74999999999991" x2="387.49999999999983" y1="575.7772228311385" y2="153.58983848622464"/>
<line stroke="green" x1="137.49999999999991" x2="137.49999999999994" y1="564.951905283833" y2="435.04809471616716"/>
<line stroke="orange" x1="137.49999999999991" x2="862.5" y1="564.951905283833" y2="564.951905283833"/>
<line stroke="black" x1="137.49999999999991" x2="625" y1="564.951905283833" y2="846.4101615137754"/>
<line stroke="red" x1="137.49999999999991" x2="737.4999999999999" y1="564.951905283833" y2="218.54174377005722"/>
<line stroke="blue" x1="137.49999999999991" x2="374.99999999999983" y1="564.951905283833" y2="153.58983848622464"/>
<line stroke="red" x1="131.24999999999991" x2="731.2499999999999" y1="554.1265877365275" y2="207.71642622275175"/>
<line stroke="blue" x1="131.24999999999991" x2="362.49999999999983" y1="554.1265877365275" y2="153.58983848622464"/>
<line stroke="green" x1="124.99999999999991" x2="124.99999999999997" y1="543.3012701892221" y2="456.6987298107781"/>
<line stroke="orange" x1="124.99999999999991" x2="875" y1="543.3012701892221" y2="543.3012701892219"/>
<line stroke="black" x1="124.99999999999991" x2="650" y1="543.3012701892221" y2="846.4101615137754"/>
<line stroke="red" x1="124.99999999999991" x2="724.9999999999999" y1="543.3012701892221" y2="196.89110867544628"/>
<line stroke="blue" x1="124.99999999999991" x2="349.99999999999983" y1="543.3012701892221" y2="153.58983848622466"/>
<line stroke="red" x1="118.74999999999989" x2="718.7499999999998" y1="532.4759526419166" y2="186.0657911281408"/>
<line stroke="blue" x1="118.74999999999989" x2="337.49999999999983" y1="532.4759526419166" y2="153.58983848622466"/>
<line stroke="green" x1="112.49999999999989" x2="112.49999999999999" y1="521.6506350946111" y2="478.34936490538905"/>
<line stroke="orange" x1="112.49999999999989" x2="887.5" y1="521.6506350946111" y2="521.650635094611"/>
<line stroke="black" x1="112.49999999999989" x2="675" y1="521.6506350946111" y2="846.4101615137754"/>
<line stroke="red" x1="112.49999999999989" x2="712.4999999999998" y1="521.6506350946111" y2="175.24047358083533"/>
<line stroke="blue" x1="112.49999999999989" x2="324.99999999999983" y1="521.6506350946111" y2="153.58983848622466"/>
<line stroke="red" x1="106.24999999999989" x2="706.2499999999998" y1="510.82531754730564" y2="164.41515603352985"/>
<line stroke="blue" x1="106.24999999999989" x2="312.49999999999983" y1="510.82531754730564" y2="153.58983848622466"/>
<line stroke="green" x1="100" x2="699.9999999999998" y1="500.00000000000006" y2="153.58983848622458"/>
<line stroke="orange" x1="100" x2="300" y1="500.00000000000006" y2="846.4101615137754"/>
<line stroke="black" x1="100" x2="99.99999999999989" y1="500.00000000000006" y2="500.00000000000017"/>
<line stroke="red" x1="100" x2="700" y1="500.00000000000006" y2="846.4101615137755"/>
<line stroke="blue" x1="100" x2="900.0000000000002" y1="500.00000000000006" y2="499.99999999999955"/>
<line stroke="red" x1="106.24999999999999" x2="706.25" y1="489.1746824526946" y2="835.58484396647"/>
<line stroke="blue" x1="106.24999999999999" x2="893.7500000000002" y1="489.1746824526946" y2="489.17468245269407"/>
<line stroke="green" x1="112.49999999999999" x2="674.9999999999998" y1="478.34936490538905" y2="153.58983848622458"/>
<line stroke="orange" x1="112.49999999999999" x2="325" y1="478.34936490538905" y2="846.4101615137754"/>
<line stroke="black" x1="112.49999999999999" x2="112.49999999999989" y1="478.34936490538905" y2="521.6506350946111"/>
<line stroke="red" x1="112.49999999999999" x2="712.5" y1="478.34936490538905" y2="824.7595264191646"/>
<line stroke="blue" x1="112.49999999999999" x2="887.5000000000002" y1="478.34936490538905" y2="478.3493649053886"/>
<line stroke="red" x1="118.74999999999997" x2="718.75" y1="467.5240473580836" y2="813.934208871859"/>
<line stroke="blue" x1="118.74999999999997" x2="881.2500000000002" y1="467.5240473580836" y2="467.5240473580831"/>
<line stroke="green" x1="124.99999999999997" x2="649.9999999999998" y1="456.6987298107781" y2="153.58983848622458"/>
<line stroke="orange" x1="124.99999999999997" x2="350" y1="456.6987298107781" y2="846.4101615137754"/>
<line stroke="black" x1="124.99999999999997" x2="124.99999999999991" y1="456.6987298107781" y2="543.3012701892221"/>
<line stroke="red" x1="124.99999999999997" x2="725" y1="456.6987298107781" y2="803.1088913245535"/>
<line stroke="blue" x1="124.99999999999997" x2="875.0000000000002" y1="456.6987298107781" y2="456.69872981077765"/>
<line stroke="red" x1="131.24999999999994" x2="731.25" y1="445.87341226347263" y2="792.2835737772481"/>
<line stroke="blue" x1="131.24999999999994" x2="868.7500000000002" y1="445.87341226347263" y2="445.8734122634722"/>
<line stroke="green" x1="137.49999999999994" x2="624.9999999999998" y1="435.04809471616716" y2="153.58983848622458"/>
<line stroke="orange" x1="137.49999999999994" x2="375" y1="435.04809471616716" y2="846.4101615137754"/>
<line stroke="black" x1="137.49999999999994" x2="137.49999999999991" y1="435.04809471616716" y2="564.951905283833"/>
<line stroke="red" x1="137.49999999999994" x2="737.5" y1="435.04809471616716" y2="781.4582562299427"/>
<line stroke="blue" x1="137.49999999999994" x2="862.5000000000002" y1="435.04809471616716" y2="435.0480947161667"/>
<line stroke="red" x1="143.74999999999994" x2="743.75" y1="424.2227771688616" y2="770.6329386826371"/>
<line stroke="blue" x1="143.74999999999994" x2="856.2500000000001" y1="424.2227771688616" y2="424.2227771688612"/>
<line stroke="green" x1="149.99999999999994" x2="599.9999999999998" y1="413.39745962155615" y2="153.58983848622458"/>
<line stroke="orange" x1="149.99999999999994" x2="400" y1="413.39745962155615" y2="846.4101615137754"/>
<line stroke="black" x1="149.99999999999994" x2="149.99999999999991" y1="413.39745962155615" y2="586.602540378444"/>
<line stroke="red" x1="149.99999999999994" x2="750" y1="413.39745962155615" y2="759.8076211353316"/>
<line stroke="blue" x1="149.99999999999994" x2="850.0000000000001" y1="413.39745962155615" y2="413.39745962155575"/>
<line stroke="red" x1="156.24999999999991" x2="756.25" y1="402.5721420742507" y2="748.9823035880261"/>
<line stroke="blue" x1="156.24999999999991" x2="843.7500000000001" y1="402.5721420742507" y2="402.5721420742503"/>
<line stroke="green" x1="162.49999999999991" x2="574.9999999999998" y1="391.74682452694515" y2="153.5898384862246"/>
<line stroke="orange" x1="162.49999999999991" x2="425" y1="391.74682452694515" y2="846.4101615137754"/>
<line stroke="black" x1="162.49999999999991" x2="162.49999999999994" y1="391.74682452694515" y2="608.253175473055"/>
<line stroke="red" x1="162.49999999999991" x2="762.5" y1="391.74682452694515" y2="738.1569860407207"/>
<line stroke="blue" x1="162.49999999999991" x2="837.5000000000001" y1="391.74682452694515" y2="391.7468245269448"/>
<line stroke="red" x1="168.74999999999991" x2="768.75" y1="380.9215069796397" y2="727.3316684934151"/>
<line stroke="blue" x1="168.74999999999991" x2="831.2500000000001" y1="380.9215069796397" y2="380.92150697963933"/>
<line stroke="green" x1="174.9999999999999" x2="549.9999999999998" y1="370.0961894323342" y2="153.5898384862246"/>
<line stroke="orange" x1="174.9999999999999" x2="450" y1="370.0961894323342" y2="846.4101615137754"/>
<line stroke="black" x1="174.9999999999999" x2="174.99999999999994" y1="370.0961894323342" y2="629.9038105676659"/>
<line stroke="red" x1="174.9999999999999" x2="775" y1="370.0961894323342" y2="716.5063509461097"/>
<line stroke="blue" x1="174.9999999999999" x2="825.0000000000001" y1="370.0961894323342" y2="370.09618943233386"/>
<line stroke="red" x1="181.2499999999999" x2="781.25" y1="359.2708718850287" y2="705.6810333988042"/>
<line stroke="blue" x1="181.2499999999999" x2="818.75" y1="359.2708718850287" y2="359.2708718850284"/>
<line stroke="green" x1="187.4999999999999" x2="524.9999999999998" y1="348.44555433772325" y2="153.5898384862246"/>
<line stroke="orange" x1="187.4999999999999" x2="475" y1="348.44555433772325" y2="846.4101615137754"/>
<line stroke="black" x1="187.4999999999999" x2="187.49999999999994" y1="348.44555433772325" y2="651.5544456622769"/>
<line stroke="red" x1="187.4999999999999" x2="787.5" y1="348.44555433772325" y2="694.8557158514986"/>
<line stroke="blue" x1="187.4999999999999" x2="812.5" y1="348.44555433772325" y2="348.4455543377229"/>
<line stroke="red" x1="193.7499999999999" x2="793.75" y1="337.6202367904177" y2="684.0303983041932"/>
<line stroke="blue" x1="193.7499999999999" x2="806.25" y1="337.6202367904177" y2="337.62023679041744"/>
<line stroke="green" x1="199.9999999999999" x2="499.99999999999983" y1="326.79491924311225" y2="153.5898384862246"/>
<line stroke="orange" x1="199.9999999999999" x2="500" y1="326.79491924311225" y2="846.4101615137754"/>
<line stroke="black" x1="199.9999999999999" x2="199.99999999999997" y1="326.79491924311225" y2="673.2050807568878"/>
<line stroke="red" x1="199.9999999999999" x2="800" y1="326.79491924311225" y2="673.2050807568878"/>
<line stroke="blue" x1="199.9999999999999" x2="800" y1="326.79491924311225" y2="326.79491924311196"/>
<line stroke="red" x1="206.24999999999986" x2="806.25" y1="315.9696016958068" y2="662.3797632095823"/>
<line stroke="blue" x1="206.24999999999986" x2="793.75" y1="315.9696016958068" y2="315.9696016958065"/>
<line stroke="green" x1="212.49999999999983" x2="474.99999999999983" y1="305.14428414850124" y2="153.5898384862246"/>
<line stroke="orange" x1="212.49999999999983" x2="525" y1="305.14428414850124" y2="846.4101615137754"/>
<line stroke="black" x1="212.49999999999983" x2="212.5" y1="305.14428414850124" y2="694.8557158514988"/>
<line stroke="red" x1="212.49999999999983" x2="812.5" y1="305.14428414850124" y2="651.5544456622767"/>
<line stroke="blue" x1="212.49999999999983" x2="787.5" y1="305.14428414850124" y2="305.144284148501"/>
<line stroke="red" x1="218.74999999999983" x2="818.75" y1="294.3189666011958" y2="640.7291281149713"/>
<line stroke="blue" x1="218.74999999999983" x2="781.25" y1="294.3189666011958" y2="294.31896660119554"/>
<line stroke="green" x1="224.99999999999983" x2="449.99999999999983" y1="283.4936490538903" y2="153.58983848622464"/>
<line stroke="orange" x1="224.99999999999983" x2="550" y1="283.4936490538903" y2="846.4101615137754"/>
<line stroke="black" x1="224.99999999999983" x2="225" y1="283.4936490538903" y2="716.5063509461097"/>
<line stroke="red" x1="224.99999999999983" x2="825" y1="283.4936490538903" y2="629.9038105676658"/>
<line stroke="blue" x1="224.99999999999983" x2="775" y1="283.4936490538903" y2="283.49364905389007"/>
<line stroke="red" x1="231.24999999999983" x2="831.25" y1="272.6683315065848" y2="619.0784930203604"/>
<line stroke="blue" x1="231.24999999999983" x2="768.75" y1="272.6683315065848" y2="272.6683315065846"/>
<line stroke="green" x1="237.49999999999983" x2="424.99999999999983" y1="261.84301395927935" y2="153.58983848622464"/>
<line stroke="orange" x1="237.49999999999983" x2="575" y1="261.84301395927935" y2="846.4101615137754"/>
<line stroke="black" x1="237.49999999999983" x2="237.5" y1="261.84301395927935" y2="738.1569860407208"/>
<line stroke="red" x1="237.49999999999983" x2="837.5" y1="261.84301395927935" y2="608.2531754730549"/>
<line stroke="blue" x1="237.49999999999983" x2="762.4999999999999" y1="261.84301395927935" y2="261.8430139592791"/>
<line stroke="red" x1="243.7499999999998" x2="843.75" y1="251.01769641197384" y2="597.4278579257493"/>
<line stroke="blue" x1="243.7499999999998" x2="756.2499999999999" y1="251.01769641197384" y2="251.01769641197365"/>
<line stroke="green" x1="249.9999999999998" x2="399.99999999999983" y1="240.19237886466834" y2="153.58983848622464"/>
<line stroke="orange" x1="249.9999999999998" x2="600" y1="240.19237886466834" y2="846.4101615137754"/>
<line stroke="black" x1="249.9999999999998" x2="250" y1="240.19237886466834" y2="759.8076211353317"/>
<line stroke="red" x1="249.9999999999998" x2="850" y1="240.19237886466834" y2="586.6025403784439"/>
<line stroke="blue" x1="249.9999999999998" x2="749.9999999999999" y1="240.19237886466834" y2="240.19237886466817"/>
<line stroke="red" x1="256.2499999999998" x2="856.25" y1="229.36706131736287" y2="575.7772228311384"/>
<line stroke="blue" x1="256.2499999999998" x2="743.7499999999999" y1="229.36706131736287" y2="229.3670613173627"/>
<line stroke="green" x1="262.4999999999998" x2="374.99999999999983" y1="218.5417437700574" y2="153.58983848622464"/>
<line stroke="orange" x1="262.4999999999998" x2="625" y1="218.5417437700574" y2="846.4101615137754"/>
<line stroke="black" x1="262.4999999999998" x2="262.5" y1="218.5417437700574" y2="781.4582562299427"/>
<line stroke="red" x1="262.4999999999998" x2="862.5" y1="218.5417437700574" y2="564.951905283833"/>
<line stroke="blue" x1="262.4999999999998" x2="737.4999999999999" y1="218.5417437700574" y2="218.54174377005722"/>
<line stroke="red" x1="268.7499999999998" x2="868.75" y1="207.71642622275186" y2="554.1265877365274"/>
<line stroke="blue" x1="268.7499999999998" x2="731.2499999999999" y1="207.71642622275186" y2="207.71642622275175"/>
<line stroke="green" x1="274.9999999999998" x2="349.99999999999983" y1="196.8911086754464" y2="153.58983848622466"/>
<line stroke="orange" x1="274.9999999999998" x2="650" y1="196.8911086754464" y2="846.4101615137754"/>
<line stroke="black" x1="274.9999999999998" x2="275.00000000000006" y1="196.8911086754464" y2="803.1088913245536"/>
<line stroke="red" x1="274.9999999999998" x2="875" y1="196.8911086754464" y2="543.3012701892219"/>
<line stroke="blue" x1="274.9999999999998" x2="724.9999999999999" y1="196.8911086754464" y2="196.89110867544628"/>
<line stroke="red" x1="281.2499999999998" x2="881.25" y1="186.06579112814092" y2="532.4759526419165"/>
<line stroke="blue" x1="281.2499999999998" x2="718.7499999999998" y1="186.06579112814092" y2="186.0657911281408"/>
<line stroke="green" x1="287.4999999999998" x2="324.99999999999983" y1="175.24047358083544" y2="153.58983848622466"/>
<line stroke="orange" x1="287.4999999999998" x2="675" y1="175.24047358083544" y2="846.4101615137754"/>
<line stroke="black" x1="287.4999999999998" x2="287.50000000000006" y1="175.24047358083544" y2="824.7595264191646"/>
<line stroke="red" x1="287.4999999999998" x2="887.5" y1="175.24047358083544" y2="521.650635094611"/>
<line stroke="blue" x1="287.4999999999998" x2="712.4999999999998" y1="175.24047358083544" y2="175.24047358083533"/>
<line stroke="red" x1="293.7499999999998" x2="893.75" y1="164.4151560335299" y2="510.8253175473055"/>
<line stroke="blue" x1="293.7499999999998" x2="706.2499999999998" y1="164.4151560335299" y2="164.41515603352985"/>
<line stroke="green" x1="299.99999999999983" x2="900.0000000000002" y1="153.58983848622466" y2="499.99999999999955"/>
<line stroke="orange" x1="299.99999999999983" x2="99.99999999999989" y1="153.58983848622466" y2="500.00000000000017"/>
<line stroke="black" x1="299.99999999999983" x2="299.9999999999998" y1="153.58983848622466" y2="153.58983848622444"/>
<line stroke="red" x1="299.99999999999983" x2="300" y1="153.58983848622466" y2="846.4101615137754"/>
<line stroke="blue" x1="299.99999999999983" x2="700" y1="153.58983848622466" y2="846.4101615137755"/>
<line stroke="red" x1="312.49999999999983" x2="312.5" y1="153.58983848622466" y2="846.4101615137754"/>
<line stroke="blue" x1="312.49999999999983" x2="706.25" y1="153.58983848622466" y2="835.58484396647"/>
<line stroke="green" x1="324.99999999999983" x2="887.5000000000002" y1="153.58983848622466" y2="478.3493649053886"/>
<line stroke="orange" x1="324.99999999999983" x2="112.49999999999989" y1="153.58983848622466" y2="521.6506350946111"/>
<line stroke="black" x1="324.99999999999983" x2="287.4999999999998" y1="153.58983848622466" y2="175.24047358083544"/>
<line stroke="red" x1="324.99999999999983" x2="325" y1="153.58983848622466" y2="846.4101615137754"/>
<line stroke="blue" x1="324.99999999999983" x2="712.5" y1="153.58983848622466" y2="824.7595264191646"/>
<line stroke="red" x1="337.49999999999983" x2="337.5" y1="153.58983848622466" y2="846.4101615137754"/>
<line stroke="blue" x1="337.49999999999983" x2="718.75" y1="153.58983848622466" y2="813.934208871859"/>
<line stroke="green" x1="349.99999999999983" x2="875.0000000000002" y1="153.58983848622466" y2="456.69872981077765"/>
<line stroke="orange" x1="349.99999999999983" x2="124.99999999999991" y1="153.58983848622466" y2="543.3012701892221"/>
<line stroke="black" x1="349.99999999999983" x2="274.9999999999998" y1="153.58983848622466" y2="196.8911086754464"/>
<line stroke="red" x1="349.99999999999983" x2="350" y1="153.58983848622466" y2="846.4101615137754"/>
<line stroke="blue" x1="349.99999999999983" x2="725" y1="153.58983848622466" y2="803.1088913245535"/>
<line stroke="red" x1="362.49999999999983" x2="362.5" y1="153.58983848622464" y2="846.4101615137754"/>
<line stroke="blue" x1="362.49999999999983" x2="731.25" y1="153.58983848622464" y2="792.2835737772481"/>
<line stroke="green" x1="374.99999999999983" x2="862.5000000000002" y1="153.58983848622464" y2="435.0480947161667"/>
<line stroke="orange" x1="374.99999999999983" x2="137.49999999999991" y1="153.58983848622464" y2="564.951905283833"/>
<line stroke="black" x1="374.99999999999983" x2="262.4999999999998" y1="153.58983848622464" y2="218.5417437700574"/>
<line stroke="red" x1="374.99999999999983" x2="375" y1="153.58983848622464" y2="846.4101615137754"/>
<line stroke="blue" x1="374.99999999999983" x2="737.5" y1="153.58983848622464" y2="781.4582562299427"/>
<line stroke="red" x1="387.49999999999983" x2="387.5" y1="153.58983848622464" y2="846.4101615137754"/>
<line stroke="blue" x1="387.49999999999983" x2="743.75" y1="153.58983848622464" y2="770.6329386826371"/>
<line stroke="green" x1="399.99999999999983" x2="850.0000000000001" y1="153.58983848622464" y2="413.39745962155575"/>
<line stroke="orange" x1="399.99999999999983" x2="149.99999999999991" y1="153.58983848622464" y2="586.602540378444"/>
<line stroke="black" x1="399.99999999999983" x2="249.9999999999998" y1="153.58983848622464" y2="240.19237886466834"/>
<line stroke="red" x1="399.99999999999983" x2="400" y1="153.58983848622464" y2="846.4101615137754"/>
<line stroke="blue" x1="399.99999999999983" x2="750" y1="153.58983848622464" y2="759.8076211353316"/>
<line stroke="red" x1="412.49999999999983" x2="412.5" y1="153.58983848622464" y2="846.4101615137754"/>
<line stroke="blue" x1="412.49999999999983" x2="756.25" y1="153.58983848622464" y2="748.9823035880261"/>
<line stroke="green" x1="424.99999999999983" x2="837.5000000000001" y1="153.58983848622464" y2="391.7468245269448"/>
<line stroke="orange" x1="424.99999999999983" x2="162.49999999999994" y1="153.58983848622464" y2="608.253175473055"/>
<line stroke="black" x1="424.99999999999983" x2="237.49999999999983" y1="153.58983848622464" y2="261.84301395927935"/>
<line stroke="red" x1="424.99999999999983" x2="425" y1="153.58983848622464" y2="846.4101615137754"/>
<line stroke="blue" x1="424.99999999999983" x2="762.5" y1="153.58983848622464" y2="738.1569860407207"/>
<line stroke="red" x1="437.49999999999983" x2="437.5" y1="153.58983848622464" y2="846.4101615137754"/>
<line stroke="blue" x1="437.49999999999983" x2="768.75" y1="153.58983848622464" y2="727.3316684934151"/>
<line stroke="green" x1="449.99999999999983" x2="825.0000000000001" y1="153.58983848622464" y2="370.09618943233386"/>
<line stroke="orange" x1="449.99999999999983" x2="174.99999999999994" y1="153.58983848622464" y2="629.9038105676659"/>
<line stroke="black" x1="449.99999999999983" x2="224.99999999999983" y1="153.58983848622464" y2="283.4936490538903"/>
<line stroke="red" x1="449.99999999999983" x2="450" y1="153.58983848622464" y2="846.4101615137754"/>
<line stroke="blue" x1="449.99999999999983" x2="775" y1="153.58983848622464" y2="716.5063509461097"/>
<line stroke="red" x1="462.49999999999983" x2="462.5" y1="153.58983848622464" y2="846.4101615137754"/>
<line stroke="blue" x1="462.49999999999983" x2="781.25" y1="153.58983848622464" y2="705.6810333988042"/>
<line stroke="green" x1="474.99999999999983" x2="812.5" y1="153.5898384862246" y2="348.4455543377229"/>
<line stroke="orange" x1="474.99999999999983" x2="187.49999999999994" y1="153.5898384862246" y2="651.5544456622769"/>
<line stroke="black" x1="474.99999999999983" x2="212.49999999999983" y1="153.5898384862246" y2="305.14428414850124"/>
<line stroke="red" x1="474.99999999999983" x2="475" y1="153.5898384862246" y2="846.4101615137754"/>
<line stroke="blue" x1="474.99999999999983" x2="787.5" y1="153.5898384862246" y2="694.8557158514986"/>
<line stroke="red" x1="487.49999999999983" x2="487.5" y1="153.5898384862246" y2="846.4101615137754"/>
<line stroke="blue" x1="487.49999999999983" x2="793.75" y1="153.5898384862246" y2="684.0303983041932"/>
<line stroke="green" x1="499.99999999999983" x2="800" y1="153.5898384862246" y2="326.79491924311196"/>
<line stroke="orange" x1="499.99999999999983" x2="199.99999999999997" y1="153.5898384862246" y2="673.2050807568878"/>
<line stroke="black" x1="499.99999999999983" x2="199.9999999999999" y1="153.5898384862246" y2="326.79491924311225"/>
<line stroke="red" x1="499.99999999999983" x2="500" y1="153.5898384862246" y2="846.4101615137754"/>
<line stroke="blue" x1="499.99999999999983" x2="800" y1="153.5898384862246" y2="673.2050807568878"/>
<line stroke="red" x1="512.4999999999998" x2="512.5" y1="153.5898384862246" y2="846.4101615137754"/>
<line stroke="blue" x1="512.4999999999998" x2="806.25" y1="153.5898384862246" y2="662.3797632095823"/>
<line stroke="green" x1="524.9999999999998" x2="787.5" y1="153.5898384862246" y2="305.144284148501"/>
<line stroke="orange" x1="524.9999999999998" x2="212.5" y1="153.5898384862246" y2="694.8557158514988"/>
<line stroke="black" x1="524.9999999999998" x2="187.4999999999999" y1="153.5898384862246" y2="348.44555433772325"/>
<line stroke="red" x1="524.9999999999998" x2="525" y1="153.5898384862246" y2="846.4101615137754"/>
<line stroke="blue" x1="524.9999999999998" x2="812.5" y1="153.5898384862246" y2="651.5544456622767"/>
<line stroke="red" x1="537.4999999999998" x2="537.5" y1="153.5898384862246" y2="846.4101615137754"/>
<line stroke="blue" x1="537.4999999999998" x2="818.75" y1="153.5898384862246" y2="640.7291281149713"/>
<line stroke="green" x1="549.9999999999998" x2="775" y1="153.5898384862246" y2="283.49364905389007"/>
<line stroke="orange" x1="549.9999999999998" x2="225" y1="153.5898384862246" y2="716.5063509461097"/>
<line stroke="black" x1="549.9999999999998" x2="174.9999999999999" y1="153.5898384862246" y2="370.0961894323342"/>
<line stroke="red" x1="549.9999999999998" x2="550" y1="153.5898384862246" y2="846.4101615137754"/>
<line stroke="blue" x1="549.9999999999998" x2="825" y1="153.5898384862246" y2="629.9038105676658"/>
<line stroke="red" x1="562.4999999999998" x2="562.5" y1="153.5898384862246" y2="846.4101615137754"/>
<line stroke="blue" x1="562.4999999999998" x2="831.25" y1="153.5898384862246" y2="619.0784930203604"/>
<line stroke="green" x1="574.9999999999998" x2="762.4999999999999" y1="153.5898384862246" y2="261.8430139592791"/>
<line stroke="orange" x1="574.9999999999998" x2="237.5" y1="153.5898384862246" y2="738.1569860407208"/>
<line stroke="black" x1="574.9999999999998" x2="162.49999999999991" y1="153.5898384862246" y2="391.74682452694515"/>
<line stroke="red" x1="574.9999999999998" x2="575" y1="153.5898384862246" y2="846.4101615137754"/>
<line stroke="blue" x1="574.9999999999998" x2="837.5" y1="153.5898384862246" y2="608.2531754730549"/>
<line stroke="red" x1="587.4999999999998" x2="587.5" y1="153.5898384862246" y2="846.4101615137754"/>
<line stroke="blue" x1="587.4999999999998" x2="843.75" y1="153.5898384862246" y2="597.4278579257493"/>
<line stroke="green" x1="599.9999999999998" x2="749.9999999999999" y1="153.58983848622458" y2="240.19237886466817"/>
<line stroke="orange" x1="599.9999999999998" x2="250" y1="153.58983848622458" y2="759.8076211353317"/>
<line stroke="black" x1="599.9999999999998" x2="149.99999999999994" y1="153.58983848622458" y2="413.39745962155615"/>
<line stroke="red" x1="599.9999999999998" x2="600" y1="153.58983848622458" y2="846.4101615137754"/>
<line stroke="blue" x1="599.9999999999998" x2="850" y1="153.58983848622458" y2="586.6025403784439"/>
<line stroke="red" x1="612.4999999999998" x2="612.5" y1="153.58983848622458" y2="846.4101615137754"/>
<line stroke="blue" x1="612.4999999999998" x2="856.25" y1="153.58983848622458" y2="575.7772228311384"/>
<line stroke="green" x1="624.9999999999998" x2="737.4999999999999" y1="153.58983848622458" y2="218.54174377005722"/>
<line stroke="orange" x1="624.9999999999998" x2="262.5" y1="153.58983848622458" y2="781.4582562299427"/>
<line stroke="black" x1="624.9999999999998" x2="137.49999999999994" y1="153.58983848622458" y2="435.04809471616716"/>
<line stroke="red" x1="624.9999999999998" x2="625" y1="153.58983848622458" y2="846.4101615137754"/>
<line stroke="blue" x1="624.9999999999998" x2="862.5" y1="153.58983848622458" y2="564.951905283833"/>
<line stroke="red" x1="637.4999999999998" x2="637.5" y1="153.58983848622458" y2="846.4101615137754"/>
<line stroke="blue" x1="637.4999999999998" x2="868.75" y1="153.58983848622458" y2="554.1265877365274"/>
<line stroke="green" x1="649.9999999999998" x2="724.9999999999999" y1="153.58983848622458" y2="196.89110867544628"/>
<line stroke="orange" x1="649.9999999999998" x2="275.00000000000006" y1="153.58983848622458" y2="803.1088913245536"/>
<line stroke="black" x1="649.9999999999998" x2="124.99999999999997" y1="153.58983848622458" y2="456.6987298107781"/>
<line stroke="red" x1="649.9999999999998" x2="650" y1="153.58983848622458" y2="846.4101615137754"/>
<line stroke="blue" x1="649.9999999999998" x2="875" y1="153.58983848622458" y2="543.3012701892219"/>
<line stroke="red" x1="662.4999999999998" x2="662.5" y1="153.58983848622458" y2="846.4101615137754"/>
<line stroke="blue" x1="662.4999999999998" x2="881.25" y1="153.58983848622458" y2="532.4759526419165"/>
<line stroke="green" x1="674.9999999999998" x2="712.4999999999998" y1="153.58983848622458" y2="175.24047358083533"/>
<line stroke="orange" x1="674.9999999999998" x2="287.50000000000006" y1="153.58983848622458" y2="824.7595264191646"/>
<line stroke="black" x1="674.9999999999998" x2="112.49999999999999" y1="153.58983848622458" y2="478.34936490538905"/>
<line stroke="red" x1="674.9999999999998" x2="675" y1="153.58983848622458" y2="846.4101615137754"/>
<line stroke="blue" x1="674.9999999999998" x2="887.5" y1="153.58983848622458" y2="521.650635094611"/>
<line stroke="red" x1="687.4999999999998" x2="687.5" y1="153.58983848622458" y2="846.4101615137754"/>
<line stroke="blue" x1="687.4999999999998" x2="893.75" y1="153.58983848622458" y2="510.8253175473055"/>
<line stroke="green" x1="699.9999999999998" x2="700" y1="153.58983848622438" y2="846.4101615137755"/>
<line stroke="orange" x1="699.9999999999998" x2="299.9999999999998" y1="153.58983848622438" y2="153.58983848622444"/>
<line stroke="black" x1="699.9999999999998" x2="699.9999999999998" y1="153.58983848622438" y2="153.58983848622458"/>
<line stroke="red" x1="699.9999999999998" x2="99.99999999999989" y1="153.58983848622438" y2="500.00000000000017"/>
<line stroke="blue" x1="699.9999999999998" x2="300" y1="153.58983848622438" y2="846.4101615137754"/>
<line stroke="red" x1="706.2499999999998" x2="106.24999999999989" y1="164.41515603352985" y2="510.82531754730564"/>
<line stroke="blue" x1="706.2499999999998" x2="312.5" y1="164.41515603352985" y2="846.4101615137754"/>
<line stroke="green" x1="712.4999999999998" x2="712.5" y1="175.24047358083533" y2="824.7595264191646"/>
<line stroke="orange" x1="712.4999999999998" x2="287.4999999999998" y1="175.24047358083533" y2="175.24047358083544"/>
<line stroke="black" x1="712.4999999999998" x2="674.9999999999998" y1="175.24047358083533" y2="153.58983848622458"/>
<line stroke="red" x1="712.4999999999998" x2="112.49999999999989" y1="175.24047358083533" y2="521.6506350946111"/>
<line stroke="blue" x1="712.4999999999998" x2="325" y1="175.24047358083533" y2="846.4101615137754"/>
<line stroke="red" x1="718.7499999999998" x2="118.74999999999989" y1="186.0657911281408" y2="532.4759526419166"/>
<line stroke="blue" x1="718.7499999999998" x2="337.5" y1="186.0657911281408" y2="846.4101615137754"/>
<line stroke="green" x1="724.9999999999999" x2="725" y1="196.89110867544628" y2="803.1088913245535"/>
<line stroke="orange" x1="724.9999999999999" x2="274.9999999999998" y1="196.89110867544628" y2="196.8911086754464"/>
<line stroke="black" x1="724.9999999999999" x2="649.9999999999998" y1="196.89110867544628" y2="153.58983848622458"/>
<line stroke="red" x1="724.9999999999999" x2="124.99999999999991" y1="196.89110867544628" y2="543.3012701892221"/>
<line stroke="blue" x1="724.9999999999999" x2="350" y1="196.89110867544628" y2="846.4101615137754"/>
<line stroke="red" x1="731.2499999999999" x2="131.24999999999991" y1="207.71642622275175" y2="554.1265877365275"/>
<line stroke="blue" x1="731.2499999999999" x2="362.5" y1="207.71642622275175" y2="846.4101615137754"/>
<line stroke="green" x1="737.4999999999999" x2="737.5" y1="218.54174377005722" y2="781.4582562299427"/>
<line stroke="orange" x1="737.4999999999999" x2="262.4999999999998" y1="218.54174377005722" y2="218.5417437700574"/>
<line stroke="black" x1="737.4999999999999" x2="624.9999999999998" y1="218.54174377005722" y2="153.58983848622458"/>
<line stroke="red" x1="737.4999999999999" x2="137.49999999999991" y1="218.54174377005722" y2="564.951905283833"/>
<line stroke="blue" x1="737.4999999999999" x2="375" y1="218.54174377005722" y2="846.4101615137754"/>
<line stroke="red" x1="743.7499999999999" x2="143.74999999999991" y1="229.3670613173627" y2="575.7772228311385"/>
<line stroke="blue" x1="743.7499999999999" x2="387.5" y1="229.3670613173627" y2="846.4101615137754"/>
<line stroke="green" x1="749.9999999999999" x2="750" y1="240.19237886466817" y2="759.8076211353316"/>
<line stroke="orange" x1="749.9999999999999" x2="249.9999999999998" y1="240.19237886466817" y2="240.19237886466834"/>
<line stroke="black" x1="749.9999999999999" x2="599.9999999999998" y1="240.19237886466817" y2="153.58983848622458"/>
<line stroke="red" x1="749.9999999999999" x2="149.99999999999991" y1="240.19237886466817" y2="586.602540378444"/>
<line stroke="blue" x1="749.9999999999999" x2="400" y1="240.19237886466817" y2="846.4101615137754"/>
<line stroke="red" x1="756.2499999999999" x2="156.24999999999994" y1="251.01769641197365" y2="597.4278579257494"/>
<line stroke="blue" x1="756.2499999999999" x2="412.5" y1="251.01769641197365" y2="846.4101615137754"/>
<line stroke="green" x1="762.4999999999999" x2="762.5" y1="261.8430139592791" y2="738.1569860407207"/>
<line stroke="orange" x1="762.4999999999999" x2="237.49999999999983" y1="261.8430139592791" y2="261.84301395927935"/>
<line stroke="black" x1="762.4999999999999" x2="574.9999999999998" y1="261.8430139592791" y2="153.5898384862246"/>
<line stroke="red" x1="762.4999999999999" x2="162.49999999999994" y1="261.8430139592791" y2="608.253175473055"/>
<line stroke="blue" x1="762.4999999999999" x2="425" y1="261.8430139592791" y2="846.4101615137754"/>
<line stroke="red" x1="768.75" x2="168.74999999999994" y1="272.6683315065846" y2="619.0784930203604"/>
<line stroke="blue" x1="768.75" x2="437.5" y1="272.6683315065846" y2="846.4101615137754"/>
<line stroke="green" x1="775" x2="775" y1="283.49364905389007" y2="716.5063509461097"/>
<line stroke="orange" x1="775" x2="224.99999999999983" y1="283.49364905389007" y2="283.4936490538903"/>
<line stroke="black" x1="775" x2="549.9999999999998" y1="283.49364905389007" y2="153.5898384862246"/>
<line stroke="red" x1="775" x2="174.99999999999994" y1="283.49364905389007" y2="629.9038105676659"/>
<line stroke="blue" x1="775" x2="450" y1="283.49364905389007" y2="846.4101615137754"/>
<line stroke="red" x1="781.25" x2="181.24999999999994" y1="294.31896660119554" y2="640.7291281149714"/>
<line stroke="blue" x1="781.25" x2="462.5" y1="294.31896660119554" y2="846.4101615137754"/>
<line stroke="green" x1="787.5" x2="787.5" y1="305.144284148501" y2="694.8557158514986"/>
<line stroke="orange" x1="787.5" x2="212.49999999999983" y1="305.144284148501" y2="305.14428414850124"/>
<line stroke="black" x1="787.5" x2="524.9999999999998" y1="305.144284148501" y2="153.5898384862246"/>
<line stroke="red" x1="787.5" x2="187.49999999999994" y1="305.144284148501" y2="651.5544456622769"/>
<line stroke="blue" x1="787.5" x2="475" y1="305.144284148501" y2="846.4101615137754"/>
<line stroke="red" x1="793.75" x2="193.74999999999994" y1="315.9696016958065" y2="662.3797632095824"/>
<line stroke="blue" x1="793.75" x2="487.5" y1="315.9696016958065" y2="846.4101615137754"/>
<line stroke="green" x1="800" x2="800" y1="326.79491924311196" y2="673.2050807568878"/>
<line stroke="orange" x1="800" x2="199.9999999999999" y1="326.79491924311196" y2="326.79491924311225"/>
<line stroke="black" x1="800" x2="499.99999999999983" y1="326.79491924311196" y2="153.5898384862246"/>
<line stroke="red" x1="800" x2="199.99999999999997" y1="326.79491924311196" y2="673.2050807568878"/>
<line stroke="blue" x1="800" x2="500" y1="326.79491924311196" y2="846.4101615137754"/>
<line stroke="red" x1="806.25" x2="206.24999999999997" y1="337.62023679041744" y2="684.0303983041933"/>
<line stroke="blue" x1="806.25" x2="512.5" y1="337.62023679041744" y2="846.4101615137754"/>
<line stroke="green" x1="812.5" x2="812.5" y1="348.4455543377229" y2="651.5544456622767"/>
<line stroke="orange" x1="812.5" x2="187.4999999999999" y1="348.4455543377229" y2="348.44555433772325"/>
<line stroke="black" x1="812.5" x2="474.99999999999983" y1="348.4455543377229" y2="153.5898384862246"/>
<line stroke="red" x1="812.5" x2="212.5" y1="348.4455543377229" y2="694.8557158514988"/>
<line stroke="blue" x1="812.5" x2="525" y1="348.4455543377229" y2="846.4101615137754"/>
<line stroke="red" x1="818.75" x2="218.75" y1="359.2708718850284" y2="705.6810333988043"/>
<line stroke="blue" x1="818.75" x2="537.5" y1="359.2708718850284" y2="846.4101615137754"/>
<line stroke="green" x1="825.0000000000001" x2="825" y1="370.09618943233386" y2="629.9038105676658"/>
<line stroke="orange" x1="825.0000000000001" x2="174.9999999999999" y1="370.09618943233386" y2="370.0961894323342"/>
<line stroke="black" x1="825.0000000000001" x2="449.99999999999983" y1="370.09618943233386" y2="153.58983848622464"/>
<line stroke="red" x1="825.0000000000001" x2="225" y1="370.09618943233386" y2="716.5063509461097"/>
<line stroke="blue" x1="825.0000000000001" x2="550" y1="370.09618943233386" y2="846.4101615137754"/>
<line stroke="red" x1="831.2500000000001" x2="231.25" y1="380.92150697963933" y2="727.3316684934152"/>
<line stroke="blue" x1="831.2500000000001" x2="562.5" y1="380.92150697963933" y2="846.4101615137754"/>
<line stroke="green" x1="837.5000000000001" x2="837.5" y1="391.7468245269448" y2="608.2531754730549"/>
<line stroke="orange" x1="837.5000000000001" x2="162.49999999999991" y1="391.7468245269448" y2="391.74682452694515"/>
<line stroke="black" x1="837.5000000000001" x2="424.99999999999983" y1="391.7468245269448" y2="153.58983848622464"/>
<line stroke="red" x1="837.5000000000001" x2="237.5" y1="391.7468245269448" y2="738.1569860407208"/>
<line stroke="blue" x1="837.5000000000001" x2="575" y1="391.7468245269448" y2="846.4101615137754"/>
<line stroke="red" x1="843.7500000000001" x2="243.75" y1="402.5721420742503" y2="748.9823035880262"/>
<line stroke="blue" x1="843.7500000000001" x2="587.5" y1="402.5721420742503" y2="846.4101615137754"/>
<line stroke="green" x1="850.0000000000001" x2="850" y1="413.39745962155575" y2="586.6025403784439"/>
<line stroke="orange" x1="850.0000000000001" x2="149.99999999999994" y1="413.39745962155575" y2="413.39745962155615"/>
<line stroke="black" x1="850.0000000000001" x2="399.99999999999983" y1="413.39745962155575" y2="153.58983848622464"/>
<line stroke="red" x1="850.0000000000001" x2="250" y1="413.39745962155575" y2="759.8076211353317"/>
<line stroke="blue" x1="850.0000000000001" x2="600" y1="413.39745962155575" y2="846.4101615137754"/>
<line stroke="red" x1="856.2500000000001" x2="256.25" y1="424.2227771688612" y2="770.6329386826371"/>
<line stroke="blue" x1="856.2500000000001" x2="612.5" y1="424.2227771688612" y2="846.4101615137754"/>
<line stroke="green" x1="862.5000000000002" x2="862.5" y1="435.0480947161667" y2="564.951905283833"/>
<line stroke="orange" x1="862.5000000000002" x2="137.49999999999994" y1="435.0480947161667" y2="435.04809471616716"/>
<line stroke="black" x1="862.5000000000002" x2="374.99999999999983" y1="435.0480947161667" y2="153.58983848622464"/>
<line stroke="red" x1="862.5000000000002" x2="262.5" y1="435.0480947161667" y2="781.4582562299427"/>
<line stroke="blue" x1="862.5000000000002" x2="625" y1="435.0480947161667" y2="846.4101615137754"/>
<line stroke="red" x1="868.7500000000002" x2="268.75" y1="445.8734122634722" y2="792.2835737772481"/>
<line stroke="blue" x1="868.7500000000002" x2="637.5" y1="445.8734122634722" y2="846.4101615137754"/>
<line stroke="green" x1="875.0000000000002" x2="875" y1="456.69872981077765" y2="543.3012701892219"/>
<line stroke="orange" x1="875.0000000000002" x2="124.99999999999997" y1="456.69872981077765" y2="456.6987298107781"/>
<line stroke="black" x1="875.0000000000002" x2="349.99999999999983" y1="456.69872981077765" y2="153.58983848622466"/>
<line stroke="red" x1="875.0000000000002" x2="275.00000000000006" y1="456.69872981077765" y2="803.1088913245536"/>
<line stroke="blue" x1="875.0000000000002" x2="650" y1="456.69872981077765" y2="846.4101615137754"/>
<line stroke="red" x1="881.2500000000002" x2="281.25000000000006" y1="467.5240473580831" y2="813.934208871859"/>
<line stroke="blue" x1="881.2500000000002" x2="662.5" y1="467.5240473580831" y2="846.4101615137754"/>
<line stroke="green" x1="887.5000000000002" x2="887.5" y1="478.3493649053886" y2="521.650635094611"/>
<line stroke="orange" x1="887.5000000000002" x2="112.49999999999999" y1="478.3493649053886" y2="478.34936490538905"/>
<line stroke="black" x1="887.5000000000002" x2="324.99999999999983" y1="478.3493649053886" y2="153.58983848622466"/>
<line stroke="red" x1="887.5000000000002" x2="287.50000000000006" y1="478.3493649053886" y2="824.7595264191646"/>
<line stroke="blue" x1="887.5000000000002" x2="675" y1="478.3493649053886" y2="846.4101615137754"/>
<line stroke="red" x1="893.7500000000002" x2="293.75000000000006" y1="489.17468245269407" y2="835.58484396647"/>
<line stroke="blue" x1="893.7500000000002" x2="687.5" y1="489.17468245269407" y2="846.4101615137754"/>
</svg>