<svg viewBox="0 0 1000 1000" xmlns="http://www.w3.org/2000/svg">
<path d="M600,500 L530.9017,595.10565 L419.0983,558.7785 L419.0983,441.22147 L530.9017,404.89435 L600,500 z" fill="none" stroke="red" stroke-width="1"/>
<path d="M711.8034,653.88416 L600,690.2113 L530.9017,595.10565 L600,500 L711.8034,536.32715 L711.8034,653.88416 z" fill="none" stroke="red" stroke-width="1"/>
<path d="M530.9017,712.6627 L419.0983,748.9898 L350,653.88416 L419.0983,558.7785 L530.9017,595.10565 L530.9017,712.6627 z" fill="none" stroke="red" stroke-width="1"/>
<path d="M419.0983,558.7785 L307.2949,595.10565 L238.1966,500 L307.2949,404.89435 L419.0983,441.22147 L419.0983,558.7785 z" fill="none" stroke="red" stroke-width="1"/>
<path d="M530.9017,404.89435 L419.0983,441.22147 L350,346.1158 L419.0983,251.01018 L530.9017,287.3373 L530.9017,404.89435 z" fill="none" stroke="red" stroke-width="1"/>
<path d="M711.8034,463.67288 L600,500 L530.9017,404.89435 L600,309.7887 L711.8034,346.1158 L711.8034,463.67288 z" fill="none" stroke="red" stroke-width="1"/>
</svg>