<svg viewBox="0 0 1000 1000" xmlns="http://www.w3.org/2000/svg">
<path d="M692.7049,595.10565 L580.9015,558.7785 L580.9015,441.22147 L692.7049,404.89435 L761.8032,500 L692.7049,595.10565 z" fill="none" stroke="red" stroke-width="1"/>
<path d="M873.60645,653.88403 L761.80304,690.2112 L692.7047,595.1055 L761.80304,499.99988 L873.60645,536.327 L873.60645,653.88403 z" fill="none" stroke="purple" stroke-width="1"/>
<path d="M873.60645,463.673 L761.80304,500.00012 L692.7047,404.89447 L761.80304,309.78882 L873.60645,346.11594 L873.60645,463.673 z" fill="none" stroke="blue" stroke-width="1"/>
<path d="M692.7049,595.10565 A117.6,117.6,0,0,0,580.9015,441.22147 M580.9015,558.7785 A117.6,117.6,0,0,0,692.7049,404.89435 M580.9015,441.22147 A117.6,117.6,0,0,0,761.8032,500 M692.7049,404.89435 A117.6,117.6,0,0,0,692.7049,595.10565 M761.8032,500 A117.6,117.6,0,0,0,580.9015,558.7785" fill="none" stroke="green" stroke-width="1"/>
<path d="M873.60645,653.88403 A117.6,117.6,0,0,0,692.7047,595.1055 M761.80304,690.2112 A117.6,117.6,0,0,0,761.80304,499.99988 M692.7047,595.1055 A117.6,117.6,0,0,0,873.60645,536.327 M761.80304,499.99988 A117.6,117.6,0,0,0,873.60645,653.88403 M873.60645,536.327 A117.6,117.6,0,0,0,761.80304,690.2112" fill="none" stroke="green" stroke-width="1"/>
<path d="M873.60645,463.673 A117.6,117.6,0,0,0,692.7047,404.89447 M761.80304,500.00012 A117.6,117.6,0,0,0,761.80304,309.78882 M692.7047,404.89447 A117.6,117.6,0,0,0,873.60645,346.11594 M761.80304,309.78882 A117.6,117.6,0,0,0,873.60645,463.673 M873.60645,346.11594 A117.6,117.6,0,0,0,761.80304,500.00012" fill="none" stroke="green" stroke-width="1"/>
<path d="M469.09824,712.66254 L469.09824,595.10547 L580.9016,558.7783 L649.99994,653.884 L580.9016,748.9896 L469.09824,712.66254 z" fill="none" stroke="red" stroke-width="1"/>
<path d="M469.0983,902.87366 L400,807.768 L469.0983,712.66235 L580.9017,748.98944 L580.9017,866.5465 L469.0983,902.87366 z" fill="none" stroke="purple" stroke-width="1"/>
<path d="M649.99976,844.09515 L580.9015,748.9895 L649.99976,653.88385 L761.80316,690.211 L761.80316,807.76807 L649.99976,844.09515 z" fill="none" stroke="blue" stroke-width="1"/>
<path d="M469.09824,712.66254 A117.6,117.6,0,0,0,580.9016,558.7783 M469.09824,595.10547 A117.6,117.6,0,0,0,649.99994,653.884 M580.9016,558.7783 A117.6,117.6,0,0,0,580.9016,748.9896 M649.99994,653.884 A117.6,117.6,0,0,0,469.09824,712.66254 M580.9016,748.9896 A117.6,117.6,0,0,0,469.09824,595.10547" fill="none" stroke="green" stroke-width="1"/>
<path d="M469.0983,902.87366 A117.6,117.6,0,0,0,469.0983,712.66235 M400,807.768 A117.6,117.6,0,0,0,580.9017,748.98944 M469.0983,712.66235 A117.6,117.6,0,0,0,580.9017,866.5465 M580.9017,748.98944 A117.6,117.6,0,0,0,469.0983,902.87366 M580.9017,866.5465 A117.6,117.6,0,0,0,400,807.768" fill="none" stroke="green" stroke-width="1"/>
<path d="M649.99976,844.09515 A117.6,117.6,0,0,0,649.99976,653.88385 M580.9015,748.9895 A117.6,117.6,0,0,0,761.80316,690.211 M649.99976,653.88385 A117.6,117.6,0,0,0,761.80316,807.76807 M761.80316,690.211 A117.6,117.6,0,0,0,649.99976,844.09515 M761.80316,807.76807 A117.6,117.6,0,0,0,580.9015,748.9895" fill="none" stroke="green" stroke-width="1"/>
<path d="M288.19675,536.327 L400.00015,499.99988 L469.09845,595.1055 L400.00015,690.2112 L288.19675,653.88403 L288.19675,536.327 z" fill="none" stroke="red" stroke-width="1"/>
<path d="M107.295265,595.1055 L176.39355,499.99988 L288.19696,536.327 L288.19696,653.88403 L176.39355,690.2112 L107.295265,595.1055 z" fill="none" stroke="purple" stroke-width="1"/>
<path d="M219.09853,748.9895 L288.19684,653.88385 L400.0002,690.211 L400.0002,807.76807 L288.19684,844.09515 L219.09853,748.9895 z" fill="none" stroke="blue" stroke-width="1"/>
<path d="M288.19675,536.327 A117.6,117.6,0,0,0,469.09845,595.1055 M400.00015,499.99988 A117.6,117.6,0,0,0,400.00015,690.2112 M469.09845,595.1055 A117.6,117.6,0,0,0,288.19675,653.88403 M400.00015,690.2112 A117.6,117.6,0,0,0,288.19675,536.327 M288.19675,653.88403 A117.6,117.6,0,0,0,400.00015,499.99988" fill="none" stroke="green" stroke-width="1"/>
<path d="M107.295265,595.1055 A117.6,117.6,0,0,0,288.19696,536.327 M176.39355,499.99988 A117.6,117.6,0,0,0,288.19696,653.88403 M288.19696,536.327 A117.6,117.6,0,0,0,176.39355,690.2112 M288.19696,653.88403 A117.6,117.6,0,0,0,107.295265,595.1055 M176.39355,690.2112 A117.6,117.6,0,0,0,176.39355,499.99988" fill="none" stroke="green" stroke-width="1"/>
<path d="M219.09853,748.9895 A117.6,117.6,0,0,0,400.0002,690.211 M288.19684,653.88385 A117.6,117.6,0,0,0,400.0002,807.76807 M400.0002,690.211 A117.6,117.6,0,0,0,288.19684,844.09515 M400.0002,807.76807 A117.6,117.6,0,0,0,219.09853,748.9895 M288.19684,844.09515 A117.6,117.6,0,0,0,288.19684,653.88385" fill="none" stroke="green" stroke-width="1"/>
<path d="M400.00015,309.78882 L469.09845,404.89447 L400.00015,500.00012 L288.19675,463.673 L288.19675,346.11594 L400.00015,309.78882 z" fill="none" stroke="red" stroke-width="1"/>
<path d="M288.19684,155.90483 L400.0002,192.23195 L400.0002,309.789 L288.19684,346.11612 L219.09853,251.01048 L288.19684,155.90483 z" fill="none" stroke="purple" stroke-width="1"/>
<path d="M176.39355,309.78882 L288.19696,346.11594 L288.19696,463.673 L176.39355,500.00012 L107.295265,404.89447 L176.39355,309.78882 z" fill="none" stroke="blue" stroke-width="1"/>
<path d="M400.00015,309.78882 A117.6,117.6,0,0,0,400.00015,500.00012 M469.09845,404.89447 A117.6,117.6,0,0,0,288.19675,463.673 M400.00015,500.00012 A117.6,117.6,0,0,0,288.19675,346.11594 M288.19675,463.673 A117.6,117.6,0,0,0,400.00015,309.78882 M288.19675,346.11594 A117.6,117.6,0,0,0,469.09845,404.89447" fill="none" stroke="green" stroke-width="1"/>
<path d="M288.19684,155.90483 A117.6,117.6,0,0,0,400.0002,309.789 M400.0002,192.23195 A117.6,117.6,0,0,0,288.19684,346.11612 M400.0002,309.789 A117.6,117.6,0,0,0,219.09853,251.01048 M288.19684,346.11612 A117.6,117.6,0,0,0,288.19684,155.90483 M219.09853,251.01048 A117.6,117.6,0,0,0,400.0002,192.23195" fill="none" stroke="green" stroke-width="1"/>
<path d="M176.39355,309.78882 A117.6,117.6,0,0,0,288.19696,463.673 M288.19696,346.11594 A117.6,117.6,0,0,0,176.39355,500.00012 M288.19696,463.673 A117.6,117.6,0,0,0,107.295265,404.89447 M176.39355,500.00012 A117.6,117.6,0,0,0,176.39355,309.78882 M107.295265,404.89447 A117.6,117.6,0,0,0,288.19696,346.11594" fill="none" stroke="green" stroke-width="1"/>
<path d="M649.99994,346.116 L580.9016,441.22165 L469.09824,404.89453 L469.09824,287.3375 L580.9016,251.01036 L649.99994,346.116 z" fill="none" stroke="red" stroke-width="1"/>
<path d="M761.80316,192.23195 L761.80316,309.789 L649.99976,346.11612 L580.9015,251.01048 L649.99976,155.90483 L761.80316,192.23195 z" fill="none" stroke="purple" stroke-width="1"/>
<path d="M580.9017,133.4535 L580.9017,251.01054 L469.0983,287.33768 L400,192.23203 L469.0983,97.12637 L580.9017,133.4535 z" fill="none" stroke="blue" stroke-width="1"/>
<path d="M649.99994,346.116 A117.6,117.6,0,0,0,469.09824,404.89453 M580.9016,441.22165 A117.6,117.6,0,0,0,469.09824,287.3375 M469.09824,404.89453 A117.6,117.6,0,0,0,580.9016,251.01036 M469.09824,287.3375 A117.6,117.6,0,0,0,649.99994,346.116 M580.9016,251.01036 A117.6,117.6,0,0,0,580.9016,441.22165" fill="none" stroke="green" stroke-width="1"/>
<path d="M761.80316,192.23195 A117.6,117.6,0,0,0,649.99976,346.11612 M761.80316,309.789 A117.6,117.6,0,0,0,580.9015,251.01048 M649.99976,346.11612 A117.6,117.6,0,0,0,649.99976,155.90483 M580.9015,251.01048 A117.6,117.6,0,0,0,761.80316,192.23195 M649.99976,155.90483 A117.6,117.6,0,0,0,761.80316,309.789" fill="none" stroke="green" stroke-width="1"/>
<path d="M580.9017,133.4535 A117.6,117.6,0,0,0,469.0983,287.33768 M580.9017,251.01054 A117.6,117.6,0,0,0,400,192.23203 M469.0983,287.33768 A117.6,117.6,0,0,0,469.0983,97.12637 M400,192.23203 A117.6,117.6,0,0,0,580.9017,133.4535 M469.0983,97.12637 A117.6,117.6,0,0,0,580.9017,251.01054" fill="none" stroke="green" stroke-width="1"/>
</svg>