<svg viewBox="0 0 1000 1000" xmlns="http://www.w3.org/2000/svg">
<path d="M782.8427,782.8427 L396.47238,886.3703 L113.62967,603.5276 L217.15729,217.15729 L603.5276,113.62967 L886.3703,396.47238 L782.8427,782.8427 z" fill="none" stroke="green" stroke-width="1"/>
<line stroke="blue" x1="782.842712474619" x2="217.15728752538092" y1="782.842712474619" y2="217.15728752538104"/>
<line stroke="blue" x1="686.2501298457122" x2="191.27538301512885" y1="808.7246169848711" y2="313.7498701542879"/>
<line stroke="blue" x1="589.6575472168054" x2="165.3934785048768" y1="834.6065214951232" y2="410.34245278319474"/>
<line stroke="blue" x1="493.06496458789854" x2="139.51157399462477" y1="860.4884260053752" y2="506.93503541210157"/>
<line stroke="blue" x1="396.4723819589917" x2="603.527618041008" y1="886.3703305156273" y2="113.62966948437264"/>
<line stroke="blue" x1="325.76170384033696" x2="506.9350354121013" y1="815.6596523969725" y2="139.51157399462474"/>
<line stroke="blue" x1="255.0510257216822" x2="410.3424527831945" y1="744.9489742783178" y2="165.39347850487684"/>
<line stroke="blue" x1="184.34034760302745" x2="313.7498701542877" y1="674.2382961596632" y2="191.27538301512894"/>
<line stroke="blue" x1="113.6296694843727" x2="886.3703305156273" y1="603.5276180410084" y2="396.4723819589914"/>
<line stroke="blue" x1="139.51157399462477" x2="815.6596523969724" y1="506.93503541210157" y2="325.7617038403367"/>
<line stroke="blue" x1="165.3934785048768" x2="744.9489742783177" y1="410.34245278319474" y2="255.051025721682"/>
<line stroke="blue" x1="191.27538301512885" x2="674.2382961596629" y1="313.7498701542879" y2="184.34034760302734"/>
<line stroke="blue" x1="217.15728752538092" x2="782.8427124746194" y1="217.15728752538104" y2="782.8427124746187"/>
<line stroke="blue" x1="313.7498701542877" x2="808.7246169848713" y1="191.27538301512894" y2="686.2501298457119"/>
<line stroke="blue" x1="410.3424527831945" x2="834.6065214951234" y1="165.39347850487684" y2="589.657547216805"/>
<line stroke="blue" x1="506.9350354121013" x2="860.4884260053753" y1="139.51157399462474" y2="493.0649645878982"/>
<line stroke="blue" x1="603.527618041008" x2="396.4723819589917" y1="113.62966948437264" y2="886.3703305156273"/>
<line stroke="blue" x1="674.2382961596629" x2="493.06496458789854" y1="184.34034760302734" y2="860.4884260053752"/>
<line stroke="blue" x1="744.9489742783177" x2="589.6575472168054" y1="255.051025721682" y2="834.6065214951232"/>
<line stroke="blue" x1="815.6596523969724" x2="686.2501298457122" y1="325.7617038403367" y2="808.7246169848711"/>
<line stroke="blue" x1="886.3703305156273" x2="113.6296694843727" y1="396.4723819589914" y2="603.5276180410084"/>
<line stroke="blue" x1="860.4884260053753" x2="184.34034760302745" y1="493.0649645878982" y2="674.2382961596632"/>
<line stroke="blue" x1="834.6065214951234" x2="255.0510257216822" y1="589.657547216805" y2="744.9489742783178"/>
<line stroke="blue" x1="808.7246169848713" x2="325.76170384033696" y1="686.2501298457119" y2="815.6596523969725"/>
</svg>