<svg viewBox="0 0 1000 1000" xmlns="http://www.w3.org/2000/svg">
<path d="M900,500 L300,846.41016 L300,153.58984 L900,500 z" fill="none" stroke="green" stroke-width="1"/>
<line stroke="blue" x1="900" x2="900" y1="500" y2="500"/>
<line stroke="blue" x1="900" x2="300.00000000000006" y1="500" y2="846.4101615137755"/>
<line stroke="blue" x1="900" x2="299.99999999999983" y1="500" y2="153.58983848622466"/>
<line stroke="blue" x1="900" x2="900" y1="500" y2="500"/>
<line stroke="blue" x1="900" x2="300.00000000000006" y1="500" y2="846.4101615137755"/>
<line stroke="blue" x1="900" x2="299.99999999999983" y1="500" y2="153.58983848622466"/>
<line stroke="blue" x1="900" x2="900" y1="500" y2="500"/>
<line stroke="blue" x1="900" x2="300.00000000000006" y1="500" y2="846.4101615137755"/>
<line stroke="blue" x1="900" x2="299.99999999999983" y1="500" y2="153.58983848622466"/>
<line stroke="blue" x1="900" x2="900" y1="500" y2="500"/>
<line stroke="blue" x1="900" x2="300.00000000000006" y1="500" y2="846.4101615137755"/>
<line stroke="blue" x1="900" x2="299.99999999999983" y1="500" y2="153.58983848622466"/>
<line stroke="blue" x1="900" x2="900" y1="500" y2="500"/>
<line stroke="blue" x1="900" x2="300.00000000000006" y1="500" y2="846.4101615137755"/>
<line stroke="blue" x1="900" x2="299.99999999999983" y1="500" y2="153.58983848622466"/>
<line stroke="blue" x1="900" x2="900" y1="500" y2="500"/>
<line stroke="blue" x1="912.5" x2="1087.5" y1="521.650635094611" y2="824.7595264191646"/>
<line stroke="blue" x1="912.5" x2="-74.99999999999994" y1="521.650635094611" y2="846.4101615137757"/>
<line stroke="blue" x1="912.5" x2="487.49999999999955" y1="521.650635094611" y2="-171.16968793293995"/>
<line stroke="blue" x1="912.5" x2="1087.5" y1="521.650635094611" y2="824.7595264191646"/>
<line stroke="blue" x1="912.5" x2="-74.99999999999994" y1="521.650635094611" y2="846.4101615137757"/>
<line stroke="blue" x1="912.5" x2="487.49999999999955" y1="521.650635094611" y2="-171.16968793293995"/>
<line stroke="blue" x1="912.5" x2="1087.5" y1="521.650635094611" y2="824.7595264191646"/>
<line stroke="blue" x1="912.5" x2="-74.99999999999994" y1="521.650635094611" y2="846.4101615137757"/>
<line stroke="blue" x1="912.5" x2="487.49999999999955" y1="521.650635094611" y2="-171.16968793293995"/>
<line stroke="blue" x1="912.5" x2="1087.5" y1="521.650635094611" y2="824.7595264191646"/>
<line stroke="blue" x1="912.5" x2="-74.99999999999994" y1="521.650635094611" y2="846.4101615137757"/>
<line stroke="blue" x1="912.5" x2="487.49999999999955" y1="521.650635094611" y2="-171.16968793293995"/>
<line stroke="blue" x1="912.5" x2="1087.5" y1="521.650635094611" y2="824.7595264191646"/>
<line stroke="blue" x1="912.5" x2="-74.99999999999994" y1="521.650635094611" y2="846.4101615137757"/>
<line stroke="blue" x1="912.5" x2="487.49999999999955" y1="521.650635094611" y2="-171.16968793293995"/>
<line stroke="blue" x1="912.5" x2="1087.5" y1="521.650635094611" y2="824.7595264191646"/>
<line stroke="blue" x1="925" x2="1075" y1="543.3012701892219" y2="803.1088913245535"/>
<line stroke="blue" x1="925" x2="-49.99999999999994" y1="543.3012701892219" y2="846.4101615137757"/>
<line stroke="blue" x1="925" x2="474.9999999999996" y1="543.3012701892219" y2="-149.519052838329"/>
<line stroke="blue" x1="925" x2="1075" y1="543.3012701892219" y2="803.1088913245535"/>
<line stroke="blue" x1="925" x2="-49.99999999999994" y1="543.3012701892219" y2="846.4101615137757"/>
<line stroke="blue" x1="925" x2="474.9999999999996" y1="543.3012701892219" y2="-149.519052838329"/>
<line stroke="blue" x1="925" x2="1075" y1="543.3012701892219" y2="803.1088913245535"/>
<line stroke="blue" x1="925" x2="-49.99999999999994" y1="543.3012701892219" y2="846.4101615137757"/>
<line stroke="blue" x1="925" x2="474.9999999999996" y1="543.3012701892219" y2="-149.519052838329"/>
<line stroke="blue" x1="925" x2="1075" y1="543.3012701892219" y2="803.1088913245535"/>
<line stroke="blue" x1="925" x2="-49.99999999999994" y1="543.3012701892219" y2="846.4101615137757"/>
<line stroke="blue" x1="925" x2="474.9999999999996" y1="543.3012701892219" y2="-149.519052838329"/>
<line stroke="blue" x1="925" x2="1075" y1="543.3012701892219" y2="803.1088913245535"/>
<line stroke="blue" x1="925" x2="-49.99999999999994" y1="543.3012701892219" y2="846.4101615137757"/>
<line stroke="blue" x1="925" x2="474.9999999999996" y1="543.3012701892219" y2="-149.519052838329"/>
<line stroke="blue" x1="925" x2="1075" y1="543.3012701892219" y2="803.1088913245535"/>
<line stroke="blue" x1="937.5" x2="1062.5" y1="564.951905283833" y2="781.4582562299427"/>
<line stroke="blue" x1="937.5" x2="-24.999999999999943" y1="564.951905283833" y2="846.4101615137757"/>
<line stroke="blue" x1="937.5" x2="462.4999999999996" y1="564.951905283833" y2="-127.868417743718"/>
<line stroke="blue" x1="937.5" x2="1062.5" y1="564.951905283833" y2="781.4582562299427"/>
<line stroke="blue" x1="937.5" x2="-24.999999999999943" y1="564.951905283833" y2="846.4101615137757"/>
<line stroke="blue" x1="937.5" x2="462.4999999999996" y1="564.951905283833" y2="-127.868417743718"/>
<line stroke="blue" x1="937.5" x2="1062.5" y1="564.951905283833" y2="781.4582562299427"/>
<line stroke="blue" x1="937.5" x2="-24.999999999999943" y1="564.951905283833" y2="846.4101615137757"/>
<line stroke="blue" x1="937.5" x2="462.4999999999996" y1="564.951905283833" y2="-127.868417743718"/>
<line stroke="blue" x1="937.5" x2="1062.5" y1="564.951905283833" y2="781.4582562299427"/>
<line stroke="blue" x1="937.5" x2="-24.999999999999943" y1="564.951905283833" y2="846.4101615137757"/>
<line stroke="blue" x1="937.5" x2="462.4999999999996" y1="564.951905283833" y2="-127.868417743718"/>
<line stroke="blue" x1="937.5" x2="1062.5" y1="564.951905283833" y2="781.4582562299427"/>
<line stroke="blue" x1="937.5" x2="-24.999999999999943" y1="564.951905283833" y2="846.4101615137757"/>
<line stroke="blue" x1="937.5" x2="462.4999999999996" y1="564.951905283833" y2="-127.868417743718"/>
<line stroke="blue" x1="937.5" x2="1062.5" y1="564.951905283833" y2="781.4582562299427"/>
<line stroke="blue" x1="950" x2="1050" y1="586.6025403784439" y2="759.8076211353316"/>
<line stroke="blue" x1="950" x2="0.00000000000005684341886080802" y1="586.6025403784439" y2="846.4101615137756"/>
<line stroke="blue" x1="950" x2="449.99999999999966" y1="586.6025403784439" y2="-106.21778264910705"/>
<line stroke="blue" x1="950" x2="1050" y1="586.6025403784439" y2="759.8076211353316"/>
<line stroke="blue" x1="950" x2="0.00000000000005684341886080802" y1="586.6025403784439" y2="846.4101615137756"/>
<line stroke="blue" x1="950" x2="449.99999999999966" y1="586.6025403784439" y2="-106.21778264910705"/>
<line stroke="blue" x1="950" x2="1050" y1="586.6025403784439" y2="759.8076211353316"/>
<line stroke="blue" x1="950" x2="0.00000000000005684341886080802" y1="586.6025403784439" y2="846.4101615137756"/>
<line stroke="blue" x1="950" x2="449.99999999999966" y1="586.6025403784439" y2="-106.21778264910705"/>
<line stroke="blue" x1="950" x2="1050" y1="586.6025403784439" y2="759.8076211353316"/>
<line stroke="blue" x1="950" x2="0.00000000000005684341886080802" y1="586.6025403784439" y2="846.4101615137756"/>
<line stroke="blue" x1="950" x2="449.99999999999966" y1="586.6025403784439" y2="-106.21778264910705"/>
<line stroke="blue" x1="950" x2="1050" y1="586.6025403784439" y2="759.8076211353316"/>
<line stroke="blue" x1="950" x2="0.00000000000005684341886080802" y1="586.6025403784439" y2="846.4101615137756"/>
<line stroke="blue" x1="950" x2="449.99999999999966" y1="586.6025403784439" y2="-106.21778264910705"/>
<line stroke="blue" x1="950" x2="1050" y1="586.6025403784439" y2="759.8076211353316"/>
<line stroke="blue" x1="962.5" x2="1037.5" y1="608.2531754730549" y2="738.1569860407207"/>
<line stroke="blue" x1="962.5" x2="25.000000000000057" y1="608.2531754730549" y2="846.4101615137756"/>
<line stroke="blue" x1="962.5" x2="437.49999999999966" y1="608.2531754730549" y2="-84.56714755449607"/>
<line stroke="blue" x1="962.5" x2="1037.5" y1="608.2531754730549" y2="738.1569860407207"/>
<line stroke="blue" x1="962.5" x2="25.000000000000057" y1="608.2531754730549" y2="846.4101615137756"/>
<line stroke="blue" x1="962.5" x2="437.49999999999966" y1="608.2531754730549" y2="-84.56714755449607"/>
<line stroke="blue" x1="962.5" x2="1037.5" y1="608.2531754730549" y2="738.1569860407207"/>
<line stroke="blue" x1="962.5" x2="25.000000000000057" y1="608.2531754730549" y2="846.4101615137756"/>
<line stroke="blue" x1="962.5" x2="437.49999999999966" y1="608.2531754730549" y2="-84.56714755449607"/>
<line stroke="blue" x1="962.5" x2="1037.5" y1="608.2531754730549" y2="738.1569860407207"/>
<line stroke="blue" x1="962.5" x2="25.000000000000057" y1="608.2531754730549" y2="846.4101615137756"/>
<line stroke="blue" x1="962.5" x2="437.49999999999966" y1="608.2531754730549" y2="-84.56714755449607"/>
<line stroke="blue" x1="962.5" x2="1037.5" y1="608.2531754730549" y2="738.1569860407207"/>
<line stroke="blue" x1="962.5" x2="25.000000000000057" y1="608.2531754730549" y2="846.4101615137756"/>
<line stroke="blue" x1="962.5" x2="437.49999999999966" y1="608.2531754730549" y2="-84.56714755449607"/>
<line stroke="blue" x1="962.5" x2="1037.5" y1="608.2531754730549" y2="738.1569860407207"/>
<line stroke="blue" x1="975" x2="1025" y1="629.9038105676658" y2="716.5063509461097"/>
<line stroke="blue" x1="975" x2="50.00000000000006" y1="629.9038105676658" y2="846.4101615137756"/>
<line stroke="blue" x1="975" x2="424.99999999999966" y1="629.9038105676658" y2="-62.9165124598851"/>
<line stroke="blue" x1="975" x2="1025" y1="629.9038105676658" y2="716.5063509461097"/>
<line stroke="blue" x1="975" x2="50.00000000000006" y1="629.9038105676658" y2="846.4101615137756"/>
<line stroke="blue" x1="975" x2="424.99999999999966" y1="629.9038105676658" y2="-62.9165124598851"/>
<line stroke="blue" x1="975" x2="1025" y1="629.9038105676658" y2="716.5063509461097"/>
<line stroke="blue" x1="975" x2="50.00000000000006" y1="629.9038105676658" y2="846.4101615137756"/>
<line stroke="blue" x1="975" x2="424.99999999999966" y1="629.9038105676658" y2="-62.9165124598851"/>
<line stroke="blue" x1="975" x2="1025" y1="629.9038105676658" y2="716.5063509461097"/>
<line stroke="blue" x1="975" x2="50.00000000000006" y1="629.9038105676658" y2="846.4101615137756"/>
<line stroke="blue" x1="975" x2="424.99999999999966" y1="629.9038105676658" y2="-62.9165124598851"/>
<line stroke="blue" x1="975" x2="1025" y1="629.9038105676658" y2="716.5063509461097"/>
<line stroke="blue" x1="975" x2="50.00000000000006" y1="629.9038105676658" y2="846.4101615137756"/>
<line stroke="blue" x1="975" x2="424.99999999999966" y1="629.9038105676658" y2="-62.9165124598851"/>
<line stroke="blue" x1="975" x2="1025" y1="629.9038105676658" y2="716.5063509461097"/>
<line stroke="blue" x1="987.5" x2="1012.5" y1="651.5544456622767" y2="694.8557158514986"/>
<line stroke="blue" x1="987.5" x2="75.00000000000006" y1="651.5544456622767" y2="846.4101615137756"/>
<line stroke="blue" x1="987.5" x2="412.49999999999966" y1="651.5544456622767" y2="-41.26587736527412"/>
<line stroke="blue" x1="987.5" x2="1012.5" y1="651.5544456622767" y2="694.8557158514986"/>
<line stroke="blue" x1="987.5" x2="75.00000000000006" y1="651.5544456622767" y2="846.4101615137756"/>
<line stroke="blue" x1="987.5" x2="412.49999999999966" y1="651.5544456622767" y2="-41.26587736527412"/>
<line stroke="blue" x1="987.5" x2="1012.5" y1="651.5544456622767" y2="694.8557158514986"/>
<line stroke="blue" x1="987.5" x2="75.00000000000006" y1="651.5544456622767" y2="846.4101615137756"/>
<line stroke="blue" x1="987.5" x2="412.49999999999966" y1="651.5544456622767" y2="-41.26587736527412"/>
<line stroke="blue" x1="987.5" x2="1012.5" y1="651.5544456622767" y2="694.8557158514986"/>
<line stroke="blue" x1="987.5" x2="75.00000000000006" y1="651.5544456622767" y2="846.4101615137756"/>
<line stroke="blue" x1="987.5" x2="412.49999999999966" y1="651.5544456622767" y2="-41.26587736527412"/>
<line stroke="blue" x1="987.5" x2="1012.5" y1="651.5544456622767" y2="694.8557158514986"/>
<line stroke="blue" x1="987.5" x2="75.00000000000006" y1="651.5544456622767" y2="846.4101615137756"/>
<line stroke="blue" x1="987.5" x2="412.49999999999966" y1="651.5544456622767" y2="-41.26587736527412"/>
<line stroke="blue" x1="987.5" x2="1012.5" y1="651.5544456622767" y2="694.8557158514986"/>
<line stroke="blue" x1="1000" x2="1000" y1="673.2050807568878" y2="673.2050807568878"/>
<line stroke="blue" x1="1000" x2="100.00000000000006" y1="673.2050807568878" y2="846.4101615137756"/>
<line stroke="blue" x1="1000" x2="399.9999999999997" y1="673.2050807568878" y2="-19.615242270663146"/>
<line stroke="blue" x1="1000" x2="1000" y1="673.2050807568878" y2="673.2050807568878"/>
<line stroke="blue" x1="1000" x2="100.00000000000006" y1="673.2050807568878" y2="846.4101615137756"/>
<line stroke="blue" x1="1000" x2="399.9999999999997" y1="673.2050807568878" y2="-19.615242270663146"/>
<line stroke="blue" x1="1000" x2="1000" y1="673.2050807568878" y2="673.2050807568878"/>
<line stroke="blue" x1="1000" x2="100.00000000000006" y1="673.2050807568878" y2="846.4101615137756"/>
<line stroke="blue" x1="1000" x2="399.9999999999997" y1="673.2050807568878" y2="-19.615242270663146"/>
<line stroke="blue" x1="1000" x2="1000" y1="673.2050807568878" y2="673.2050807568878"/>
<line stroke="blue" x1="1000" x2="100.00000000000006" y1="673.2050807568878" y2="846.4101615137756"/>
<line stroke="blue" x1="1000" x2="399.9999999999997" y1="673.2050807568878" y2="-19.615242270663146"/>
<line stroke="blue" x1="1000" x2="1000" y1="673.2050807568878" y2="673.2050807568878"/>
<line stroke="blue" x1="1000" x2="100.00000000000006" y1="673.2050807568878" y2="846.4101615137756"/>
<line stroke="blue" x1="1000" x2="399.9999999999997" y1="673.2050807568878" y2="-19.615242270663146"/>
<line stroke="blue" x1="1000" x2="1000" y1="673.2050807568878" y2="673.2050807568878"/>
<line stroke="blue" x1="1012.5" x2="987.5" y1="694.8557158514986" y2="651.5544456622767"/>
<line stroke="blue" x1="1012.5" x2="125.00000000000006" y1="694.8557158514986" y2="846.4101615137756"/>
<line stroke="blue" x1="1012.5" x2="387.4999999999997" y1="694.8557158514986" y2="2.0353928239478307"/>
<line stroke="blue" x1="1012.5" x2="987.5" y1="694.8557158514986" y2="651.5544456622767"/>
<line stroke="blue" x1="1012.5" x2="125.00000000000006" y1="694.8557158514986" y2="846.4101615137756"/>
<line stroke="blue" x1="1012.5" x2="387.4999999999997" y1="694.8557158514986" y2="2.0353928239478307"/>
<line stroke="blue" x1="1012.5" x2="987.5" y1="694.8557158514986" y2="651.5544456622767"/>
<line stroke="blue" x1="1012.5" x2="125.00000000000006" y1="694.8557158514986" y2="846.4101615137756"/>
<line stroke="blue" x1="1012.5" x2="387.4999999999997" y1="694.8557158514986" y2="2.0353928239478307"/>
<line stroke="blue" x1="1012.5" x2="987.5" y1="694.8557158514986" y2="651.5544456622767"/>
<line stroke="blue" x1="1012.5" x2="125.00000000000006" y1="694.8557158514986" y2="846.4101615137756"/>
<line stroke="blue" x1="1012.5" x2="387.4999999999997" y1="694.8557158514986" y2="2.0353928239478307"/>
<line stroke="blue" x1="1012.5" x2="987.5" y1="694.8557158514986" y2="651.5544456622767"/>
<line stroke="blue" x1="1012.5" x2="125.00000000000006" y1="694.8557158514986" y2="846.4101615137756"/>
<line stroke="blue" x1="1012.5" x2="387.4999999999997" y1="694.8557158514986" y2="2.0353928239478307"/>
<line stroke="blue" x1="1012.5" x2="987.5" y1="694.8557158514986" y2="651.5544456622767"/>
<line stroke="blue" x1="1025" x2="975" y1="716.5063509461097" y2="629.9038105676658"/>
<line stroke="blue" x1="1025" x2="150.00000000000006" y1="716.5063509461097" y2="846.4101615137756"/>
<line stroke="blue" x1="1025" x2="374.9999999999997" y1="716.5063509461097" y2="23.686027918558807"/>
<line stroke="blue" x1="1025" x2="975" y1="716.5063509461097" y2="629.9038105676658"/>
<line stroke="blue" x1="1025" x2="150.00000000000006" y1="716.5063509461097" y2="846.4101615137756"/>
<line stroke="blue" x1="1025" x2="374.9999999999997" y1="716.5063509461097" y2="23.686027918558807"/>
<line stroke="blue" x1="1025" x2="975" y1="716.5063509461097" y2="629.9038105676658"/>
<line stroke="blue" x1="1025" x2="150.00000000000006" y1="716.5063509461097" y2="846.4101615137756"/>
<line stroke="blue" x1="1025" x2="374.9999999999997" y1="716.5063509461097" y2="23.686027918558807"/>
<line stroke="blue" x1="1025" x2="975" y1="716.5063509461097" y2="629.9038105676658"/>
<line stroke="blue" x1="1025" x2="150.00000000000006" y1="716.5063509461097" y2="846.4101615137756"/>
<line stroke="blue" x1="1025" x2="374.9999999999997" y1="716.5063509461097" y2="23.686027918558807"/>
<line stroke="blue" x1="1025" x2="975" y1="716.5063509461097" y2="629.9038105676658"/>
<line stroke="blue" x1="1025" x2="150.00000000000006" y1="716.5063509461097" y2="846.4101615137756"/>
<line stroke="blue" x1="1025" x2="374.9999999999997" y1="716.5063509461097" y2="23.686027918558807"/>
<line stroke="blue" x1="1025" x2="975" y1="716.5063509461097" y2="629.9038105676658"/>
<line stroke="blue" x1="1037.5" x2="962.5" y1="738.1569860407207" y2="608.2531754730549"/>
<line stroke="blue" x1="1037.5" x2="175.00000000000006" y1="738.1569860407207" y2="846.4101615137756"/>
<line stroke="blue" x1="1037.5" x2="362.4999999999998" y1="738.1569860407207" y2="45.33666301316978"/>
<line stroke="blue" x1="1037.5" x2="962.5" y1="738.1569860407207" y2="608.2531754730549"/>
<line stroke="blue" x1="1037.5" x2="175.00000000000006" y1="738.1569860407207" y2="846.4101615137756"/>
<line stroke="blue" x1="1037.5" x2="362.4999999999998" y1="738.1569860407207" y2="45.33666301316978"/>
<line stroke="blue" x1="1037.5" x2="962.5" y1="738.1569860407207" y2="608.2531754730549"/>
<line stroke="blue" x1="1037.5" x2="175.00000000000006" y1="738.1569860407207" y2="846.4101615137756"/>
<line stroke="blue" x1="1037.5" x2="362.4999999999998" y1="738.1569860407207" y2="45.33666301316978"/>
<line stroke="blue" x1="1037.5" x2="962.5" y1="738.1569860407207" y2="608.2531754730549"/>
<line stroke="blue" x1="1037.5" x2="175.00000000000006" y1="738.1569860407207" y2="846.4101615137756"/>
<line stroke="blue" x1="1037.5" x2="362.4999999999998" y1="738.1569860407207" y2="45.33666301316978"/>
<line stroke="blue" x1="1037.5" x2="962.5" y1="738.1569860407207" y2="608.2531754730549"/>
<line stroke="blue" x1="1037.5" x2="175.00000000000006" y1="738.1569860407207" y2="846.4101615137756"/>
<line stroke="blue" x1="1037.5" x2="362.4999999999998" y1="738.1569860407207" y2="45.33666301316978"/>
<line stroke="blue" x1="1037.5" x2="962.5" y1="738.1569860407207" y2="608.2531754730549"/>
<line stroke="blue" x1="1050" x2="950" y1="759.8076211353316" y2="586.6025403784439"/>
<line stroke="blue" x1="1050" x2="200.00000000000006" y1="759.8076211353316" y2="846.4101615137755"/>
<line stroke="blue" x1="1050" x2="349.9999999999998" y1="759.8076211353316" y2="66.98729810778076"/>
<line stroke="blue" x1="1050" x2="950" y1="759.8076211353316" y2="586.6025403784439"/>
<line stroke="blue" x1="1050" x2="200.00000000000006" y1="759.8076211353316" y2="846.4101615137755"/>
<line stroke="blue" x1="1050" x2="349.9999999999998" y1="759.8076211353316" y2="66.98729810778076"/>
<line stroke="blue" x1="1050" x2="950" y1="759.8076211353316" y2="586.6025403784439"/>
<line stroke="blue" x1="1050" x2="200.00000000000006" y1="759.8076211353316" y2="846.4101615137755"/>
<line stroke="blue" x1="1050" x2="349.9999999999998" y1="759.8076211353316" y2="66.98729810778076"/>
<line stroke="blue" x1="1050" x2="950" y1="759.8076211353316" y2="586.6025403784439"/>
<line stroke="blue" x1="1050" x2="200.00000000000006" y1="759.8076211353316" y2="846.4101615137755"/>
<line stroke="blue" x1="1050" x2="349.9999999999998" y1="759.8076211353316" y2="66.98729810778076"/>
<line stroke="blue" x1="1050" x2="950" y1="759.8076211353316" y2="586.6025403784439"/>
<line stroke="blue" x1="1050" x2="200.00000000000006" y1="759.8076211353316" y2="846.4101615137755"/>
<line stroke="blue" x1="1050" x2="349.9999999999998" y1="759.8076211353316" y2="66.98729810778076"/>
<line stroke="blue" x1="1050" x2="950" y1="759.8076211353316" y2="586.6025403784439"/>
<line stroke="blue" x1="1062.5" x2="937.5" y1="781.4582562299427" y2="564.951905283833"/>
<line stroke="blue" x1="1062.5" x2="225.00000000000006" y1="781.4582562299427" y2="846.4101615137755"/>
<line stroke="blue" x1="1062.5" x2="337.4999999999998" y1="781.4582562299427" y2="88.63793320239174"/>
<line stroke="blue" x1="1062.5" x2="937.5" y1="781.4582562299427" y2="564.951905283833"/>
<line stroke="blue" x1="1062.5" x2="225.00000000000006" y1="781.4582562299427" y2="846.4101615137755"/>
<line stroke="blue" x1="1062.5" x2="337.4999999999998" y1="781.4582562299427" y2="88.63793320239174"/>
<line stroke="blue" x1="1062.5" x2="937.5" y1="781.4582562299427" y2="564.951905283833"/>
<line stroke="blue" x1="1062.5" x2="225.00000000000006" y1="781.4582562299427" y2="846.4101615137755"/>
<line stroke="blue" x1="1062.5" x2="337.4999999999998" y1="781.4582562299427" y2="88.63793320239174"/>
<line stroke="blue" x1="1062.5" x2="937.5" y1="781.4582562299427" y2="564.951905283833"/>
<line stroke="blue" x1="1062.5" x2="225.00000000000006" y1="781.4582562299427" y2="846.4101615137755"/>
<line stroke="blue" x1="1062.5" x2="337.4999999999998" y1="781.4582562299427" y2="88.63793320239174"/>
<line stroke="blue" x1="1062.5" x2="937.5" y1="781.4582562299427" y2="564.951905283833"/>
<line stroke="blue" x1="1062.5" x2="225.00000000000006" y1="781.4582562299427" y2="846.4101615137755"/>
<line stroke="blue" x1="1062.5" x2="337.4999999999998" y1="781.4582562299427" y2="88.63793320239174"/>
<line stroke="blue" x1="1062.5" x2="937.5" y1="781.4582562299427" y2="564.951905283833"/>
<line stroke="blue" x1="1075" x2="925" y1="803.1088913245535" y2="543.3012701892219"/>
<line stroke="blue" x1="1075" x2="250.00000000000006" y1="803.1088913245535" y2="846.4101615137755"/>
<line stroke="blue" x1="1075" x2="324.9999999999998" y1="803.1088913245535" y2="110.28856829700271"/>
<line stroke="blue" x1="1075" x2="925" y1="803.1088913245535" y2="543.3012701892219"/>
<line stroke="blue" x1="1075" x2="250.00000000000006" y1="803.1088913245535" y2="846.4101615137755"/>
<line stroke="blue" x1="1075" x2="324.9999999999998" y1="803.1088913245535" y2="110.28856829700271"/>
<line stroke="blue" x1="1075" x2="925" y1="803.1088913245535" y2="543.3012701892219"/>
<line stroke="blue" x1="1075" x2="250.00000000000006" y1="803.1088913245535" y2="846.4101615137755"/>
<line stroke="blue" x1="1075" x2="324.9999999999998" y1="803.1088913245535" y2="110.28856829700271"/>
<line stroke="blue" x1="1075" x2="925" y1="803.1088913245535" y2="543.3012701892219"/>
<line stroke="blue" x1="1075" x2="250.00000000000006" y1="803.1088913245535" y2="846.4101615137755"/>
<line stroke="blue" x1="1075" x2="324.9999999999998" y1="803.1088913245535" y2="110.28856829700271"/>
<line stroke="blue" x1="1075" x2="925" y1="803.1088913245535" y2="543.3012701892219"/>
<line stroke="blue" x1="1075" x2="250.00000000000006" y1="803.1088913245535" y2="846.4101615137755"/>
<line stroke="blue" x1="1075" x2="324.9999999999998" y1="803.1088913245535" y2="110.28856829700271"/>
<line stroke="blue" x1="1075" x2="925" y1="803.1088913245535" y2="543.3012701892219"/>
<line stroke="blue" x1="1087.5" x2="912.5" y1="824.7595264191646" y2="521.650635094611"/>
<line stroke="blue" x1="1087.5" x2="275.00000000000006" y1="824.7595264191646" y2="846.4101615137755"/>
<line stroke="blue" x1="1087.5" x2="312.49999999999983" y1="824.7595264191646" y2="131.9392033916137"/>
<line stroke="blue" x1="1087.5" x2="912.5" y1="824.7595264191646" y2="521.650635094611"/>
<line stroke="blue" x1="1087.5" x2="275.00000000000006" y1="824.7595264191646" y2="846.4101615137755"/>
<line stroke="blue" x1="1087.5" x2="312.49999999999983" y1="824.7595264191646" y2="131.9392033916137"/>
<line stroke="blue" x1="1087.5" x2="912.5" y1="824.7595264191646" y2="521.650635094611"/>
<line stroke="blue" x1="1087.5" x2="275.00000000000006" y1="824.7595264191646" y2="846.4101615137755"/>
<line stroke="blue" x1="1087.5" x2="312.49999999999983" y1="824.7595264191646" y2="131.9392033916137"/>
<line stroke="blue" x1="1087.5" x2="912.5" y1="824.7595264191646" y2="521.650635094611"/>
<line stroke="blue" x1="1087.5" x2="275.00000000000006" y1="824.7595264191646" y2="846.4101615137755"/>
<line stroke="blue" x1="1087.5" x2="312.49999999999983" y1="824.7595264191646" y2="131.9392033916137"/>
<line stroke="blue" x1="1087.5" x2="912.5" y1="824.7595264191646" y2="521.650635094611"/>
<line stroke="blue" x1="1087.5" x2="275.00000000000006" y1="824.7595264191646" y2="846.4101615137755"/>
<line stroke="blue" x1="1087.5" x2="312.49999999999983" y1="824.7595264191646" y2="131.9392033916137"/>
<line stroke="blue" x1="1087.5" x2="912.5" y1="824.7595264191646" y2="521.650635094611"/>
<line stroke="blue" x1="300.00000000000006" x2="300.00000000000006" y1="846.4101615137755" y2="846.4101615137755"/>
<line stroke="blue" x1="300.00000000000006" x2="299.99999999999983" y1="846.4101615137755" y2="153.58983848622466"/>
<line stroke="blue" x1="300.00000000000006" x2="900" y1="846.4101615137755" y2="500"/>
<line stroke="blue" x1="300.00000000000006" x2="300.00000000000006" y1="846.4101615137755" y2="846.4101615137755"/>
<line stroke="blue" x1="300.00000000000006" x2="299.99999999999983" y1="846.4101615137755" y2="153.58983848622466"/>
<line stroke="blue" x1="300.00000000000006" x2="900" y1="846.4101615137755" y2="500"/>
<line stroke="blue" x1="300.00000000000006" x2="300.00000000000006" y1="846.4101615137755" y2="846.4101615137755"/>
<line stroke="blue" x1="300.00000000000006" x2="299.99999999999983" y1="846.4101615137755" y2="153.58983848622466"/>
<line stroke="blue" x1="300.00000000000006" x2="900" y1="846.4101615137755" y2="500"/>
<line stroke="blue" x1="300.00000000000006" x2="300.00000000000006" y1="846.4101615137755" y2="846.4101615137755"/>
<line stroke="blue" x1="300.00000000000006" x2="299.99999999999983" y1="846.4101615137755" y2="153.58983848622466"/>
<line stroke="blue" x1="300.00000000000006" x2="900" y1="846.4101615137755" y2="500"/>
<line stroke="blue" x1="300.00000000000006" x2="300.00000000000006" y1="846.4101615137755" y2="846.4101615137755"/>
<line stroke="blue" x1="300.00000000000006" x2="299.99999999999983" y1="846.4101615137755" y2="153.58983848622466"/>
<line stroke="blue" x1="300.00000000000006" x2="900" y1="846.4101615137755" y2="500"/>
<line stroke="blue" x1="300.00000000000006" x2="300.00000000000006" y1="846.4101615137755" y2="846.4101615137755"/>
<line stroke="blue" x1="275.00000000000006" x2="-74.99999999999994" y1="846.4101615137755" y2="846.4101615137757"/>
<line stroke="blue" x1="275.00000000000006" x2="487.49999999999955" y1="846.4101615137755" y2="-171.16968793293995"/>
<line stroke="blue" x1="275.00000000000006" x2="1087.5" y1="846.4101615137755" y2="824.7595264191646"/>
<line stroke="blue" x1="275.00000000000006" x2="-74.99999999999994" y1="846.4101615137755" y2="846.4101615137757"/>
<line stroke="blue" x1="275.00000000000006" x2="487.49999999999955" y1="846.4101615137755" y2="-171.16968793293995"/>
<line stroke="blue" x1="275.00000000000006" x2="1087.5" y1="846.4101615137755" y2="824.7595264191646"/>
<line stroke="blue" x1="275.00000000000006" x2="-74.99999999999994" y1="846.4101615137755" y2="846.4101615137757"/>
<line stroke="blue" x1="275.00000000000006" x2="487.49999999999955" y1="846.4101615137755" y2="-171.16968793293995"/>
<line stroke="blue" x1="275.00000000000006" x2="1087.5" y1="846.4101615137755" y2="824.7595264191646"/>
<line stroke="blue" x1="275.00000000000006" x2="-74.99999999999994" y1="846.4101615137755" y2="846.4101615137757"/>
<line stroke="blue" x1="275.00000000000006" x2="487.49999999999955" y1="846.4101615137755" y2="-171.16968793293995"/>
<line stroke="blue" x1="275.00000000000006" x2="1087.5" y1="846.4101615137755" y2="824.7595264191646"/>
<line stroke="blue" x1="275.00000000000006" x2="-74.99999999999994" y1="846.4101615137755" y2="846.4101615137757"/>
<line stroke="blue" x1="275.00000000000006" x2="487.49999999999955" y1="846.4101615137755" y2="-171.16968793293995"/>
<line stroke="blue" x1="275.00000000000006" x2="1087.5" y1="846.4101615137755" y2="824.7595264191646"/>
<line stroke="blue" x1="275.00000000000006" x2="-74.99999999999994" y1="846.4101615137755" y2="846.4101615137757"/>
<line stroke="blue" x1="250.00000000000006" x2="-49.99999999999994" y1="846.4101615137755" y2="846.4101615137757"/>
<line stroke="blue" x1="250.00000000000006" x2="474.9999999999996" y1="846.4101615137755" y2="-149.519052838329"/>
<line stroke="blue" x1="250.00000000000006" x2="1075" y1="846.4101615137755" y2="803.1088913245535"/>
<line stroke="blue" x1="250.00000000000006" x2="-49.99999999999994" y1="846.4101615137755" y2="846.4101615137757"/>
<line stroke="blue" x1="250.00000000000006" x2="474.9999999999996" y1="846.4101615137755" y2="-149.519052838329"/>
<line stroke="blue" x1="250.00000000000006" x2="1075" y1="846.4101615137755" y2="803.1088913245535"/>
<line stroke="blue" x1="250.00000000000006" x2="-49.99999999999994" y1="846.4101615137755" y2="846.4101615137757"/>
<line stroke="blue" x1="250.00000000000006" x2="474.9999999999996" y1="846.4101615137755" y2="-149.519052838329"/>
<line stroke="blue" x1="250.00000000000006" x2="1075" y1="846.4101615137755" y2="803.1088913245535"/>
<line stroke="blue" x1="250.00000000000006" x2="-49.99999999999994" y1="846.4101615137755" y2="846.4101615137757"/>
<line stroke="blue" x1="250.00000000000006" x2="474.9999999999996" y1="846.4101615137755" y2="-149.519052838329"/>
<line stroke="blue" x1="250.00000000000006" x2="1075" y1="846.4101615137755" y2="803.1088913245535"/>
<line stroke="blue" x1="250.00000000000006" x2="-49.99999999999994" y1="846.4101615137755" y2="846.4101615137757"/>
<line stroke="blue" x1="250.00000000000006" x2="474.9999999999996" y1="846.4101615137755" y2="-149.519052838329"/>
<line stroke="blue" x1="250.00000000000006" x2="1075" y1="846.4101615137755" y2="803.1088913245535"/>
<line stroke="blue" x1="250.00000000000006" x2="-49.99999999999994" y1="846.4101615137755" y2="846.4101615137757"/>
<line stroke="blue" x1="225.00000000000006" x2="-24.999999999999943" y1="846.4101615137755" y2="846.4101615137757"/>
<line stroke="blue" x1="225.00000000000006" x2="462.4999999999996" y1="846.4101615137755" y2="-127.868417743718"/>
<line stroke="blue" x1="225.00000000000006" x2="1062.5" y1="846.4101615137755" y2="781.4582562299427"/>
<line stroke="blue" x1="225.00000000000006" x2="-24.999999999999943" y1="846.4101615137755" y2="846.4101615137757"/>
<line stroke="blue" x1="225.00000000000006" x2="462.4999999999996" y1="846.4101615137755" y2="-127.868417743718"/>
<line stroke="blue" x1="225.00000000000006" x2="1062.5" y1="846.4101615137755" y2="781.4582562299427"/>
<line stroke="blue" x1="225.00000000000006" x2="-24.999999999999943" y1="846.4101615137755" y2="846.4101615137757"/>
<line stroke="blue" x1="225.00000000000006" x2="462.4999999999996" y1="846.4101615137755" y2="-127.868417743718"/>
<line stroke="blue" x1="225.00000000000006" x2="1062.5" y1="846.4101615137755" y2="781.4582562299427"/>
<line stroke="blue" x1="225.00000000000006" x2="-24.999999999999943" y1="846.4101615137755" y2="846.4101615137757"/>
<line stroke="blue" x1="225.00000000000006" x2="462.4999999999996" y1="846.4101615137755" y2="-127.868417743718"/>
<line stroke="blue" x1="225.00000000000006" x2="1062.5" y1="846.4101615137755" y2="781.4582562299427"/>
<line stroke="blue" x1="225.00000000000006" x2="-24.999999999999943" y1="846.4101615137755" y2="846.4101615137757"/>
<line stroke="blue" x1="225.00000000000006" x2="462.4999999999996" y1="846.4101615137755" y2="-127.868417743718"/>
<line stroke="blue" x1="225.00000000000006" x2="1062.5" y1="846.4101615137755" y2="781.4582562299427"/>
<line stroke="blue" x1="225.00000000000006" x2="-24.999999999999943" y1="846.4101615137755" y2="846.4101615137757"/>
<line stroke="blue" x1="200.00000000000006" x2="0.00000000000005684341886080802" y1="846.4101615137755" y2="846.4101615137756"/>
<line stroke="blue" x1="200.00000000000006" x2="449.99999999999966" y1="846.4101615137755" y2="-106.21778264910705"/>
<line stroke="blue" x1="200.00000000000006" x2="1050" y1="846.4101615137755" y2="759.8076211353316"/>
<line stroke="blue" x1="200.00000000000006" x2="0.00000000000005684341886080802" y1="846.4101615137755" y2="846.4101615137756"/>
<line stroke="blue" x1="200.00000000000006" x2="449.99999999999966" y1="846.4101615137755" y2="-106.21778264910705"/>
<line stroke="blue" x1="200.00000000000006" x2="1050" y1="846.4101615137755" y2="759.8076211353316"/>
<line stroke="blue" x1="200.00000000000006" x2="0.00000000000005684341886080802" y1="846.4101615137755" y2="846.4101615137756"/>
<line stroke="blue" x1="200.00000000000006" x2="449.99999999999966" y1="846.4101615137755" y2="-106.21778264910705"/>
<line stroke="blue" x1="200.00000000000006" x2="1050" y1="846.4101615137755" y2="759.8076211353316"/>
<line stroke="blue" x1="200.00000000000006" x2="0.00000000000005684341886080802" y1="846.4101615137755" y2="846.4101615137756"/>
<line stroke="blue" x1="200.00000000000006" x2="449.99999999999966" y1="846.4101615137755" y2="-106.21778264910705"/>
<line stroke="blue" x1="200.00000000000006" x2="1050" y1="846.4101615137755" y2="759.8076211353316"/>
<line stroke="blue" x1="200.00000000000006" x2="0.00000000000005684341886080802" y1="846.4101615137755" y2="846.4101615137756"/>
<line stroke="blue" x1="200.00000000000006" x2="449.99999999999966" y1="846.4101615137755" y2="-106.21778264910705"/>
<line stroke="blue" x1="200.00000000000006" x2="1050" y1="846.4101615137755" y2="759.8076211353316"/>
<line stroke="blue" x1="200.00000000000006" x2="0.00000000000005684341886080802" y1="846.4101615137755" y2="846.4101615137756"/>
<line stroke="blue" x1="175.00000000000006" x2="25.000000000000057" y1="846.4101615137756" y2="846.4101615137756"/>
<line stroke="blue" x1="175.00000000000006" x2="437.49999999999966" y1="846.4101615137756" y2="-84.56714755449607"/>
<line stroke="blue" x1="175.00000000000006" x2="1037.5" y1="846.4101615137756" y2="738.1569860407207"/>
<line stroke="blue" x1="175.00000000000006" x2="25.000000000000057" y1="846.4101615137756" y2="846.4101615137756"/>
<line stroke="blue" x1="175.00000000000006" x2="437.49999999999966" y1="846.4101615137756" y2="-84.56714755449607"/>
<line stroke="blue" x1="175.00000000000006" x2="1037.5" y1="846.4101615137756" y2="738.1569860407207"/>
<line stroke="blue" x1="175.00000000000006" x2="25.000000000000057" y1="846.4101615137756" y2="846.4101615137756"/>
<line stroke="blue" x1="175.00000000000006" x2="437.49999999999966" y1="846.4101615137756" y2="-84.56714755449607"/>
<line stroke="blue" x1="175.00000000000006" x2="1037.5" y1="846.4101615137756" y2="738.1569860407207"/>
<line stroke="blue" x1="175.00000000000006" x2="25.000000000000057" y1="846.4101615137756" y2="846.4101615137756"/>
<line stroke="blue" x1="175.00000000000006" x2="437.49999999999966" y1="846.4101615137756" y2="-84.56714755449607"/>
<line stroke="blue" x1="175.00000000000006" x2="1037.5" y1="846.4101615137756" y2="738.1569860407207"/>
<line stroke="blue" x1="175.00000000000006" x2="25.000000000000057" y1="846.4101615137756" y2="846.4101615137756"/>
<line stroke="blue" x1="175.00000000000006" x2="437.49999999999966" y1="846.4101615137756" y2="-84.56714755449607"/>
<line stroke="blue" x1="175.00000000000006" x2="1037.5" y1="846.4101615137756" y2="738.1569860407207"/>
<line stroke="blue" x1="175.00000000000006" x2="25.000000000000057" y1="846.4101615137756" y2="846.4101615137756"/>
<line stroke="blue" x1="150.00000000000006" x2="50.00000000000006" y1="846.4101615137756" y2="846.4101615137756"/>
<line stroke="blue" x1="150.00000000000006" x2="424.99999999999966" y1="846.4101615137756" y2="-62.9165124598851"/>
<line stroke="blue" x1="150.00000000000006" x2="1025" y1="846.4101615137756" y2="716.5063509461097"/>
<line stroke="blue" x1="150.00000000000006" x2="50.00000000000006" y1="846.4101615137756" y2="846.4101615137756"/>
<line stroke="blue" x1="150.00000000000006" x2="424.99999999999966" y1="846.4101615137756" y2="-62.9165124598851"/>
<line stroke="blue" x1="150.00000000000006" x2="1025" y1="846.4101615137756" y2="716.5063509461097"/>
<line stroke="blue" x1="150.00000000000006" x2="50.00000000000006" y1="846.4101615137756" y2="846.4101615137756"/>
<line stroke="blue" x1="150.00000000000006" x2="424.99999999999966" y1="846.4101615137756" y2="-62.9165124598851"/>
<line stroke="blue" x1="150.00000000000006" x2="1025" y1="846.4101615137756" y2="716.5063509461097"/>
<line stroke="blue" x1="150.00000000000006" x2="50.00000000000006" y1="846.4101615137756" y2="846.4101615137756"/>
<line stroke="blue" x1="150.00000000000006" x2="424.99999999999966" y1="846.4101615137756" y2="-62.9165124598851"/>
<line stroke="blue" x1="150.00000000000006" x2="1025" y1="846.4101615137756" y2="716.5063509461097"/>
<line stroke="blue" x1="150.00000000000006" x2="50.00000000000006" y1="846.4101615137756" y2="846.4101615137756"/>
<line stroke="blue" x1="150.00000000000006" x2="424.99999999999966" y1="846.4101615137756" y2="-62.9165124598851"/>
<line stroke="blue" x1="150.00000000000006" x2="1025" y1="846.4101615137756" y2="716.5063509461097"/>
<line stroke="blue" x1="150.00000000000006" x2="50.00000000000006" y1="846.4101615137756" y2="846.4101615137756"/>
<line stroke="blue" x1="125.00000000000006" x2="75.00000000000006" y1="846.4101615137756" y2="846.4101615137756"/>
<line stroke="blue" x1="125.00000000000006" x2="412.49999999999966" y1="846.4101615137756" y2="-41.26587736527412"/>
<line stroke="blue" x1="125.00000000000006" x2="1012.5" y1="846.4101615137756" y2="694.8557158514986"/>
<line stroke="blue" x1="125.00000000000006" x2="75.00000000000006" y1="846.4101615137756" y2="846.4101615137756"/>
<line stroke="blue" x1="125.00000000000006" x2="412.49999999999966" y1="846.4101615137756" y2="-41.26587736527412"/>
<line stroke="blue" x1="125.00000000000006" x2="1012.5" y1="846.4101615137756" y2="694.8557158514986"/>
<line stroke="blue" x1="125.00000000000006" x2="75.00000000000006" y1="846.4101615137756" y2="846.4101615137756"/>
<line stroke="blue" x1="125.00000000000006" x2="412.49999999999966" y1="846.4101615137756" y2="-41.26587736527412"/>
<line stroke="blue" x1="125.00000000000006" x2="1012.5" y1="846.4101615137756" y2="694.8557158514986"/>
<line stroke="blue" x1="125.00000000000006" x2="75.00000000000006" y1="846.4101615137756" y2="846.4101615137756"/>
<line stroke="blue" x1="125.00000000000006" x2="412.49999999999966" y1="846.4101615137756" y2="-41.26587736527412"/>
<line stroke="blue" x1="125.00000000000006" x2="1012.5" y1="846.4101615137756" y2="694.8557158514986"/>
<line stroke="blue" x1="125.00000000000006" x2="75.00000000000006" y1="846.4101615137756" y2="846.4101615137756"/>
<line stroke="blue" x1="125.00000000000006" x2="412.49999999999966" y1="846.4101615137756" y2="-41.26587736527412"/>
<line stroke="blue" x1="125.00000000000006" x2="1012.5" y1="846.4101615137756" y2="694.8557158514986"/>
<line stroke="blue" x1="125.00000000000006" x2="75.00000000000006" y1="846.4101615137756" y2="846.4101615137756"/>
<line stroke="blue" x1="100.00000000000006" x2="100.00000000000006" y1="846.4101615137756" y2="846.4101615137756"/>
<line stroke="blue" x1="100.00000000000006" x2="399.9999999999997" y1="846.4101615137756" y2="-19.615242270663146"/>
<line stroke="blue" x1="100.00000000000006" x2="1000" y1="846.4101615137756" y2="673.2050807568878"/>
<line stroke="blue" x1="100.00000000000006" x2="100.00000000000006" y1="846.4101615137756" y2="846.4101615137756"/>
<line stroke="blue" x1="100.00000000000006" x2="399.9999999999997" y1="846.4101615137756" y2="-19.615242270663146"/>
<line stroke="blue" x1="100.00000000000006" x2="1000" y1="846.4101615137756" y2="673.2050807568878"/>
<line stroke="blue" x1="100.00000000000006" x2="100.00000000000006" y1="846.4101615137756" y2="846.4101615137756"/>
<line stroke="blue" x1="100.00000000000006" x2="399.9999999999997" y1="846.4101615137756" y2="-19.615242270663146"/>
<line stroke="blue" x1="100.00000000000006" x2="1000" y1="846.4101615137756" y2="673.2050807568878"/>
<line stroke="blue" x1="100.00000000000006" x2="100.00000000000006" y1="846.4101615137756" y2="846.4101615137756"/>
<line stroke="blue" x1="100.00000000000006" x2="399.9999999999997" y1="846.4101615137756" y2="-19.615242270663146"/>
<line stroke="blue" x1="100.00000000000006" x2="1000" y1="846.4101615137756" y2="673.2050807568878"/>
<line stroke="blue" x1="100.00000000000006" x2="100.00000000000006" y1="846.4101615137756" y2="846.4101615137756"/>
<line stroke="blue" x1="100.00000000000006" x2="399.9999999999997" y1="846.4101615137756" y2="-19.615242270663146"/>
<line stroke="blue" x1="100.00000000000006" x2="1000" y1="846.4101615137756" y2="673.2050807568878"/>
<line stroke="blue" x1="100.00000000000006" x2="100.00000000000006" y1="846.4101615137756" y2="846.4101615137756"/>
<line stroke="blue" x1="75.00000000000006" x2="125.00000000000006" y1="846.4101615137756" y2="846.4101615137756"/>
<line stroke="blue" x1="75.00000000000006" x2="387.4999999999997" y1="846.4101615137756" y2="2.0353928239478307"/>
<line stroke="blue" x1="75.00000000000006" x2="987.5" y1="846.4101615137756" y2="651.5544456622767"/>
<line stroke="blue" x1="75.00000000000006" x2="125.00000000000006" y1="846.4101615137756" y2="846.4101615137756"/>
<line stroke="blue" x1="75.00000000000006" x2="387.4999999999997" y1="846.4101615137756" y2="2.0353928239478307"/>
<line stroke="blue" x1="75.00000000000006" x2="987.5" y1="846.4101615137756" y2="651.5544456622767"/>
<line stroke="blue" x1="75.00000000000006" x2="125.00000000000006" y1="846.4101615137756" y2="846.4101615137756"/>
<line stroke="blue" x1="75.00000000000006" x2="387.4999999999997" y1="846.4101615137756" y2="2.0353928239478307"/>
<line stroke="blue" x1="75.00000000000006" x2="987.5" y1="846.4101615137756" y2="651.5544456622767"/>
<line stroke="blue" x1="75.00000000000006" x2="125.00000000000006" y1="846.4101615137756" y2="846.4101615137756"/>
<line stroke="blue" x1="75.00000000000006" x2="387.4999999999997" y1="846.4101615137756" y2="2.0353928239478307"/>
<line stroke="blue" x1="75.00000000000006" x2="987.5" y1="846.4101615137756" y2="651.5544456622767"/>
<line stroke="blue" x1="75.00000000000006" x2="125.00000000000006" y1="846.4101615137756" y2="846.4101615137756"/>
<line stroke="blue" x1="75.00000000000006" x2="387.4999999999997" y1="846.4101615137756" y2="2.0353928239478307"/>
<line stroke="blue" x1="75.00000000000006" x2="987.5" y1="846.4101615137756" y2="651.5544456622767"/>
<line stroke="blue" x1="75.00000000000006" x2="125.00000000000006" y1="846.4101615137756" y2="846.4101615137756"/>
<line stroke="blue" x1="50.00000000000006" x2="150.00000000000006" y1="846.4101615137756" y2="846.4101615137756"/>
<line stroke="blue" x1="50.00000000000006" x2="374.9999999999997" y1="846.4101615137756" y2="23.686027918558807"/>
<line stroke="blue" x1="50.00000000000006" x2="975" y1="846.4101615137756" y2="629.9038105676658"/>
<line stroke="blue" x1="50.00000000000006" x2="150.00000000000006" y1="846.4101615137756" y2="846.4101615137756"/>
<line stroke="blue" x1="50.00000000000006" x2="374.9999999999997" y1="846.4101615137756" y2="23.686027918558807"/>
<line stroke="blue" x1="50.00000000000006" x2="975" y1="846.4101615137756" y2="629.9038105676658"/>
<line stroke="blue" x1="50.00000000000006" x2="150.00000000000006" y1="846.4101615137756" y2="846.4101615137756"/>
<line stroke="blue" x1="50.00000000000006" x2="374.9999999999997" y1="846.4101615137756" y2="23.686027918558807"/>
<line stroke="blue" x1="50.00000000000006" x2="975" y1="846.4101615137756" y2="629.9038105676658"/>
<line stroke="blue" x1="50.00000000000006" x2="150.00000000000006" y1="846.4101615137756" y2="846.4101615137756"/>
<line stroke="blue" x1="50.00000000000006" x2="374.9999999999997" y1="846.4101615137756" y2="23.686027918558807"/>
<line stroke="blue" x1="50.00000000000006" x2="975" y1="846.4101615137756" y2="629.9038105676658"/>
<line stroke="blue" x1="50.00000000000006" x2="150.00000000000006" y1="846.4101615137756" y2="846.4101615137756"/>
<line stroke="blue" x1="50.00000000000006" x2="374.9999999999997" y1="846.4101615137756" y2="23.686027918558807"/>
<line stroke="blue" x1="50.00000000000006" x2="975" y1="846.4101615137756" y2="629.9038105676658"/>
<line stroke="blue" x1="50.00000000000006" x2="150.00000000000006" y1="846.4101615137756" y2="846.4101615137756"/>
<line stroke="blue" x1="25.000000000000057" x2="175.00000000000006" y1="846.4101615137756" y2="846.4101615137756"/>
<line stroke="blue" x1="25.000000000000057" x2="362.4999999999998" y1="846.4101615137756" y2="45.33666301316978"/>
<line stroke="blue" x1="25.000000000000057" x2="962.5" y1="846.4101615137756" y2="608.2531754730549"/>
<line stroke="blue" x1="25.000000000000057" x2="175.00000000000006" y1="846.4101615137756" y2="846.4101615137756"/>
<line stroke="blue" x1="25.000000000000057" x2="362.4999999999998" y1="846.4101615137756" y2="45.33666301316978"/>
<line stroke="blue" x1="25.000000000000057" x2="962.5" y1="846.4101615137756" y2="608.2531754730549"/>
<line stroke="blue" x1="25.000000000000057" x2="175.00000000000006" y1="846.4101615137756" y2="846.4101615137756"/>
<line stroke="blue" x1="25.000000000000057" x2="362.4999999999998" y1="846.4101615137756" y2="45.33666301316978"/>
<line stroke="blue" x1="25.000000000000057" x2="962.5" y1="846.4101615137756" y2="608.2531754730549"/>
<line stroke="blue" x1="25.000000000000057" x2="175.00000000000006" y1="846.4101615137756" y2="846.4101615137756"/>
<line stroke="blue" x1="25.000000000000057" x2="362.4999999999998" y1="846.4101615137756" y2="45.33666301316978"/>
<line stroke="blue" x1="25.000000000000057" x2="962.5" y1="846.4101615137756" y2="608.2531754730549"/>
<line stroke="blue" x1="25.000000000000057" x2="175.00000000000006" y1="846.4101615137756" y2="846.4101615137756"/>
<line stroke="blue" x1="25.000000000000057" x2="362.4999999999998" y1="846.4101615137756" y2="45.33666301316978"/>
<line stroke="blue" x1="25.000000000000057" x2="962.5" y1="846.4101615137756" y2="608.2531754730549"/>
<line stroke="blue" x1="25.000000000000057" x2="175.00000000000006" y1="846.4101615137756" y2="846.4101615137756"/>
<line stroke="blue" x1="0.00000000000005684341886080802" x2="200.00000000000006" y1="846.4101615137756" y2="846.4101615137755"/>
<line stroke="blue" x1="0.00000000000005684341886080802" x2="349.9999999999998" y1="846.4101615137756" y2="66.98729810778076"/>
<line stroke="blue" x1="0.00000000000005684341886080802" x2="950" y1="846.4101615137756" y2="586.6025403784439"/>
<line stroke="blue" x1="0.00000000000005684341886080802" x2="200.00000000000006" y1="846.4101615137756" y2="846.4101615137755"/>
<line stroke="blue" x1="0.00000000000005684341886080802" x2="349.9999999999998" y1="846.4101615137756" y2="66.98729810778076"/>
<line stroke="blue" x1="0.00000000000005684341886080802" x2="950" y1="846.4101615137756" y2="586.6025403784439"/>
<line stroke="blue" x1="0.00000000000005684341886080802" x2="200.00000000000006" y1="846.4101615137756" y2="846.4101615137755"/>
<line stroke="blue" x1="0.00000000000005684341886080802" x2="349.9999999999998" y1="846.4101615137756" y2="66.98729810778076"/>
<line stroke="blue" x1="0.00000000000005684341886080802" x2="950" y1="846.4101615137756" y2="586.6025403784439"/>
<line stroke="blue" x1="0.00000000000005684341886080802" x2="200.00000000000006" y1="846.4101615137756" y2="846.4101615137755"/>
<line stroke="blue" x1="0.00000000000005684341886080802" x2="349.9999999999998" y1="846.4101615137756" y2="66.98729810778076"/>
<line stroke="blue" x1="0.00000000000005684341886080802" x2="950" y1="846.4101615137756" y2="586.6025403784439"/>
<line stroke="blue" x1="0.00000000000005684341886080802" x2="200.00000000000006" y1="846.4101615137756" y2="846.4101615137755"/>
<line stroke="blue" x1="0.00000000000005684341886080802" x2="349.9999999999998" y1="846.4101615137756" y2="66.98729810778076"/>
<line stroke="blue" x1="0.00000000000005684341886080802" x2="950" y1="846.4101615137756" y2="586.6025403784439"/>
<line stroke="blue" x1="0.00000000000005684341886080802" x2="200.00000000000006" y1="846.4101615137756" y2="846.4101615137755"/>
<line stroke="blue" x1="-24.999999999999943" x2="225.00000000000006" y1="846.4101615137757" y2="846.4101615137755"/>
<line stroke="blue" x1="-24.999999999999943" x2="337.4999999999998" y1="846.4101615137757" y2="88.63793320239174"/>
<line stroke="blue" x1="-24.999999999999943" x2="937.5" y1="846.4101615137757" y2="564.951905283833"/>
<line stroke="blue" x1="-24.999999999999943" x2="225.00000000000006" y1="846.4101615137757" y2="846.4101615137755"/>
<line stroke="blue" x1="-24.999999999999943" x2="337.4999999999998" y1="846.4101615137757" y2="88.63793320239174"/>
<line stroke="blue" x1="-24.999999999999943" x2="937.5" y1="846.4101615137757" y2="564.951905283833"/>
<line stroke="blue" x1="-24.999999999999943" x2="225.00000000000006" y1="846.4101615137757" y2="846.4101615137755"/>
<line stroke="blue" x1="-24.999999999999943" x2="337.4999999999998" y1="846.4101615137757" y2="88.63793320239174"/>
<line stroke="blue" x1="-24.999999999999943" x2="937.5" y1="846.4101615137757" y2="564.951905283833"/>
<line stroke="blue" x1="-24.999999999999943" x2="225.00000000000006" y1="846.4101615137757" y2="846.4101615137755"/>
<line stroke="blue" x1="-24.999999999999943" x2="337.4999999999998" y1="846.4101615137757" y2="88.63793320239174"/>
<line stroke="blue" x1="-24.999999999999943" x2="937.5" y1="846.4101615137757" y2="564.951905283833"/>
<line stroke="blue" x1="-24.999999999999943" x2="225.00000000000006" y1="846.4101615137757" y2="846.4101615137755"/>
<line stroke="blue" x1="-24.999999999999943" x2="337.4999999999998" y1="846.4101615137757" y2="88.63793320239174"/>
<line stroke="blue" x1="-24.999999999999943" x2="937.5" y1="846.4101615137757" y2="564.951905283833"/>
<line stroke="blue" x1="-24.999999999999943" x2="225.00000000000006" y1="846.4101615137757" y2="846.4101615137755"/>
<line stroke="blue" x1="-49.99999999999994" x2="250.00000000000006" y1="846.4101615137757" y2="846.4101615137755"/>
<line stroke="blue" x1="-49.99999999999994" x2="324.9999999999998" y1="846.4101615137757" y2="110.28856829700271"/>
<line stroke="blue" x1="-49.99999999999994" x2="925" y1="846.4101615137757" y2="543.3012701892219"/>
<line stroke="blue" x1="-49.99999999999994" x2="250.00000000000006" y1="846.4101615137757" y2="846.4101615137755"/>
<line stroke="blue" x1="-49.99999999999994" x2="324.9999999999998" y1="846.4101615137757" y2="110.28856829700271"/>
<line stroke="blue" x1="-49.99999999999994" x2="925" y1="846.4101615137757" y2="543.3012701892219"/>
<line stroke="blue" x1="-49.99999999999994" x2="250.00000000000006" y1="846.4101615137757" y2="846.4101615137755"/>
<line stroke="blue" x1="-49.99999999999994" x2="324.9999999999998" y1="846.4101615137757" y2="110.28856829700271"/>
<line stroke="blue" x1="-49.99999999999994" x2="925" y1="846.4101615137757" y2="543.3012701892219"/>
<line stroke="blue" x1="-49.99999999999994" x2="250.00000000000006" y1="846.4101615137757" y2="846.4101615137755"/>
<line stroke="blue" x1="-49.99999999999994" x2="324.9999999999998" y1="846.4101615137757" y2="110.28856829700271"/>
<line stroke="blue" x1="-49.99999999999994" x2="925" y1="846.4101615137757" y2="543.3012701892219"/>
<line stroke="blue" x1="-49.99999999999994" x2="250.00000000000006" y1="846.4101615137757" y2="846.4101615137755"/>
<line stroke="blue" x1="-49.99999999999994" x2="324.9999999999998" y1="846.4101615137757" y2="110.28856829700271"/>
<line stroke="blue" x1="-49.99999999999994" x2="925" y1="846.4101615137757" y2="543.3012701892219"/>
<line stroke="blue" x1="-49.99999999999994" x2="250.00000000000006" y1="846.4101615137757" y2="846.4101615137755"/>
<line stroke="blue" x1="-74.99999999999994" x2="275.00000000000006" y1="846.4101615137757" y2="846.4101615137755"/>
<line stroke="blue" x1="-74.99999999999994" x2="312.49999999999983" y1="846.4101615137757" y2="131.9392033916137"/>
<line stroke="blue" x1="-74.99999999999994" x2="912.5" y1="846.4101615137757" y2="521.650635094611"/>
<line stroke="blue" x1="-74.99999999999994" x2="275.00000000000006" y1="846.4101615137757" y2="846.4101615137755"/>
<line stroke="blue" x1="-74.99999999999994" x2="312.49999999999983" y1="846.4101615137757" y2="131.9392033916137"/>
<line stroke="blue" x1="-74.99999999999994" x2="912.5" y1="846.4101615137757" y2="521.650635094611"/>
<line stroke="blue" x1="-74.99999999999994" x2="275.00000000000006" y1="846.4101615137757" y2="846.4101615137755"/>
<line stroke="blue" x1="-74.99999999999994" x2="312.49999999999983" y1="846.4101615137757" y2="131.9392033916137"/>
<line stroke="blue" x1="-74.99999999999994" x2="912.5" y1="846.4101615137757" y2="521.650635094611"/>
<line stroke="blue" x1="-74.99999999999994" x2="275.00000000000006" y1="846.4101615137757" y2="846.4101615137755"/>
<line stroke="blue" x1="-74.99999999999994" x2="312.49999999999983" y1="846.4101615137757" y2="131.9392033916137"/>
<line stroke="blue" x1="-74.99999999999994" x2="912.5" y1="846.4101615137757" y2="521.650635094611"/>
<line stroke="blue" x1="-74.99999999999994" x2="275.00000000000006" y1="846.4101615137757" y2="846.4101615137755"/>
<line stroke="blue" x1="-74.99999999999994" x2="312.49999999999983" y1="846.4101615137757" y2="131.9392033916137"/>
<line stroke="blue" x1="-74.99999999999994" x2="912.5" y1="846.4101615137757" y2="521.650635094611"/>
<line stroke="blue" x1="-74.99999999999994" x2="275.00000000000006" y1="846.4101615137757" y2="846.4101615137755"/>
<line stroke="blue" x1="299.99999999999983" x2="299.99999999999983" y1="153.58983848622466" y2="153.58983848622466"/>
<line stroke="blue" x1="299.99999999999983" x2="900" y1="153.58983848622466" y2="500"/>
<line stroke="blue" x1="299.99999999999983" x2="300.00000000000006" y1="153.58983848622466" y2="846.4101615137755"/>
<line stroke="blue" x1="299.99999999999983" x2="299.99999999999983" y1="153.58983848622466" y2="153.58983848622466"/>
<line stroke="blue" x1="299.99999999999983" x2="900" y1="153.58983848622466" y2="500"/>
<line stroke="blue" x1="299.99999999999983" x2="300.00000000000006" y1="153.58983848622466" y2="846.4101615137755"/>
<line stroke="blue" x1="299.99999999999983" x2="299.99999999999983" y1="153.58983848622466" y2="153.58983848622466"/>
<line stroke="blue" x1="299.99999999999983" x2="900" y1="153.58983848622466" y2="500"/>
<line stroke="blue" x1="299.99999999999983" x2="300.00000000000006" y1="153.58983848622466" y2="846.4101615137755"/>
<line stroke="blue" x1="299.99999999999983" x2="299.99999999999983" y1="153.58983848622466" y2="153.58983848622466"/>
<line stroke="blue" x1="299.99999999999983" x2="900" y1="153.58983848622466" y2="500"/>
<line stroke="blue" x1="299.99999999999983" x2="300.00000000000006" y1="153.58983848622466" y2="846.4101615137755"/>
<line stroke="blue" x1="299.99999999999983" x2="299.99999999999983" y1="153.58983848622466" y2="153.58983848622466"/>
<line stroke="blue" x1="299.99999999999983" x2="900" y1="153.58983848622466" y2="500"/>
<line stroke="blue" x1="299.99999999999983" x2="300.00000000000006" y1="153.58983848622466" y2="846.4101615137755"/>
<line stroke="blue" x1="299.99999999999983" x2="299.99999999999983" y1="153.58983848622466" y2="153.58983848622466"/>
<line stroke="blue" x1="312.49999999999983" x2="487.49999999999955" y1="131.9392033916137" y2="-171.16968793293995"/>
<line stroke="blue" x1="312.49999999999983" x2="1087.5" y1="131.9392033916137" y2="824.7595264191646"/>
<line stroke="blue" x1="312.49999999999983" x2="-74.99999999999994" y1="131.9392033916137" y2="846.4101615137757"/>
<line stroke="blue" x1="312.49999999999983" x2="487.49999999999955" y1="131.9392033916137" y2="-171.16968793293995"/>
<line stroke="blue" x1="312.49999999999983" x2="1087.5" y1="131.9392033916137" y2="824.7595264191646"/>
<line stroke="blue" x1="312.49999999999983" x2="-74.99999999999994" y1="131.9392033916137" y2="846.4101615137757"/>
<line stroke="blue" x1="312.49999999999983" x2="487.49999999999955" y1="131.9392033916137" y2="-171.16968793293995"/>
<line stroke="blue" x1="312.49999999999983" x2="1087.5" y1="131.9392033916137" y2="824.7595264191646"/>
<line stroke="blue" x1="312.49999999999983" x2="-74.99999999999994" y1="131.9392033916137" y2="846.4101615137757"/>
<line stroke="blue" x1="312.49999999999983" x2="487.49999999999955" y1="131.9392033916137" y2="-171.16968793293995"/>
<line stroke="blue" x1="312.49999999999983" x2="1087.5" y1="131.9392033916137" y2="824.7595264191646"/>
<line stroke="blue" x1="312.49999999999983" x2="-74.99999999999994" y1="131.9392033916137" y2="846.4101615137757"/>
<line stroke="blue" x1="312.49999999999983" x2="487.49999999999955" y1="131.9392033916137" y2="-171.16968793293995"/>
<line stroke="blue" x1="312.49999999999983" x2="1087.5" y1="131.9392033916137" y2="824.7595264191646"/>
<line stroke="blue" x1="312.49999999999983" x2="-74.99999999999994" y1="131.9392033916137" y2="846.4101615137757"/>
<line stroke="blue" x1="312.49999999999983" x2="487.49999999999955" y1="131.9392033916137" y2="-171.16968793293995"/>
<line stroke="blue" x1="324.9999999999998" x2="474.9999999999996" y1="110.28856829700271" y2="-149.519052838329"/>
<line stroke="blue" x1="324.9999999999998" x2="1075" y1="110.28856829700271" y2="803.1088913245535"/>
<line stroke="blue" x1="324.9999999999998" x2="-49.99999999999994" y1="110.28856829700271" y2="846.4101615137757"/>
<line stroke="blue" x1="324.9999999999998" x2="474.9999999999996" y1="110.28856829700271" y2="-149.519052838329"/>
<line stroke="blue" x1="324.9999999999998" x2="1075" y1="110.28856829700271" y2="803.1088913245535"/>
<line stroke="blue" x1="324.9999999999998" x2="-49.99999999999994" y1="110.28856829700271" y2="846.4101615137757"/>
<line stroke="blue" x1="324.9999999999998" x2="474.9999999999996" y1="110.28856829700271" y2="-149.519052838329"/>
<line stroke="blue" x1="324.9999999999998" x2="1075" y1="110.28856829700271" y2="803.1088913245535"/>
<line stroke="blue" x1="324.9999999999998" x2="-49.99999999999994" y1="110.28856829700271" y2="846.4101615137757"/>
<line stroke="blue" x1="324.9999999999998" x2="474.9999999999996" y1="110.28856829700271" y2="-149.519052838329"/>
<line stroke="blue" x1="324.9999999999998" x2="1075" y1="110.28856829700271" y2="803.1088913245535"/>
<line stroke="blue" x1="324.9999999999998" x2="-49.99999999999994" y1="110.28856829700271" y2="846.4101615137757"/>
<line stroke="blue" x1="324.9999999999998" x2="474.9999999999996" y1="110.28856829700271" y2="-149.519052838329"/>
<line stroke="blue" x1="324.9999999999998" x2="1075" y1="110.28856829700271" y2="803.1088913245535"/>
<line stroke="blue" x1="324.9999999999998" x2="-49.99999999999994" y1="110.28856829700271" y2="846.4101615137757"/>
<line stroke="blue" x1="324.9999999999998" x2="474.9999999999996" y1="110.28856829700271" y2="-149.519052838329"/>
<line stroke="blue" x1="337.4999999999998" x2="462.4999999999996" y1="88.63793320239174" y2="-127.868417743718"/>
<line stroke="blue" x1="337.4999999999998" x2="1062.5" y1="88.63793320239174" y2="781.4582562299427"/>
<line stroke="blue" x1="337.4999999999998" x2="-24.999999999999943" y1="88.63793320239174" y2="846.4101615137757"/>
<line stroke="blue" x1="337.4999999999998" x2="462.4999999999996" y1="88.63793320239174" y2="-127.868417743718"/>
<line stroke="blue" x1="337.4999999999998" x2="1062.5" y1="88.63793320239174" y2="781.4582562299427"/>
<line stroke="blue" x1="337.4999999999998" x2="-24.999999999999943" y1="88.63793320239174" y2="846.4101615137757"/>
<line stroke="blue" x1="337.4999999999998" x2="462.4999999999996" y1="88.63793320239174" y2="-127.868417743718"/>
<line stroke="blue" x1="337.4999999999998" x2="1062.5" y1="88.63793320239174" y2="781.4582562299427"/>
<line stroke="blue" x1="337.4999999999998" x2="-24.999999999999943" y1="88.63793320239174" y2="846.4101615137757"/>
<line stroke="blue" x1="337.4999999999998" x2="462.4999999999996" y1="88.63793320239174" y2="-127.868417743718"/>
<line stroke="blue" x1="337.4999999999998" x2="1062.5" y1="88.63793320239174" y2="781.4582562299427"/>
<line stroke="blue" x1="337.4999999999998" x2="-24.999999999999943" y1="88.63793320239174" y2="846.4101615137757"/>
<line stroke="blue" x1="337.4999999999998" x2="462.4999999999996" y1="88.63793320239174" y2="-127.868417743718"/>
<line stroke="blue" x1="337.4999999999998" x2="1062.5" y1="88.63793320239174" y2="781.4582562299427"/>
<line stroke="blue" x1="337.4999999999998" x2="-24.999999999999943" y1="88.63793320239174" y2="846.4101615137757"/>
<line stroke="blue" x1="337.4999999999998" x2="462.4999999999996" y1="88.63793320239174" y2="-127.868417743718"/>
<line stroke="blue" x1="349.9999999999998" x2="449.99999999999966" y1="66.98729810778076" y2="-106.21778264910705"/>
<line stroke="blue" x1="349.9999999999998" x2="1050" y1="66.98729810778076" y2="759.8076211353316"/>
<line stroke="blue" x1="349.9999999999998" x2="0.00000000000005684341886080802" y1="66.98729810778076" y2="846.4101615137756"/>
<line stroke="blue" x1="349.9999999999998" x2="449.99999999999966" y1="66.98729810778076" y2="-106.21778264910705"/>
<line stroke="blue" x1="349.9999999999998" x2="1050" y1="66.98729810778076" y2="759.8076211353316"/>
<line stroke="blue" x1="349.9999999999998" x2="0.00000000000005684341886080802" y1="66.98729810778076" y2="846.4101615137756"/>
<line stroke="blue" x1="349.9999999999998" x2="449.99999999999966" y1="66.98729810778076" y2="-106.21778264910705"/>
<line stroke="blue" x1="349.9999999999998" x2="1050" y1="66.98729810778076" y2="759.8076211353316"/>
<line stroke="blue" x1="349.9999999999998" x2="0.00000000000005684341886080802" y1="66.98729810778076" y2="846.4101615137756"/>
<line stroke="blue" x1="349.9999999999998" x2="449.99999999999966" y1="66.98729810778076" y2="-106.21778264910705"/>
<line stroke="blue" x1="349.9999999999998" x2="1050" y1="66.98729810778076" y2="759.8076211353316"/>
<line stroke="blue" x1="349.9999999999998" x2="0.00000000000005684341886080802" y1="66.98729810778076" y2="846.4101615137756"/>
<line stroke="blue" x1="349.9999999999998" x2="449.99999999999966" y1="66.98729810778076" y2="-106.21778264910705"/>
<line stroke="blue" x1="349.9999999999998" x2="1050" y1="66.98729810778076" y2="759.8076211353316"/>
<line stroke="blue" x1="349.9999999999998" x2="0.00000000000005684341886080802" y1="66.98729810778076" y2="846.4101615137756"/>
<line stroke="blue" x1="349.9999999999998" x2="449.99999999999966" y1="66.98729810778076" y2="-106.21778264910705"/>
<line stroke="blue" x1="362.4999999999998" x2="437.49999999999966" y1="45.33666301316978" y2="-84.56714755449607"/>
<line stroke="blue" x1="362.4999999999998" x2="1037.5" y1="45.33666301316978" y2="738.1569860407207"/>
<line stroke="blue" x1="362.4999999999998" x2="25.000000000000057" y1="45.33666301316978" y2="846.4101615137756"/>
<line stroke="blue" x1="362.4999999999998" x2="437.49999999999966" y1="45.33666301316978" y2="-84.56714755449607"/>
<line stroke="blue" x1="362.4999999999998" x2="1037.5" y1="45.33666301316978" y2="738.1569860407207"/>
<line stroke="blue" x1="362.4999999999998" x2="25.000000000000057" y1="45.33666301316978" y2="846.4101615137756"/>
<line stroke="blue" x1="362.4999999999998" x2="437.49999999999966" y1="45.33666301316978" y2="-84.56714755449607"/>
<line stroke="blue" x1="362.4999999999998" x2="1037.5" y1="45.33666301316978" y2="738.1569860407207"/>
<line stroke="blue" x1="362.4999999999998" x2="25.000000000000057" y1="45.33666301316978" y2="846.4101615137756"/>
<line stroke="blue" x1="362.4999999999998" x2="437.49999999999966" y1="45.33666301316978" y2="-84.56714755449607"/>
<line stroke="blue" x1="362.4999999999998" x2="1037.5" y1="45.33666301316978" y2="738.1569860407207"/>
<line stroke="blue" x1="362.4999999999998" x2="25.000000000000057" y1="45.33666301316978" y2="846.4101615137756"/>
<line stroke="blue" x1="362.4999999999998" x2="437.49999999999966" y1="45.33666301316978" y2="-84.56714755449607"/>
<line stroke="blue" x1="362.4999999999998" x2="1037.5" y1="45.33666301316978" y2="738.1569860407207"/>
<line stroke="blue" x1="362.4999999999998" x2="25.000000000000057" y1="45.33666301316978" y2="846.4101615137756"/>
<line stroke="blue" x1="362.4999999999998" x2="437.49999999999966" y1="45.33666301316978" y2="-84.56714755449607"/>
<line stroke="blue" x1="374.9999999999997" x2="424.99999999999966" y1="23.686027918558807" y2="-62.9165124598851"/>
<line stroke="blue" x1="374.9999999999997" x2="1025" y1="23.686027918558807" y2="716.5063509461097"/>
<line stroke="blue" x1="374.9999999999997" x2="50.00000000000006" y1="23.686027918558807" y2="846.4101615137756"/>
<line stroke="blue" x1="374.9999999999997" x2="424.99999999999966" y1="23.686027918558807" y2="-62.9165124598851"/>
<line stroke="blue" x1="374.9999999999997" x2="1025" y1="23.686027918558807" y2="716.5063509461097"/>
<line stroke="blue" x1="374.9999999999997" x2="50.00000000000006" y1="23.686027918558807" y2="846.4101615137756"/>
<line stroke="blue" x1="374.9999999999997" x2="424.99999999999966" y1="23.686027918558807" y2="-62.9165124598851"/>
<line stroke="blue" x1="374.9999999999997" x2="1025" y1="23.686027918558807" y2="716.5063509461097"/>
<line stroke="blue" x1="374.9999999999997" x2="50.00000000000006" y1="23.686027918558807" y2="846.4101615137756"/>
<line stroke="blue" x1="374.9999999999997" x2="424.99999999999966" y1="23.686027918558807" y2="-62.9165124598851"/>
<line stroke="blue" x1="374.9999999999997" x2="1025" y1="23.686027918558807" y2="716.5063509461097"/>
<line stroke="blue" x1="374.9999999999997" x2="50.00000000000006" y1="23.686027918558807" y2="846.4101615137756"/>
<line stroke="blue" x1="374.9999999999997" x2="424.99999999999966" y1="23.686027918558807" y2="-62.9165124598851"/>
<line stroke="blue" x1="374.9999999999997" x2="1025" y1="23.686027918558807" y2="716.5063509461097"/>
<line stroke="blue" x1="374.9999999999997" x2="50.00000000000006" y1="23.686027918558807" y2="846.4101615137756"/>
<line stroke="blue" x1="374.9999999999997" x2="424.99999999999966" y1="23.686027918558807" y2="-62.9165124598851"/>
<line stroke="blue" x1="387.4999999999997" x2="412.49999999999966" y1="2.0353928239478307" y2="-41.26587736527412"/>
<line stroke="blue" x1="387.4999999999997" x2="1012.5" y1="2.0353928239478307" y2="694.8557158514986"/>
<line stroke="blue" x1="387.4999999999997" x2="75.00000000000006" y1="2.0353928239478307" y2="846.4101615137756"/>
<line stroke="blue" x1="387.4999999999997" x2="412.49999999999966" y1="2.0353928239478307" y2="-41.26587736527412"/>
<line stroke="blue" x1="387.4999999999997" x2="1012.5" y1="2.0353928239478307" y2="694.8557158514986"/>
<line stroke="blue" x1="387.4999999999997" x2="75.00000000000006" y1="2.0353928239478307" y2="846.4101615137756"/>
<line stroke="blue" x1="387.4999999999997" x2="412.49999999999966" y1="2.0353928239478307" y2="-41.26587736527412"/>
<line stroke="blue" x1="387.4999999999997" x2="1012.5" y1="2.0353928239478307" y2="694.8557158514986"/>
<line stroke="blue" x1="387.4999999999997" x2="75.00000000000006" y1="2.0353928239478307" y2="846.4101615137756"/>
<line stroke="blue" x1="387.4999999999997" x2="412.49999999999966" y1="2.0353928239478307" y2="-41.26587736527412"/>
<line stroke="blue" x1="387.4999999999997" x2="1012.5" y1="2.0353928239478307" y2="694.8557158514986"/>
<line stroke="blue" x1="387.4999999999997" x2="75.00000000000006" y1="2.0353928239478307" y2="846.4101615137756"/>
<line stroke="blue" x1="387.4999999999997" x2="412.49999999999966" y1="2.0353928239478307" y2="-41.26587736527412"/>
<line stroke="blue" x1="387.4999999999997" x2="1012.5" y1="2.0353928239478307" y2="694.8557158514986"/>
<line stroke="blue" x1="387.4999999999997" x2="75.00000000000006" y1="2.0353928239478307" y2="846.4101615137756"/>
<line stroke="blue" x1="387.4999999999997" x2="412.49999999999966" y1="2.0353928239478307" y2="-41.26587736527412"/>
<line stroke="blue" x1="399.9999999999997" x2="399.9999999999997" y1="-19.615242270663146" y2="-19.615242270663146"/>
<line stroke="blue" x1="399.9999999999997" x2="1000" y1="-19.615242270663146" y2="673.2050807568878"/>
<line stroke="blue" x1="399.9999999999997" x2="100.00000000000006" y1="-19.615242270663146" y2="846.4101615137756"/>
<line stroke="blue" x1="399.9999999999997" x2="399.9999999999997" y1="-19.615242270663146" y2="-19.615242270663146"/>
<line stroke="blue" x1="399.9999999999997" x2="1000" y1="-19.615242270663146" y2="673.2050807568878"/>
<line stroke="blue" x1="399.9999999999997" x2="100.00000000000006" y1="-19.615242270663146" y2="846.4101615137756"/>
<line stroke="blue" x1="399.9999999999997" x2="399.9999999999997" y1="-19.615242270663146" y2="-19.615242270663146"/>
<line stroke="blue" x1="399.9999999999997" x2="1000" y1="-19.615242270663146" y2="673.2050807568878"/>
<line stroke="blue" x1="399.9999999999997" x2="100.00000000000006" y1="-19.615242270663146" y2="846.4101615137756"/>
<line stroke="blue" x1="399.9999999999997" x2="399.9999999999997" y1="-19.615242270663146" y2="-19.615242270663146"/>
<line stroke="blue" x1="399.9999999999997" x2="1000" y1="-19.615242270663146" y2="673.2050807568878"/>
<line stroke="blue" x1="399.9999999999997" x2="100.00000000000006" y1="-19.615242270663146" y2="846.4101615137756"/>
<line stroke="blue" x1="399.9999999999997" x2="399.9999999999997" y1="-19.615242270663146" y2="-19.615242270663146"/>
<line stroke="blue" x1="399.9999999999997" x2="1000" y1="-19.615242270663146" y2="673.2050807568878"/>
<line stroke="blue" x1="399.9999999999997" x2="100.00000000000006" y1="-19.615242270663146" y2="846.4101615137756"/>
<line stroke="blue" x1="399.9999999999997" x2="399.9999999999997" y1="-19.615242270663146" y2="-19.615242270663146"/>
<line stroke="blue" x1="412.49999999999966" x2="387.4999999999997" y1="-41.26587736527412" y2="2.0353928239478307"/>
<line stroke="blue" x1="412.49999999999966" x2="987.5" y1="-41.26587736527412" y2="651.5544456622767"/>
<line stroke="blue" x1="412.49999999999966" x2="125.00000000000006" y1="-41.26587736527412" y2="846.4101615137756"/>
<line stroke="blue" x1="412.49999999999966" x2="387.4999999999997" y1="-41.26587736527412" y2="2.0353928239478307"/>
<line stroke="blue" x1="412.49999999999966" x2="987.5" y1="-41.26587736527412" y2="651.5544456622767"/>
<line stroke="blue" x1="412.49999999999966" x2="125.00000000000006" y1="-41.26587736527412" y2="846.4101615137756"/>
<line stroke="blue" x1="412.49999999999966" x2="387.4999999999997" y1="-41.26587736527412" y2="2.0353928239478307"/>
<line stroke="blue" x1="412.49999999999966" x2="987.5" y1="-41.26587736527412" y2="651.5544456622767"/>
<line stroke="blue" x1="412.49999999999966" x2="125.00000000000006" y1="-41.26587736527412" y2="846.4101615137756"/>
<line stroke="blue" x1="412.49999999999966" x2="387.4999999999997" y1="-41.26587736527412" y2="2.0353928239478307"/>
<line stroke="blue" x1="412.49999999999966" x2="987.5" y1="-41.26587736527412" y2="651.5544456622767"/>
<line stroke="blue" x1="412.49999999999966" x2="125.00000000000006" y1="-41.26587736527412" y2="846.4101615137756"/>
<line stroke="blue" x1="412.49999999999966" x2="387.4999999999997" y1="-41.26587736527412" y2="2.0353928239478307"/>
<line stroke="blue" x1="412.49999999999966" x2="987.5" y1="-41.26587736527412" y2="651.5544456622767"/>
<line stroke="blue" x1="412.49999999999966" x2="125.00000000000006" y1="-41.26587736527412" y2="846.4101615137756"/>
<line stroke="blue" x1="412.49999999999966" x2="387.4999999999997" y1="-41.26587736527412" y2="2.0353928239478307"/>
<line stroke="blue" x1="424.99999999999966" x2="374.9999999999997" y1="-62.9165124598851" y2="23.686027918558807"/>
<line stroke="blue" x1="424.99999999999966" x2="975" y1="-62.9165124598851" y2="629.9038105676658"/>
<line stroke="blue" x1="424.99999999999966" x2="150.00000000000006" y1="-62.9165124598851" y2="846.4101615137756"/>
<line stroke="blue" x1="424.99999999999966" x2="374.9999999999997" y1="-62.9165124598851" y2="23.686027918558807"/>
<line stroke="blue" x1="424.99999999999966" x2="975" y1="-62.9165124598851" y2="629.9038105676658"/>
<line stroke="blue" x1="424.99999999999966" x2="150.00000000000006" y1="-62.9165124598851" y2="846.4101615137756"/>
<line stroke="blue" x1="424.99999999999966" x2="374.9999999999997" y1="-62.9165124598851" y2="23.686027918558807"/>
<line stroke="blue" x1="424.99999999999966" x2="975" y1="-62.9165124598851" y2="629.9038105676658"/>
<line stroke="blue" x1="424.99999999999966" x2="150.00000000000006" y1="-62.9165124598851" y2="846.4101615137756"/>
<line stroke="blue" x1="424.99999999999966" x2="374.9999999999997" y1="-62.9165124598851" y2="23.686027918558807"/>
<line stroke="blue" x1="424.99999999999966" x2="975" y1="-62.9165124598851" y2="629.9038105676658"/>
<line stroke="blue" x1="424.99999999999966" x2="150.00000000000006" y1="-62.9165124598851" y2="846.4101615137756"/>
<line stroke="blue" x1="424.99999999999966" x2="374.9999999999997" y1="-62.9165124598851" y2="23.686027918558807"/>
<line stroke="blue" x1="424.99999999999966" x2="975" y1="-62.9165124598851" y2="629.9038105676658"/>
<line stroke="blue" x1="424.99999999999966" x2="150.00000000000006" y1="-62.9165124598851" y2="846.4101615137756"/>
<line stroke="blue" x1="424.99999999999966" x2="374.9999999999997" y1="-62.9165124598851" y2="23.686027918558807"/>
<line stroke="blue" x1="437.49999999999966" x2="362.4999999999998" y1="-84.56714755449607" y2="45.33666301316978"/>
<line stroke="blue" x1="437.49999999999966" x2="962.5" y1="-84.56714755449607" y2="608.2531754730549"/>
<line stroke="blue" x1="437.49999999999966" x2="175.00000000000006" y1="-84.56714755449607" y2="846.4101615137756"/>
<line stroke="blue" x1="437.49999999999966" x2="362.4999999999998" y1="-84.56714755449607" y2="45.33666301316978"/>
<line stroke="blue" x1="437.49999999999966" x2="962.5" y1="-84.56714755449607" y2="608.2531754730549"/>
<line stroke="blue" x1="437.49999999999966" x2="175.00000000000006" y1="-84.56714755449607" y2="846.4101615137756"/>
<line stroke="blue" x1="437.49999999999966" x2="362.4999999999998" y1="-84.56714755449607" y2="45.33666301316978"/>
<line stroke="blue" x1="437.49999999999966" x2="962.5" y1="-84.56714755449607" y2="608.2531754730549"/>
<line stroke="blue" x1="437.49999999999966" x2="175.00000000000006" y1="-84.56714755449607" y2="846.4101615137756"/>
<line stroke="blue" x1="437.49999999999966" x2="362.4999999999998" y1="-84.56714755449607" y2="45.33666301316978"/>
<line stroke="blue" x1="437.49999999999966" x2="962.5" y1="-84.56714755449607" y2="608.2531754730549"/>
<line stroke="blue" x1="437.49999999999966" x2="175.00000000000006" y1="-84.56714755449607" y2="846.4101615137756"/>
<line stroke="blue" x1="437.49999999999966" x2="362.4999999999998" y1="-84.56714755449607" y2="45.33666301316978"/>
<line stroke="blue" x1="437.49999999999966" x2="962.5" y1="-84.56714755449607" y2="608.2531754730549"/>
<line stroke="blue" x1="437.49999999999966" x2="175.00000000000006" y1="-84.56714755449607" y2="846.4101615137756"/>
<line stroke="blue" x1="437.49999999999966" x2="362.4999999999998" y1="-84.56714755449607" y2="45.33666301316978"/>
<line stroke="blue" x1="449.99999999999966" x2="349.9999999999998" y1="-106.21778264910705" y2="66.98729810778076"/>
<line stroke="blue" x1="449.99999999999966" x2="950" y1="-106.21778264910705" y2="586.6025403784439"/>
<line stroke="blue" x1="449.99999999999966" x2="200.00000000000006" y1="-106.21778264910705" y2="846.4101615137755"/>
<line stroke="blue" x1="449.99999999999966" x2="349.9999999999998" y1="-106.21778264910705" y2="66.98729810778076"/>
<line stroke="blue" x1="449.99999999999966" x2="950" y1="-106.21778264910705" y2="586.6025403784439"/>
<line stroke="blue" x1="449.99999999999966" x2="200.00000000000006" y1="-106.21778264910705" y2="846.4101615137755"/>
<line stroke="blue" x1="449.99999999999966" x2="349.9999999999998" y1="-106.21778264910705" y2="66.98729810778076"/>
<line stroke="blue" x1="449.99999999999966" x2="950" y1="-106.21778264910705" y2="586.6025403784439"/>
<line stroke="blue" x1="449.99999999999966" x2="200.00000000000006" y1="-106.21778264910705" y2="846.4101615137755"/>
<line stroke="blue" x1="449.99999999999966" x2="349.9999999999998" y1="-106.21778264910705" y2="66.98729810778076"/>
<line stroke="blue" x1="449.99999999999966" x2="950" y1="-106.21778264910705" y2="586.6025403784439"/>
<line stroke="blue" x1="449.99999999999966" x2="200.00000000000006" y1="-106.21778264910705" y2="846.4101615137755"/>
<line stroke="blue" x1="449.99999999999966" x2="349.9999999999998" y1="-106.21778264910705" y2="66.98729810778076"/>
<line stroke="blue" x1="449.99999999999966" x2="950" y1="-106.21778264910705" y2="586.6025403784439"/>
<line stroke="blue" x1="449.99999999999966" x2="200.00000000000006" y1="-106.21778264910705" y2="846.4101615137755"/>
<line stroke="blue" x1="449.99999999999966" x2="349.9999999999998" y1="-106.21778264910705" y2="66.98729810778076"/>
<line stroke="blue" x1="462.4999999999996" x2="337.4999999999998" y1="-127.868417743718" y2="88.63793320239174"/>
<line stroke="blue" x1="462.4999999999996" x2="937.5" y1="-127.868417743718" y2="564.951905283833"/>
<line stroke="blue" x1="462.4999999999996" x2="225.00000000000006" y1="-127.868417743718" y2="846.4101615137755"/>
<line stroke="blue" x1="462.4999999999996" x2="337.4999999999998" y1="-127.868417743718" y2="88.63793320239174"/>
<line stroke="blue" x1="462.4999999999996" x2="937.5" y1="-127.868417743718" y2="564.951905283833"/>
<line stroke="blue" x1="462.4999999999996" x2="225.00000000000006" y1="-127.868417743718" y2="846.4101615137755"/>
<line stroke="blue" x1="462.4999999999996" x2="337.4999999999998" y1="-127.868417743718" y2="88.63793320239174"/>
<line stroke="blue" x1="462.4999999999996" x2="937.5" y1="-127.868417743718" y2="564.951905283833"/>
<line stroke="blue" x1="462.4999999999996" x2="225.00000000000006" y1="-127.868417743718" y2="846.4101615137755"/>
<line stroke="blue" x1="462.4999999999996" x2="337.4999999999998" y1="-127.868417743718" y2="88.63793320239174"/>
<line stroke="blue" x1="462.4999999999996" x2="937.5" y1="-127.868417743718" y2="564.951905283833"/>
<line stroke="blue" x1="462.4999999999996" x2="225.00000000000006" y1="-127.868417743718" y2="846.4101615137755"/>
<line stroke="blue" x1="462.4999999999996" x2="337.4999999999998" y1="-127.868417743718" y2="88.63793320239174"/>
<line stroke="blue" x1="462.4999999999996" x2="937.5" y1="-127.868417743718" y2="564.951905283833"/>
<line stroke="blue" x1="462.4999999999996" x2="225.00000000000006" y1="-127.868417743718" y2="846.4101615137755"/>
<line stroke="blue" x1="462.4999999999996" x2="337.4999999999998" y1="-127.868417743718" y2="88.63793320239174"/>
<line stroke="blue" x1="474.9999999999996" x2="324.9999999999998" y1="-149.519052838329" y2="110.28856829700271"/>
<line stroke="blue" x1="474.9999999999996" x2="925" y1="-149.519052838329" y2="543.3012701892219"/>
<line stroke="blue" x1="474.9999999999996" x2="250.00000000000006" y1="-149.519052838329" y2="846.4101615137755"/>
<line stroke="blue" x1="474.9999999999996" x2="324.9999999999998" y1="-149.519052838329" y2="110.28856829700271"/>
<line stroke="blue" x1="474.9999999999996" x2="925" y1="-149.519052838329" y2="543.3012701892219"/>
<line stroke="blue" x1="474.9999999999996" x2="250.00000000000006" y1="-149.519052838329" y2="846.4101615137755"/>
<line stroke="blue" x1="474.9999999999996" x2="324.9999999999998" y1="-149.519052838329" y2="110.28856829700271"/>
<line stroke="blue" x1="474.9999999999996" x2="925" y1="-149.519052838329" y2="543.3012701892219"/>
<line stroke="blue" x1="474.9999999999996" x2="250.00000000000006" y1="-149.519052838329" y2="846.4101615137755"/>
<line stroke="blue" x1="474.9999999999996" x2="324.9999999999998" y1="-149.519052838329" y2="110.28856829700271"/>
<line stroke="blue" x1="474.9999999999996" x2="925" y1="-149.519052838329" y2="543.3012701892219"/>
<line stroke="blue" x1="474.9999999999996" x2="250.00000000000006" y1="-149.519052838329" y2="846.4101615137755"/>
<line stroke="blue" x1="474.9999999999996" x2="324.9999999999998" y1="-149.519052838329" y2="110.28856829700271"/>
<line stroke="blue" x1="474.9999999999996" x2="925" y1="-149.519052838329" y2="543.3012701892219"/>
<line stroke="blue" x1="474.9999999999996" x2="250.00000000000006" y1="-149.519052838329" y2="846.4101615137755"/>
<line stroke="blue" x1="474.9999999999996" x2="324.9999999999998" y1="-149.519052838329" y2="110.28856829700271"/>
<line stroke="blue" x1="487.49999999999955" x2="312.49999999999983" y1="-171.16968793293995" y2="131.9392033916137"/>
<line stroke="blue" x1="487.49999999999955" x2="912.5" y1="-171.16968793293995" y2="521.650635094611"/>
<line stroke="blue" x1="487.49999999999955" x2="275.00000000000006" y1="-171.16968793293995" y2="846.4101615137755"/>
<line stroke="blue" x1="487.49999999999955" x2="312.49999999999983" y1="-171.16968793293995" y2="131.9392033916137"/>
<line stroke="blue" x1="487.49999999999955" x2="912.5" y1="-171.16968793293995" y2="521.650635094611"/>
<line stroke="blue" x1="487.49999999999955" x2="275.00000000000006" y1="-171.16968793293995" y2="846.4101615137755"/>
<line stroke="blue" x1="487.49999999999955" x2="312.49999999999983" y1="-171.16968793293995" y2="131.9392033916137"/>
<line stroke="blue" x1="487.49999999999955" x2="912.5" y1="-171.16968793293995" y2="521.650635094611"/>
<line stroke="blue" x1="487.49999999999955" x2="275.00000000000006" y1="-171.16968793293995" y2="846.4101615137755"/>
<line stroke="blue" x1="487.49999999999955" x2="312.49999999999983" y1="-171.16968793293995" y2="131.9392033916137"/>
<line stroke="blue" x1="487.49999999999955" x2="912.5" y1="-171.16968793293995" y2="521.650635094611"/>
<line stroke="blue" x1="487.49999999999955" x2="275.00000000000006" y1="-171.16968793293995" y2="846.4101615137755"/>
<line stroke="blue" x1="487.49999999999955" x2="312.49999999999983" y1="-171.16968793293995" y2="131.9392033916137"/>
<line stroke="blue" x1="487.49999999999955" x2="912.5" y1="-171.16968793293995" y2="521.650635094611"/>
<line stroke="blue" x1="487.49999999999955" x2="275.00000000000006" y1="-171.16968793293995" y2="846.4101615137755"/>
<line stroke="blue" x1="487.49999999999955" x2="312.49999999999983" y1="-171.16968793293995" y2="131.9392033916137"/>
</svg>