<svg viewBox="0 0 1000 1000" xmlns="http://www.w3.org/2000/svg">
<path d="M900,500 L300,846.41016 L300,153.58984 L900,500 z" fill="none" stroke="green" stroke-width="1"/>
<line stroke="blue" x1="900" x2="900" y1="500" y2="500"/>
<line stroke="blue" x1="900" x2="300.00000000000006" y1="500" y2="846.4101615137755"/>
<line stroke="blue" x1="900" x2="299.99999999999983" y1="500" y2="153.58983848622466"/>
<line stroke="blue" x1="600" x2="450" y1="673.2050807568878" y2="759.8076211353316"/>
<line stroke="blue" x1="600" x2="299.9999999999999" y1="673.2050807568878" y2="326.7949192431124"/>
<line stroke="blue" x1="600" x2="750" y1="673.2050807568878" y2="413.3974596215561"/>
<line stroke="blue" x1="750" x2="750" y1="586.6025403784439" y2="586.6025403784439"/>
<line stroke="blue" x1="750" x2="300" y1="586.6025403784439" y2="673.2050807568878"/>
<line stroke="blue" x1="750" x2="449.9999999999999" y1="586.6025403784439" y2="240.19237886466848"/>
<line stroke="blue" x1="450" x2="600" y1="759.8076211353316" y2="673.2050807568878"/>
<line stroke="blue" x1="450" x2="299.99999999999994" y1="759.8076211353316" y2="500.0000000000001"/>
<line stroke="blue" x1="450" x2="600" y1="759.8076211353316" y2="326.7949192431123"/>
<line stroke="blue" x1="300.00000000000006" x2="300.00000000000006" y1="846.4101615137755" y2="846.4101615137755"/>
<line stroke="blue" x1="300.00000000000006" x2="299.99999999999983" y1="846.4101615137755" y2="153.58983848622466"/>
<line stroke="blue" x1="300.00000000000006" x2="900" y1="846.4101615137755" y2="500"/>
<line stroke="blue" x1="299.99999999999994" x2="299.9999999999999" y1="500.0000000000001" y2="326.7949192431124"/>
<line stroke="blue" x1="299.99999999999994" x2="750" y1="500.0000000000001" y2="413.3974596215561"/>
<line stroke="blue" x1="299.99999999999994" x2="450" y1="500.0000000000001" y2="759.8076211353316"/>
<line stroke="blue" x1="300" x2="300" y1="673.2050807568878" y2="673.2050807568878"/>
<line stroke="blue" x1="300" x2="449.9999999999999" y1="673.2050807568878" y2="240.19237886466848"/>
<line stroke="blue" x1="300" x2="750" y1="673.2050807568878" y2="586.6025403784439"/>
<line stroke="blue" x1="299.9999999999999" x2="299.99999999999994" y1="326.7949192431124" y2="500.0000000000001"/>
<line stroke="blue" x1="299.9999999999999" x2="600" y1="326.7949192431124" y2="326.7949192431123"/>
<line stroke="blue" x1="299.9999999999999" x2="600" y1="326.7949192431124" y2="673.2050807568878"/>
<line stroke="blue" x1="299.99999999999983" x2="299.99999999999983" y1="153.58983848622466" y2="153.58983848622466"/>
<line stroke="blue" x1="299.99999999999983" x2="900" y1="153.58983848622466" y2="500"/>
<line stroke="blue" x1="299.99999999999983" x2="300.00000000000006" y1="153.58983848622466" y2="846.4101615137755"/>
<line stroke="blue" x1="600" x2="750" y1="326.7949192431123" y2="413.3974596215561"/>
<line stroke="blue" x1="600" x2="450" y1="326.7949192431123" y2="759.8076211353316"/>
<line stroke="blue" x1="600" x2="299.9999999999999" y1="326.7949192431123" y2="326.7949192431124"/>
<line stroke="blue" x1="449.9999999999999" x2="449.9999999999999" y1="240.19237886466848" y2="240.19237886466848"/>
<line stroke="blue" x1="449.9999999999999" x2="750" y1="240.19237886466848" y2="586.6025403784439"/>
<line stroke="blue" x1="449.9999999999999" x2="300" y1="240.19237886466848" y2="673.2050807568878"/>
<line stroke="blue" x1="750" x2="600" y1="413.3974596215561" y2="326.7949192431123"/>
<line stroke="blue" x1="750" x2="600" y1="413.3974596215561" y2="673.2050807568878"/>
<line stroke="blue" x1="750" x2="299.99999999999994" y1="413.3974596215561" y2="500.0000000000001"/>
</svg>