<svg viewBox="0 0 1000 1000" xmlns="http://www.w3.org/2000/svg">
<path d="M900,500 L623.6068,880.4226 L176.3932,735.1141 L176.3932,264.8859 L623.6068,119.57739 L900,500 z" fill="none" stroke="green" stroke-width="1"/>
<line stroke="blue" x1="900" x2="900" y1="500" y2="500"/>
<line stroke="blue" x1="900" x2="623.606797749979" y1="500" y2="880.4226065180615"/>
<line stroke="blue" x1="900" x2="176.3932022500211" y1="500" y2="735.1141009169893"/>
<line stroke="blue" x1="900" x2="176.39320225002103" y1="500" y2="264.8858990830108"/>
<line stroke="blue" x1="900" x2="623.6067977499789" y1="500" y2="119.57739348193854"/>
<line stroke="blue" x1="900" x2="761.8033988749895" y1="500" y2="690.2113032590307"/>
<line stroke="blue" x1="900" x2="400.00000000000006" y1="500" y2="807.7683537175253"/>
<line stroke="blue" x1="900" x2="176.39320225002106" y1="500" y2="500.00000000000006"/>
<line stroke="blue" x1="900" x2="400" y1="500" y2="192.23164628247468"/>
<line stroke="blue" x1="900" x2="761.8033988749894" y1="500" y2="309.7886967409692"/>
<line stroke="blue" x1="900" x2="830.9016994374947" y1="500" y2="595.1056516295154"/>
<line stroke="blue" x1="900" x2="511.8033988749895" y1="500" y2="844.0954801177934"/>
<line stroke="blue" x1="900" x2="176.3932022500211" y1="500" y2="617.5570504584947"/>
<line stroke="blue" x1="900" x2="288.1966011250105" y1="500" y2="228.55877268274276"/>
<line stroke="blue" x1="900" x2="692.7050983124841" y1="500" y2="214.68304511145388"/>
<line stroke="blue" x1="900" x2="692.7050983124843" y1="500" y2="785.3169548885461"/>
<line stroke="blue" x1="900" x2="288.1966011250106" y1="500" y2="771.4412273172572"/>
<line stroke="blue" x1="900" x2="176.39320225002103" y1="500" y2="382.4429495415054"/>
<line stroke="blue" x1="900" x2="511.80339887498945" y1="500" y2="155.9045198822066"/>
<line stroke="blue" x1="900" x2="830.9016994374947" y1="500" y2="404.8943483704845"/>
<line stroke="blue" x1="761.8033988749895" x2="900" y1="690.2113032590307" y2="500"/>
<line stroke="blue" x1="761.8033988749895" x2="623.606797749979" y1="690.2113032590307" y2="880.4226065180615"/>
<line stroke="blue" x1="761.8033988749895" x2="176.3932022500211" y1="690.2113032590307" y2="735.1141009169893"/>
<line stroke="blue" x1="761.8033988749895" x2="176.39320225002103" y1="690.2113032590307" y2="264.8858990830108"/>
<line stroke="blue" x1="761.8033988749895" x2="623.6067977499789" y1="690.2113032590307" y2="119.57739348193854"/>
<line stroke="blue" x1="761.8033988749895" x2="761.8033988749895" y1="690.2113032590307" y2="690.2113032590307"/>
<line stroke="blue" x1="761.8033988749895" x2="400.00000000000006" y1="690.2113032590307" y2="807.7683537175253"/>
<line stroke="blue" x1="761.8033988749895" x2="176.39320225002106" y1="690.2113032590307" y2="500.00000000000006"/>
<line stroke="blue" x1="761.8033988749895" x2="400" y1="690.2113032590307" y2="192.23164628247468"/>
<line stroke="blue" x1="761.8033988749895" x2="761.8033988749894" y1="690.2113032590307" y2="309.7886967409692"/>
<line stroke="blue" x1="761.8033988749895" x2="830.9016994374947" y1="690.2113032590307" y2="595.1056516295154"/>
<line stroke="blue" x1="761.8033988749895" x2="511.8033988749895" y1="690.2113032590307" y2="844.0954801177934"/>
<line stroke="blue" x1="761.8033988749895" x2="176.3932022500211" y1="690.2113032590307" y2="617.5570504584947"/>
<line stroke="blue" x1="761.8033988749895" x2="288.1966011250105" y1="690.2113032590307" y2="228.55877268274276"/>
<line stroke="blue" x1="761.8033988749895" x2="692.7050983124841" y1="690.2113032590307" y2="214.68304511145388"/>
<line stroke="blue" x1="761.8033988749895" x2="692.7050983124843" y1="690.2113032590307" y2="785.3169548885461"/>
<line stroke="blue" x1="761.8033988749895" x2="288.1966011250106" y1="690.2113032590307" y2="771.4412273172572"/>
<line stroke="blue" x1="761.8033988749895" x2="176.39320225002103" y1="690.2113032590307" y2="382.4429495415054"/>
<line stroke="blue" x1="761.8033988749895" x2="511.80339887498945" y1="690.2113032590307" y2="155.9045198822066"/>
<line stroke="blue" x1="761.8033988749895" x2="830.9016994374947" y1="690.2113032590307" y2="404.8943483704845"/>
<line stroke="blue" x1="830.9016994374947" x2="900" y1="595.1056516295154" y2="500"/>
<line stroke="blue" x1="830.9016994374947" x2="623.606797749979" y1="595.1056516295154" y2="880.4226065180615"/>
<line stroke="blue" x1="830.9016994374947" x2="176.3932022500211" y1="595.1056516295154" y2="735.1141009169893"/>
<line stroke="blue" x1="830.9016994374947" x2="176.39320225002103" y1="595.1056516295154" y2="264.8858990830108"/>
<line stroke="blue" x1="830.9016994374947" x2="623.6067977499789" y1="595.1056516295154" y2="119.57739348193854"/>
<line stroke="blue" x1="830.9016994374947" x2="761.8033988749895" y1="595.1056516295154" y2="690.2113032590307"/>
<line stroke="blue" x1="830.9016994374947" x2="400.00000000000006" y1="595.1056516295154" y2="807.7683537175253"/>
<line stroke="blue" x1="830.9016994374947" x2="176.39320225002106" y1="595.1056516295154" y2="500.00000000000006"/>
<line stroke="blue" x1="830.9016994374947" x2="400" y1="595.1056516295154" y2="192.23164628247468"/>
<line stroke="blue" x1="830.9016994374947" x2="761.8033988749894" y1="595.1056516295154" y2="309.7886967409692"/>
<line stroke="blue" x1="830.9016994374947" x2="830.9016994374947" y1="595.1056516295154" y2="595.1056516295154"/>
<line stroke="blue" x1="830.9016994374947" x2="511.8033988749895" y1="595.1056516295154" y2="844.0954801177934"/>
<line stroke="blue" x1="830.9016994374947" x2="176.3932022500211" y1="595.1056516295154" y2="617.5570504584947"/>
<line stroke="blue" x1="830.9016994374947" x2="288.1966011250105" y1="595.1056516295154" y2="228.55877268274276"/>
<line stroke="blue" x1="830.9016994374947" x2="692.7050983124841" y1="595.1056516295154" y2="214.68304511145388"/>
<line stroke="blue" x1="830.9016994374947" x2="692.7050983124843" y1="595.1056516295154" y2="785.3169548885461"/>
<line stroke="blue" x1="830.9016994374947" x2="288.1966011250106" y1="595.1056516295154" y2="771.4412273172572"/>
<line stroke="blue" x1="830.9016994374947" x2="176.39320225002103" y1="595.1056516295154" y2="382.4429495415054"/>
<line stroke="blue" x1="830.9016994374947" x2="511.80339887498945" y1="595.1056516295154" y2="155.9045198822066"/>
<line stroke="blue" x1="830.9016994374947" x2="830.9016994374947" y1="595.1056516295154" y2="404.8943483704845"/>
<line stroke="blue" x1="692.7050983124843" x2="900" y1="785.3169548885461" y2="500"/>
<line stroke="blue" x1="692.7050983124843" x2="623.606797749979" y1="785.3169548885461" y2="880.4226065180615"/>
<line stroke="blue" x1="692.7050983124843" x2="176.3932022500211" y1="785.3169548885461" y2="735.1141009169893"/>
<line stroke="blue" x1="692.7050983124843" x2="176.39320225002103" y1="785.3169548885461" y2="264.8858990830108"/>
<line stroke="blue" x1="692.7050983124843" x2="623.6067977499789" y1="785.3169548885461" y2="119.57739348193854"/>
<line stroke="blue" x1="692.7050983124843" x2="761.8033988749895" y1="785.3169548885461" y2="690.2113032590307"/>
<line stroke="blue" x1="692.7050983124843" x2="400.00000000000006" y1="785.3169548885461" y2="807.7683537175253"/>
<line stroke="blue" x1="692.7050983124843" x2="176.39320225002106" y1="785.3169548885461" y2="500.00000000000006"/>
<line stroke="blue" x1="692.7050983124843" x2="400" y1="785.3169548885461" y2="192.23164628247468"/>
<line stroke="blue" x1="692.7050983124843" x2="761.8033988749894" y1="785.3169548885461" y2="309.7886967409692"/>
<line stroke="blue" x1="692.7050983124843" x2="830.9016994374947" y1="785.3169548885461" y2="595.1056516295154"/>
<line stroke="blue" x1="692.7050983124843" x2="511.8033988749895" y1="785.3169548885461" y2="844.0954801177934"/>
<line stroke="blue" x1="692.7050983124843" x2="176.3932022500211" y1="785.3169548885461" y2="617.5570504584947"/>
<line stroke="blue" x1="692.7050983124843" x2="288.1966011250105" y1="785.3169548885461" y2="228.55877268274276"/>
<line stroke="blue" x1="692.7050983124843" x2="692.7050983124841" y1="785.3169548885461" y2="214.68304511145388"/>
<line stroke="blue" x1="692.7050983124843" x2="692.7050983124843" y1="785.3169548885461" y2="785.3169548885461"/>
<line stroke="blue" x1="692.7050983124843" x2="288.1966011250106" y1="785.3169548885461" y2="771.4412273172572"/>
<line stroke="blue" x1="692.7050983124843" x2="176.39320225002103" y1="785.3169548885461" y2="382.4429495415054"/>
<line stroke="blue" x1="692.7050983124843" x2="511.80339887498945" y1="785.3169548885461" y2="155.9045198822066"/>
<line stroke="blue" x1="692.7050983124843" x2="830.9016994374947" y1="785.3169548885461" y2="404.8943483704845"/>
<line stroke="blue" x1="623.606797749979" x2="900" y1="880.4226065180615" y2="500"/>
<line stroke="blue" x1="623.606797749979" x2="623.606797749979" y1="880.4226065180615" y2="880.4226065180615"/>
<line stroke="blue" x1="623.606797749979" x2="176.3932022500211" y1="880.4226065180615" y2="735.1141009169893"/>
<line stroke="blue" x1="623.606797749979" x2="176.39320225002103" y1="880.4226065180615" y2="264.8858990830108"/>
<line stroke="blue" x1="623.606797749979" x2="623.6067977499789" y1="880.4226065180615" y2="119.57739348193854"/>
<line stroke="blue" x1="623.606797749979" x2="761.8033988749895" y1="880.4226065180615" y2="690.2113032590307"/>
<line stroke="blue" x1="623.606797749979" x2="400.00000000000006" y1="880.4226065180615" y2="807.7683537175253"/>
<line stroke="blue" x1="623.606797749979" x2="176.39320225002106" y1="880.4226065180615" y2="500.00000000000006"/>
<line stroke="blue" x1="623.606797749979" x2="400" y1="880.4226065180615" y2="192.23164628247468"/>
<line stroke="blue" x1="623.606797749979" x2="761.8033988749894" y1="880.4226065180615" y2="309.7886967409692"/>
<line stroke="blue" x1="623.606797749979" x2="830.9016994374947" y1="880.4226065180615" y2="595.1056516295154"/>
<line stroke="blue" x1="623.606797749979" x2="511.8033988749895" y1="880.4226065180615" y2="844.0954801177934"/>
<line stroke="blue" x1="623.606797749979" x2="176.3932022500211" y1="880.4226065180615" y2="617.5570504584947"/>
<line stroke="blue" x1="623.606797749979" x2="288.1966011250105" y1="880.4226065180615" y2="228.55877268274276"/>
<line stroke="blue" x1="623.606797749979" x2="692.7050983124841" y1="880.4226065180615" y2="214.68304511145388"/>
<line stroke="blue" x1="623.606797749979" x2="692.7050983124843" y1="880.4226065180615" y2="785.3169548885461"/>
<line stroke="blue" x1="623.606797749979" x2="288.1966011250106" y1="880.4226065180615" y2="771.4412273172572"/>
<line stroke="blue" x1="623.606797749979" x2="176.39320225002103" y1="880.4226065180615" y2="382.4429495415054"/>
<line stroke="blue" x1="623.606797749979" x2="511.80339887498945" y1="880.4226065180615" y2="155.9045198822066"/>
<line stroke="blue" x1="623.606797749979" x2="830.9016994374947" y1="880.4226065180615" y2="404.8943483704845"/>
<line stroke="blue" x1="400.00000000000006" x2="900" y1="807.7683537175253" y2="500"/>
<line stroke="blue" x1="400.00000000000006" x2="623.606797749979" y1="807.7683537175253" y2="880.4226065180615"/>
<line stroke="blue" x1="400.00000000000006" x2="176.3932022500211" y1="807.7683537175253" y2="735.1141009169893"/>
<line stroke="blue" x1="400.00000000000006" x2="176.39320225002103" y1="807.7683537175253" y2="264.8858990830108"/>
<line stroke="blue" x1="400.00000000000006" x2="623.6067977499789" y1="807.7683537175253" y2="119.57739348193854"/>
<line stroke="blue" x1="400.00000000000006" x2="761.8033988749895" y1="807.7683537175253" y2="690.2113032590307"/>
<line stroke="blue" x1="400.00000000000006" x2="400.00000000000006" y1="807.7683537175253" y2="807.7683537175253"/>
<line stroke="blue" x1="400.00000000000006" x2="176.39320225002106" y1="807.7683537175253" y2="500.00000000000006"/>
<line stroke="blue" x1="400.00000000000006" x2="400" y1="807.7683537175253" y2="192.23164628247468"/>
<line stroke="blue" x1="400.00000000000006" x2="761.8033988749894" y1="807.7683537175253" y2="309.7886967409692"/>
<line stroke="blue" x1="400.00000000000006" x2="830.9016994374947" y1="807.7683537175253" y2="595.1056516295154"/>
<line stroke="blue" x1="400.00000000000006" x2="511.8033988749895" y1="807.7683537175253" y2="844.0954801177934"/>
<line stroke="blue" x1="400.00000000000006" x2="176.3932022500211" y1="807.7683537175253" y2="617.5570504584947"/>
<line stroke="blue" x1="400.00000000000006" x2="288.1966011250105" y1="807.7683537175253" y2="228.55877268274276"/>
<line stroke="blue" x1="400.00000000000006" x2="692.7050983124841" y1="807.7683537175253" y2="214.68304511145388"/>
<line stroke="blue" x1="400.00000000000006" x2="692.7050983124843" y1="807.7683537175253" y2="785.3169548885461"/>
<line stroke="blue" x1="400.00000000000006" x2="288.1966011250106" y1="807.7683537175253" y2="771.4412273172572"/>
<line stroke="blue" x1="400.00000000000006" x2="176.39320225002103" y1="807.7683537175253" y2="382.4429495415054"/>
<line stroke="blue" x1="400.00000000000006" x2="511.80339887498945" y1="807.7683537175253" y2="155.9045198822066"/>
<line stroke="blue" x1="400.00000000000006" x2="830.9016994374947" y1="807.7683537175253" y2="404.8943483704845"/>
<line stroke="blue" x1="511.8033988749895" x2="900" y1="844.0954801177934" y2="500"/>
<line stroke="blue" x1="511.8033988749895" x2="623.606797749979" y1="844.0954801177934" y2="880.4226065180615"/>
<line stroke="blue" x1="511.8033988749895" x2="176.3932022500211" y1="844.0954801177934" y2="735.1141009169893"/>
<line stroke="blue" x1="511.8033988749895" x2="176.39320225002103" y1="844.0954801177934" y2="264.8858990830108"/>
<line stroke="blue" x1="511.8033988749895" x2="623.6067977499789" y1="844.0954801177934" y2="119.57739348193854"/>
<line stroke="blue" x1="511.8033988749895" x2="761.8033988749895" y1="844.0954801177934" y2="690.2113032590307"/>
<line stroke="blue" x1="511.8033988749895" x2="400.00000000000006" y1="844.0954801177934" y2="807.7683537175253"/>
<line stroke="blue" x1="511.8033988749895" x2="176.39320225002106" y1="844.0954801177934" y2="500.00000000000006"/>
<line stroke="blue" x1="511.8033988749895" x2="400" y1="844.0954801177934" y2="192.23164628247468"/>
<line stroke="blue" x1="511.8033988749895" x2="761.8033988749894" y1="844.0954801177934" y2="309.7886967409692"/>
<line stroke="blue" x1="511.8033988749895" x2="830.9016994374947" y1="844.0954801177934" y2="595.1056516295154"/>
<line stroke="blue" x1="511.8033988749895" x2="511.8033988749895" y1="844.0954801177934" y2="844.0954801177934"/>
<line stroke="blue" x1="511.8033988749895" x2="176.3932022500211" y1="844.0954801177934" y2="617.5570504584947"/>
<line stroke="blue" x1="511.8033988749895" x2="288.1966011250105" y1="844.0954801177934" y2="228.55877268274276"/>
<line stroke="blue" x1="511.8033988749895" x2="692.7050983124841" y1="844.0954801177934" y2="214.68304511145388"/>
<line stroke="blue" x1="511.8033988749895" x2="692.7050983124843" y1="844.0954801177934" y2="785.3169548885461"/>
<line stroke="blue" x1="511.8033988749895" x2="288.1966011250106" y1="844.0954801177934" y2="771.4412273172572"/>
<line stroke="blue" x1="511.8033988749895" x2="176.39320225002103" y1="844.0954801177934" y2="382.4429495415054"/>
<line stroke="blue" x1="511.8033988749895" x2="511.80339887498945" y1="844.0954801177934" y2="155.9045198822066"/>
<line stroke="blue" x1="511.8033988749895" x2="830.9016994374947" y1="844.0954801177934" y2="404.8943483704845"/>
<line stroke="blue" x1="288.1966011250106" x2="900" y1="771.4412273172572" y2="500"/>
<line stroke="blue" x1="288.1966011250106" x2="623.606797749979" y1="771.4412273172572" y2="880.4226065180615"/>
<line stroke="blue" x1="288.1966011250106" x2="176.3932022500211" y1="771.4412273172572" y2="735.1141009169893"/>
<line stroke="blue" x1="288.1966011250106" x2="176.39320225002103" y1="771.4412273172572" y2="264.8858990830108"/>
<line stroke="blue" x1="288.1966011250106" x2="623.6067977499789" y1="771.4412273172572" y2="119.57739348193854"/>
<line stroke="blue" x1="288.1966011250106" x2="761.8033988749895" y1="771.4412273172572" y2="690.2113032590307"/>
<line stroke="blue" x1="288.1966011250106" x2="400.00000000000006" y1="771.4412273172572" y2="807.7683537175253"/>
<line stroke="blue" x1="288.1966011250106" x2="176.39320225002106" y1="771.4412273172572" y2="500.00000000000006"/>
<line stroke="blue" x1="288.1966011250106" x2="400" y1="771.4412273172572" y2="192.23164628247468"/>
<line stroke="blue" x1="288.1966011250106" x2="761.8033988749894" y1="771.4412273172572" y2="309.7886967409692"/>
<line stroke="blue" x1="288.1966011250106" x2="830.9016994374947" y1="771.4412273172572" y2="595.1056516295154"/>
<line stroke="blue" x1="288.1966011250106" x2="511.8033988749895" y1="771.4412273172572" y2="844.0954801177934"/>
<line stroke="blue" x1="288.1966011250106" x2="176.3932022500211" y1="771.4412273172572" y2="617.5570504584947"/>
<line stroke="blue" x1="288.1966011250106" x2="288.1966011250105" y1="771.4412273172572" y2="228.55877268274276"/>
<line stroke="blue" x1="288.1966011250106" x2="692.7050983124841" y1="771.4412273172572" y2="214.68304511145388"/>
<line stroke="blue" x1="288.1966011250106" x2="692.7050983124843" y1="771.4412273172572" y2="785.3169548885461"/>
<line stroke="blue" x1="288.1966011250106" x2="288.1966011250106" y1="771.4412273172572" y2="771.4412273172572"/>
<line stroke="blue" x1="288.1966011250106" x2="176.39320225002103" y1="771.4412273172572" y2="382.4429495415054"/>
<line stroke="blue" x1="288.1966011250106" x2="511.80339887498945" y1="771.4412273172572" y2="155.9045198822066"/>
<line stroke="blue" x1="288.1966011250106" x2="830.9016994374947" y1="771.4412273172572" y2="404.8943483704845"/>
<line stroke="blue" x1="176.3932022500211" x2="900" y1="735.1141009169893" y2="500"/>
<line stroke="blue" x1="176.3932022500211" x2="623.606797749979" y1="735.1141009169893" y2="880.4226065180615"/>
<line stroke="blue" x1="176.3932022500211" x2="176.3932022500211" y1="735.1141009169893" y2="735.1141009169893"/>
<line stroke="blue" x1="176.3932022500211" x2="176.39320225002103" y1="735.1141009169893" y2="264.8858990830108"/>
<line stroke="blue" x1="176.3932022500211" x2="623.6067977499789" y1="735.1141009169893" y2="119.57739348193854"/>
<line stroke="blue" x1="176.3932022500211" x2="761.8033988749895" y1="735.1141009169893" y2="690.2113032590307"/>
<line stroke="blue" x1="176.3932022500211" x2="400.00000000000006" y1="735.1141009169893" y2="807.7683537175253"/>
<line stroke="blue" x1="176.3932022500211" x2="176.39320225002106" y1="735.1141009169893" y2="500.00000000000006"/>
<line stroke="blue" x1="176.3932022500211" x2="400" y1="735.1141009169893" y2="192.23164628247468"/>
<line stroke="blue" x1="176.3932022500211" x2="761.8033988749894" y1="735.1141009169893" y2="309.7886967409692"/>
<line stroke="blue" x1="176.3932022500211" x2="830.9016994374947" y1="735.1141009169893" y2="595.1056516295154"/>
<line stroke="blue" x1="176.3932022500211" x2="511.8033988749895" y1="735.1141009169893" y2="844.0954801177934"/>
<line stroke="blue" x1="176.3932022500211" x2="176.3932022500211" y1="735.1141009169893" y2="617.5570504584947"/>
<line stroke="blue" x1="176.3932022500211" x2="288.1966011250105" y1="735.1141009169893" y2="228.55877268274276"/>
<line stroke="blue" x1="176.3932022500211" x2="692.7050983124841" y1="735.1141009169893" y2="214.68304511145388"/>
<line stroke="blue" x1="176.3932022500211" x2="692.7050983124843" y1="735.1141009169893" y2="785.3169548885461"/>
<line stroke="blue" x1="176.3932022500211" x2="288.1966011250106" y1="735.1141009169893" y2="771.4412273172572"/>
<line stroke="blue" x1="176.3932022500211" x2="176.39320225002103" y1="735.1141009169893" y2="382.4429495415054"/>
<line stroke="blue" x1="176.3932022500211" x2="511.80339887498945" y1="735.1141009169893" y2="155.9045198822066"/>
<line stroke="blue" x1="176.3932022500211" x2="830.9016994374947" y1="735.1141009169893" y2="404.8943483704845"/>
<line stroke="blue" x1="176.39320225002106" x2="900" y1="500.00000000000006" y2="500"/>
<line stroke="blue" x1="176.39320225002106" x2="623.606797749979" y1="500.00000000000006" y2="880.4226065180615"/>
<line stroke="blue" x1="176.39320225002106" x2="176.3932022500211" y1="500.00000000000006" y2="735.1141009169893"/>
<line stroke="blue" x1="176.39320225002106" x2="176.39320225002103" y1="500.00000000000006" y2="264.8858990830108"/>
<line stroke="blue" x1="176.39320225002106" x2="623.6067977499789" y1="500.00000000000006" y2="119.57739348193854"/>
<line stroke="blue" x1="176.39320225002106" x2="761.8033988749895" y1="500.00000000000006" y2="690.2113032590307"/>
<line stroke="blue" x1="176.39320225002106" x2="400.00000000000006" y1="500.00000000000006" y2="807.7683537175253"/>
<line stroke="blue" x1="176.39320225002106" x2="176.39320225002106" y1="500.00000000000006" y2="500.00000000000006"/>
<line stroke="blue" x1="176.39320225002106" x2="400" y1="500.00000000000006" y2="192.23164628247468"/>
<line stroke="blue" x1="176.39320225002106" x2="761.8033988749894" y1="500.00000000000006" y2="309.7886967409692"/>
<line stroke="blue" x1="176.39320225002106" x2="830.9016994374947" y1="500.00000000000006" y2="595.1056516295154"/>
<line stroke="blue" x1="176.39320225002106" x2="511.8033988749895" y1="500.00000000000006" y2="844.0954801177934"/>
<line stroke="blue" x1="176.39320225002106" x2="176.3932022500211" y1="500.00000000000006" y2="617.5570504584947"/>
<line stroke="blue" x1="176.39320225002106" x2="288.1966011250105" y1="500.00000000000006" y2="228.55877268274276"/>
<line stroke="blue" x1="176.39320225002106" x2="692.7050983124841" y1="500.00000000000006" y2="214.68304511145388"/>
<line stroke="blue" x1="176.39320225002106" x2="692.7050983124843" y1="500.00000000000006" y2="785.3169548885461"/>
<line stroke="blue" x1="176.39320225002106" x2="288.1966011250106" y1="500.00000000000006" y2="771.4412273172572"/>
<line stroke="blue" x1="176.39320225002106" x2="176.39320225002103" y1="500.00000000000006" y2="382.4429495415054"/>
<line stroke="blue" x1="176.39320225002106" x2="511.80339887498945" y1="500.00000000000006" y2="155.9045198822066"/>
<line stroke="blue" x1="176.39320225002106" x2="830.9016994374947" y1="500.00000000000006" y2="404.8943483704845"/>
<line stroke="blue" x1="176.3932022500211" x2="900" y1="617.5570504584947" y2="500"/>
<line stroke="blue" x1="176.3932022500211" x2="623.606797749979" y1="617.5570504584947" y2="880.4226065180615"/>
<line stroke="blue" x1="176.3932022500211" x2="176.3932022500211" y1="617.5570504584947" y2="735.1141009169893"/>
<line stroke="blue" x1="176.3932022500211" x2="176.39320225002103" y1="617.5570504584947" y2="264.8858990830108"/>
<line stroke="blue" x1="176.3932022500211" x2="623.6067977499789" y1="617.5570504584947" y2="119.57739348193854"/>
<line stroke="blue" x1="176.3932022500211" x2="761.8033988749895" y1="617.5570504584947" y2="690.2113032590307"/>
<line stroke="blue" x1="176.3932022500211" x2="400.00000000000006" y1="617.5570504584947" y2="807.7683537175253"/>
<line stroke="blue" x1="176.3932022500211" x2="176.39320225002106" y1="617.5570504584947" y2="500.00000000000006"/>
<line stroke="blue" x1="176.3932022500211" x2="400" y1="617.5570504584947" y2="192.23164628247468"/>
<line stroke="blue" x1="176.3932022500211" x2="761.8033988749894" y1="617.5570504584947" y2="309.7886967409692"/>
<line stroke="blue" x1="176.3932022500211" x2="830.9016994374947" y1="617.5570504584947" y2="595.1056516295154"/>
<line stroke="blue" x1="176.3932022500211" x2="511.8033988749895" y1="617.5570504584947" y2="844.0954801177934"/>
<line stroke="blue" x1="176.3932022500211" x2="176.3932022500211" y1="617.5570504584947" y2="617.5570504584947"/>
<line stroke="blue" x1="176.3932022500211" x2="288.1966011250105" y1="617.5570504584947" y2="228.55877268274276"/>
<line stroke="blue" x1="176.3932022500211" x2="692.7050983124841" y1="617.5570504584947" y2="214.68304511145388"/>
<line stroke="blue" x1="176.3932022500211" x2="692.7050983124843" y1="617.5570504584947" y2="785.3169548885461"/>
<line stroke="blue" x1="176.3932022500211" x2="288.1966011250106" y1="617.5570504584947" y2="771.4412273172572"/>
<line stroke="blue" x1="176.3932022500211" x2="176.39320225002103" y1="617.5570504584947" y2="382.4429495415054"/>
<line stroke="blue" x1="176.3932022500211" x2="511.80339887498945" y1="617.5570504584947" y2="155.9045198822066"/>
<line stroke="blue" x1="176.3932022500211" x2="830.9016994374947" y1="617.5570504584947" y2="404.8943483704845"/>
<line stroke="blue" x1="176.39320225002103" x2="900" y1="382.4429495415054" y2="500"/>
<line stroke="blue" x1="176.39320225002103" x2="623.606797749979" y1="382.4429495415054" y2="880.4226065180615"/>
<line stroke="blue" x1="176.39320225002103" x2="176.3932022500211" y1="382.4429495415054" y2="735.1141009169893"/>
<line stroke="blue" x1="176.39320225002103" x2="176.39320225002103" y1="382.4429495415054" y2="264.8858990830108"/>
<line stroke="blue" x1="176.39320225002103" x2="623.6067977499789" y1="382.4429495415054" y2="119.57739348193854"/>
<line stroke="blue" x1="176.39320225002103" x2="761.8033988749895" y1="382.4429495415054" y2="690.2113032590307"/>
<line stroke="blue" x1="176.39320225002103" x2="400.00000000000006" y1="382.4429495415054" y2="807.7683537175253"/>
<line stroke="blue" x1="176.39320225002103" x2="176.39320225002106" y1="382.4429495415054" y2="500.00000000000006"/>
<line stroke="blue" x1="176.39320225002103" x2="400" y1="382.4429495415054" y2="192.23164628247468"/>
<line stroke="blue" x1="176.39320225002103" x2="761.8033988749894" y1="382.4429495415054" y2="309.7886967409692"/>
<line stroke="blue" x1="176.39320225002103" x2="830.9016994374947" y1="382.4429495415054" y2="595.1056516295154"/>
<line stroke="blue" x1="176.39320225002103" x2="511.8033988749895" y1="382.4429495415054" y2="844.0954801177934"/>
<line stroke="blue" x1="176.39320225002103" x2="176.3932022500211" y1="382.4429495415054" y2="617.5570504584947"/>
<line stroke="blue" x1="176.39320225002103" x2="288.1966011250105" y1="382.4429495415054" y2="228.55877268274276"/>
<line stroke="blue" x1="176.39320225002103" x2="692.7050983124841" y1="382.4429495415054" y2="214.68304511145388"/>
<line stroke="blue" x1="176.39320225002103" x2="692.7050983124843" y1="382.4429495415054" y2="785.3169548885461"/>
<line stroke="blue" x1="176.39320225002103" x2="288.1966011250106" y1="382.4429495415054" y2="771.4412273172572"/>
<line stroke="blue" x1="176.39320225002103" x2="176.39320225002103" y1="382.4429495415054" y2="382.4429495415054"/>
<line stroke="blue" x1="176.39320225002103" x2="511.80339887498945" y1="382.4429495415054" y2="155.9045198822066"/>
<line stroke="blue" x1="176.39320225002103" x2="830.9016994374947" y1="382.4429495415054" y2="404.8943483704845"/>
<line stroke="blue" x1="176.39320225002103" x2="900" y1="264.8858990830108" y2="500"/>
<line stroke="blue" x1="176.39320225002103" x2="623.606797749979" y1="264.8858990830108" y2="880.4226065180615"/>
<line stroke="blue" x1="176.39320225002103" x2="176.3932022500211" y1="264.8858990830108" y2="735.1141009169893"/>
<line stroke="blue" x1="176.39320225002103" x2="176.39320225002103" y1="264.8858990830108" y2="264.8858990830108"/>
<line stroke="blue" x1="176.39320225002103" x2="623.6067977499789" y1="264.8858990830108" y2="119.57739348193854"/>
<line stroke="blue" x1="176.39320225002103" x2="761.8033988749895" y1="264.8858990830108" y2="690.2113032590307"/>
<line stroke="blue" x1="176.39320225002103" x2="400.00000000000006" y1="264.8858990830108" y2="807.7683537175253"/>
<line stroke="blue" x1="176.39320225002103" x2="176.39320225002106" y1="264.8858990830108" y2="500.00000000000006"/>
<line stroke="blue" x1="176.39320225002103" x2="400" y1="264.8858990830108" y2="192.23164628247468"/>
<line stroke="blue" x1="176.39320225002103" x2="761.8033988749894" y1="264.8858990830108" y2="309.7886967409692"/>
<line stroke="blue" x1="176.39320225002103" x2="830.9016994374947" y1="264.8858990830108" y2="595.1056516295154"/>
<line stroke="blue" x1="176.39320225002103" x2="511.8033988749895" y1="264.8858990830108" y2="844.0954801177934"/>
<line stroke="blue" x1="176.39320225002103" x2="176.3932022500211" y1="264.8858990830108" y2="617.5570504584947"/>
<line stroke="blue" x1="176.39320225002103" x2="288.1966011250105" y1="264.8858990830108" y2="228.55877268274276"/>
<line stroke="blue" x1="176.39320225002103" x2="692.7050983124841" y1="264.8858990830108" y2="214.68304511145388"/>
<line stroke="blue" x1="176.39320225002103" x2="692.7050983124843" y1="264.8858990830108" y2="785.3169548885461"/>
<line stroke="blue" x1="176.39320225002103" x2="288.1966011250106" y1="264.8858990830108" y2="771.4412273172572"/>
<line stroke="blue" x1="176.39320225002103" x2="176.39320225002103" y1="264.8858990830108" y2="382.4429495415054"/>
<line stroke="blue" x1="176.39320225002103" x2="511.80339887498945" y1="264.8858990830108" y2="155.9045198822066"/>
<line stroke="blue" x1="176.39320225002103" x2="830.9016994374947" y1="264.8858990830108" y2="404.8943483704845"/>
<line stroke="blue" x1="400" x2="900" y1="192.23164628247468" y2="500"/>
<line stroke="blue" x1="400" x2="623.606797749979" y1="192.23164628247468" y2="880.4226065180615"/>
<line stroke="blue" x1="400" x2="176.3932022500211" y1="192.23164628247468" y2="735.1141009169893"/>
<line stroke="blue" x1="400" x2="176.39320225002103" y1="192.23164628247468" y2="264.8858990830108"/>
<line stroke="blue" x1="400" x2="623.6067977499789" y1="192.23164628247468" y2="119.57739348193854"/>
<line stroke="blue" x1="400" x2="761.8033988749895" y1="192.23164628247468" y2="690.2113032590307"/>
<line stroke="blue" x1="400" x2="400.00000000000006" y1="192.23164628247468" y2="807.7683537175253"/>
<line stroke="blue" x1="400" x2="176.39320225002106" y1="192.23164628247468" y2="500.00000000000006"/>
<line stroke="blue" x1="400" x2="400" y1="192.23164628247468" y2="192.23164628247468"/>
<line stroke="blue" x1="400" x2="761.8033988749894" y1="192.23164628247468" y2="309.7886967409692"/>
<line stroke="blue" x1="400" x2="830.9016994374947" y1="192.23164628247468" y2="595.1056516295154"/>
<line stroke="blue" x1="400" x2="511.8033988749895" y1="192.23164628247468" y2="844.0954801177934"/>
<line stroke="blue" x1="400" x2="176.3932022500211" y1="192.23164628247468" y2="617.5570504584947"/>
<line stroke="blue" x1="400" x2="288.1966011250105" y1="192.23164628247468" y2="228.55877268274276"/>
<line stroke="blue" x1="400" x2="692.7050983124841" y1="192.23164628247468" y2="214.68304511145388"/>
<line stroke="blue" x1="400" x2="692.7050983124843" y1="192.23164628247468" y2="785.3169548885461"/>
<line stroke="blue" x1="400" x2="288.1966011250106" y1="192.23164628247468" y2="771.4412273172572"/>
<line stroke="blue" x1="400" x2="176.39320225002103" y1="192.23164628247468" y2="382.4429495415054"/>
<line stroke="blue" x1="400" x2="511.80339887498945" y1="192.23164628247468" y2="155.9045198822066"/>
<line stroke="blue" x1="400" x2="830.9016994374947" y1="192.23164628247468" y2="404.8943483704845"/>
<line stroke="blue" x1="288.1966011250105" x2="900" y1="228.55877268274276" y2="500"/>
<line stroke="blue" x1="288.1966011250105" x2="623.606797749979" y1="228.55877268274276" y2="880.4226065180615"/>
<line stroke="blue" x1="288.1966011250105" x2="176.3932022500211" y1="228.55877268274276" y2="735.1141009169893"/>
<line stroke="blue" x1="288.1966011250105" x2="176.39320225002103" y1="228.55877268274276" y2="264.8858990830108"/>
<line stroke="blue" x1="288.1966011250105" x2="623.6067977499789" y1="228.55877268274276" y2="119.57739348193854"/>
<line stroke="blue" x1="288.1966011250105" x2="761.8033988749895" y1="228.55877268274276" y2="690.2113032590307"/>
<line stroke="blue" x1="288.1966011250105" x2="400.00000000000006" y1="228.55877268274276" y2="807.7683537175253"/>
<line stroke="blue" x1="288.1966011250105" x2="176.39320225002106" y1="228.55877268274276" y2="500.00000000000006"/>
<line stroke="blue" x1="288.1966011250105" x2="400" y1="228.55877268274276" y2="192.23164628247468"/>
<line stroke="blue" x1="288.1966011250105" x2="761.8033988749894" y1="228.55877268274276" y2="309.7886967409692"/>
<line stroke="blue" x1="288.1966011250105" x2="830.9016994374947" y1="228.55877268274276" y2="595.1056516295154"/>
<line stroke="blue" x1="288.1966011250105" x2="511.8033988749895" y1="228.55877268274276" y2="844.0954801177934"/>
<line stroke="blue" x1="288.1966011250105" x2="176.3932022500211" y1="228.55877268274276" y2="617.5570504584947"/>
<line stroke="blue" x1="288.1966011250105" x2="288.1966011250105" y1="228.55877268274276" y2="228.55877268274276"/>
<line stroke="blue" x1="288.1966011250105" x2="692.7050983124841" y1="228.55877268274276" y2="214.68304511145388"/>
<line stroke="blue" x1="288.1966011250105" x2="692.7050983124843" y1="228.55877268274276" y2="785.3169548885461"/>
<line stroke="blue" x1="288.1966011250105" x2="288.1966011250106" y1="228.55877268274276" y2="771.4412273172572"/>
<line stroke="blue" x1="288.1966011250105" x2="176.39320225002103" y1="228.55877268274276" y2="382.4429495415054"/>
<line stroke="blue" x1="288.1966011250105" x2="511.80339887498945" y1="228.55877268274276" y2="155.9045198822066"/>
<line stroke="blue" x1="288.1966011250105" x2="830.9016994374947" y1="228.55877268274276" y2="404.8943483704845"/>
<line stroke="blue" x1="511.80339887498945" x2="900" y1="155.9045198822066" y2="500"/>
<line stroke="blue" x1="511.80339887498945" x2="623.606797749979" y1="155.9045198822066" y2="880.4226065180615"/>
<line stroke="blue" x1="511.80339887498945" x2="176.3932022500211" y1="155.9045198822066" y2="735.1141009169893"/>
<line stroke="blue" x1="511.80339887498945" x2="176.39320225002103" y1="155.9045198822066" y2="264.8858990830108"/>
<line stroke="blue" x1="511.80339887498945" x2="623.6067977499789" y1="155.9045198822066" y2="119.57739348193854"/>
<line stroke="blue" x1="511.80339887498945" x2="761.8033988749895" y1="155.9045198822066" y2="690.2113032590307"/>
<line stroke="blue" x1="511.80339887498945" x2="400.00000000000006" y1="155.9045198822066" y2="807.7683537175253"/>
<line stroke="blue" x1="511.80339887498945" x2="176.39320225002106" y1="155.9045198822066" y2="500.00000000000006"/>
<line stroke="blue" x1="511.80339887498945" x2="400" y1="155.9045198822066" y2="192.23164628247468"/>
<line stroke="blue" x1="511.80339887498945" x2="761.8033988749894" y1="155.9045198822066" y2="309.7886967409692"/>
<line stroke="blue" x1="511.80339887498945" x2="830.9016994374947" y1="155.9045198822066" y2="595.1056516295154"/>
<line stroke="blue" x1="511.80339887498945" x2="511.8033988749895" y1="155.9045198822066" y2="844.0954801177934"/>
<line stroke="blue" x1="511.80339887498945" x2="176.3932022500211" y1="155.9045198822066" y2="617.5570504584947"/>
<line stroke="blue" x1="511.80339887498945" x2="288.1966011250105" y1="155.9045198822066" y2="228.55877268274276"/>
<line stroke="blue" x1="511.80339887498945" x2="692.7050983124841" y1="155.9045198822066" y2="214.68304511145388"/>
<line stroke="blue" x1="511.80339887498945" x2="692.7050983124843" y1="155.9045198822066" y2="785.3169548885461"/>
<line stroke="blue" x1="511.80339887498945" x2="288.1966011250106" y1="155.9045198822066" y2="771.4412273172572"/>
<line stroke="blue" x1="511.80339887498945" x2="176.39320225002103" y1="155.9045198822066" y2="382.4429495415054"/>
<line stroke="blue" x1="511.80339887498945" x2="511.80339887498945" y1="155.9045198822066" y2="155.9045198822066"/>
<line stroke="blue" x1="511.80339887498945" x2="830.9016994374947" y1="155.9045198822066" y2="404.8943483704845"/>
<line stroke="blue" x1="623.6067977499789" x2="900" y1="119.57739348193854" y2="500"/>
<line stroke="blue" x1="623.6067977499789" x2="623.606797749979" y1="119.57739348193854" y2="880.4226065180615"/>
<line stroke="blue" x1="623.6067977499789" x2="176.3932022500211" y1="119.57739348193854" y2="735.1141009169893"/>
<line stroke="blue" x1="623.6067977499789" x2="176.39320225002103" y1="119.57739348193854" y2="264.8858990830108"/>
<line stroke="blue" x1="623.6067977499789" x2="623.6067977499789" y1="119.57739348193854" y2="119.57739348193854"/>
<line stroke="blue" x1="623.6067977499789" x2="761.8033988749895" y1="119.57739348193854" y2="690.2113032590307"/>
<line stroke="blue" x1="623.6067977499789" x2="400.00000000000006" y1="119.57739348193854" y2="807.7683537175253"/>
<line stroke="blue" x1="623.6067977499789" x2="176.39320225002106" y1="119.57739348193854" y2="500.00000000000006"/>
<line stroke="blue" x1="623.6067977499789" x2="400" y1="119.57739348193854" y2="192.23164628247468"/>
<line stroke="blue" x1="623.6067977499789" x2="761.8033988749894" y1="119.57739348193854" y2="309.7886967409692"/>
<line stroke="blue" x1="623.6067977499789" x2="830.9016994374947" y1="119.57739348193854" y2="595.1056516295154"/>
<line stroke="blue" x1="623.6067977499789" x2="511.8033988749895" y1="119.57739348193854" y2="844.0954801177934"/>
<line stroke="blue" x1="623.6067977499789" x2="176.3932022500211" y1="119.57739348193854" y2="617.5570504584947"/>
<line stroke="blue" x1="623.6067977499789" x2="288.1966011250105" y1="119.57739348193854" y2="228.55877268274276"/>
<line stroke="blue" x1="623.6067977499789" x2="692.7050983124841" y1="119.57739348193854" y2="214.68304511145388"/>
<line stroke="blue" x1="623.6067977499789" x2="692.7050983124843" y1="119.57739348193854" y2="785.3169548885461"/>
<line stroke="blue" x1="623.6067977499789" x2="288.1966011250106" y1="119.57739348193854" y2="771.4412273172572"/>
<line stroke="blue" x1="623.6067977499789" x2="176.39320225002103" y1="119.57739348193854" y2="382.4429495415054"/>
<line stroke="blue" x1="623.6067977499789" x2="511.80339887498945" y1="119.57739348193854" y2="155.9045198822066"/>
<line stroke="blue" x1="623.6067977499789" x2="830.9016994374947" y1="119.57739348193854" y2="404.8943483704845"/>
<line stroke="blue" x1="761.8033988749894" x2="900" y1="309.7886967409692" y2="500"/>
<line stroke="blue" x1="761.8033988749894" x2="623.606797749979" y1="309.7886967409692" y2="880.4226065180615"/>
<line stroke="blue" x1="761.8033988749894" x2="176.3932022500211" y1="309.7886967409692" y2="735.1141009169893"/>
<line stroke="blue" x1="761.8033988749894" x2="176.39320225002103" y1="309.7886967409692" y2="264.8858990830108"/>
<line stroke="blue" x1="761.8033988749894" x2="623.6067977499789" y1="309.7886967409692" y2="119.57739348193854"/>
<line stroke="blue" x1="761.8033988749894" x2="761.8033988749895" y1="309.7886967409692" y2="690.2113032590307"/>
<line stroke="blue" x1="761.8033988749894" x2="400.00000000000006" y1="309.7886967409692" y2="807.7683537175253"/>
<line stroke="blue" x1="761.8033988749894" x2="176.39320225002106" y1="309.7886967409692" y2="500.00000000000006"/>
<line stroke="blue" x1="761.8033988749894" x2="400" y1="309.7886967409692" y2="192.23164628247468"/>
<line stroke="blue" x1="761.8033988749894" x2="761.8033988749894" y1="309.7886967409692" y2="309.7886967409692"/>
<line stroke="blue" x1="761.8033988749894" x2="830.9016994374947" y1="309.7886967409692" y2="595.1056516295154"/>
<line stroke="blue" x1="761.8033988749894" x2="511.8033988749895" y1="309.7886967409692" y2="844.0954801177934"/>
<line stroke="blue" x1="761.8033988749894" x2="176.3932022500211" y1="309.7886967409692" y2="617.5570504584947"/>
<line stroke="blue" x1="761.8033988749894" x2="288.1966011250105" y1="309.7886967409692" y2="228.55877268274276"/>
<line stroke="blue" x1="761.8033988749894" x2="692.7050983124841" y1="309.7886967409692" y2="214.68304511145388"/>
<line stroke="blue" x1="761.8033988749894" x2="692.7050983124843" y1="309.7886967409692" y2="785.3169548885461"/>
<line stroke="blue" x1="761.8033988749894" x2="288.1966011250106" y1="309.7886967409692" y2="771.4412273172572"/>
<line stroke="blue" x1="761.8033988749894" x2="176.39320225002103" y1="309.7886967409692" y2="382.4429495415054"/>
<line stroke="blue" x1="761.8033988749894" x2="511.80339887498945" y1="309.7886967409692" y2="155.9045198822066"/>
<line stroke="blue" x1="761.8033988749894" x2="830.9016994374947" y1="309.7886967409692" y2="404.8943483704845"/>
<line stroke="blue" x1="692.7050983124841" x2="900" y1="214.68304511145388" y2="500"/>
<line stroke="blue" x1="692.7050983124841" x2="623.606797749979" y1="214.68304511145388" y2="880.4226065180615"/>
<line stroke="blue" x1="692.7050983124841" x2="176.3932022500211" y1="214.68304511145388" y2="735.1141009169893"/>
<line stroke="blue" x1="692.7050983124841" x2="176.39320225002103" y1="214.68304511145388" y2="264.8858990830108"/>
<line stroke="blue" x1="692.7050983124841" x2="623.6067977499789" y1="214.68304511145388" y2="119.57739348193854"/>
<line stroke="blue" x1="692.7050983124841" x2="761.8033988749895" y1="214.68304511145388" y2="690.2113032590307"/>
<line stroke="blue" x1="692.7050983124841" x2="400.00000000000006" y1="214.68304511145388" y2="807.7683537175253"/>
<line stroke="blue" x1="692.7050983124841" x2="176.39320225002106" y1="214.68304511145388" y2="500.00000000000006"/>
<line stroke="blue" x1="692.7050983124841" x2="400" y1="214.68304511145388" y2="192.23164628247468"/>
<line stroke="blue" x1="692.7050983124841" x2="761.8033988749894" y1="214.68304511145388" y2="309.7886967409692"/>
<line stroke="blue" x1="692.7050983124841" x2="830.9016994374947" y1="214.68304511145388" y2="595.1056516295154"/>
<line stroke="blue" x1="692.7050983124841" x2="511.8033988749895" y1="214.68304511145388" y2="844.0954801177934"/>
<line stroke="blue" x1="692.7050983124841" x2="176.3932022500211" y1="214.68304511145388" y2="617.5570504584947"/>
<line stroke="blue" x1="692.7050983124841" x2="288.1966011250105" y1="214.68304511145388" y2="228.55877268274276"/>
<line stroke="blue" x1="692.7050983124841" x2="692.7050983124841" y1="214.68304511145388" y2="214.68304511145388"/>
<line stroke="blue" x1="692.7050983124841" x2="692.7050983124843" y1="214.68304511145388" y2="785.3169548885461"/>
<line stroke="blue" x1="692.7050983124841" x2="288.1966011250106" y1="214.68304511145388" y2="771.4412273172572"/>
<line stroke="blue" x1="692.7050983124841" x2="176.39320225002103" y1="214.68304511145388" y2="382.4429495415054"/>
<line stroke="blue" x1="692.7050983124841" x2="511.80339887498945" y1="214.68304511145388" y2="155.9045198822066"/>
<line stroke="blue" x1="692.7050983124841" x2="830.9016994374947" y1="214.68304511145388" y2="404.8943483704845"/>
<line stroke="blue" x1="830.9016994374947" x2="900" y1="404.8943483704845" y2="500"/>
<line stroke="blue" x1="830.9016994374947" x2="623.606797749979" y1="404.8943483704845" y2="880.4226065180615"/>
<line stroke="blue" x1="830.9016994374947" x2="176.3932022500211" y1="404.8943483704845" y2="735.1141009169893"/>
<line stroke="blue" x1="830.9016994374947" x2="176.39320225002103" y1="404.8943483704845" y2="264.8858990830108"/>
<line stroke="blue" x1="830.9016994374947" x2="623.6067977499789" y1="404.8943483704845" y2="119.57739348193854"/>
<line stroke="blue" x1="830.9016994374947" x2="761.8033988749895" y1="404.8943483704845" y2="690.2113032590307"/>
<line stroke="blue" x1="830.9016994374947" x2="400.00000000000006" y1="404.8943483704845" y2="807.7683537175253"/>
<line stroke="blue" x1="830.9016994374947" x2="176.39320225002106" y1="404.8943483704845" y2="500.00000000000006"/>
<line stroke="blue" x1="830.9016994374947" x2="400" y1="404.8943483704845" y2="192.23164628247468"/>
<line stroke="blue" x1="830.9016994374947" x2="761.8033988749894" y1="404.8943483704845" y2="309.7886967409692"/>
<line stroke="blue" x1="830.9016994374947" x2="830.9016994374947" y1="404.8943483704845" y2="595.1056516295154"/>
<line stroke="blue" x1="830.9016994374947" x2="511.8033988749895" y1="404.8943483704845" y2="844.0954801177934"/>
<line stroke="blue" x1="830.9016994374947" x2="176.3932022500211" y1="404.8943483704845" y2="617.5570504584947"/>
<line stroke="blue" x1="830.9016994374947" x2="288.1966011250105" y1="404.8943483704845" y2="228.55877268274276"/>
<line stroke="blue" x1="830.9016994374947" x2="692.7050983124841" y1="404.8943483704845" y2="214.68304511145388"/>
<line stroke="blue" x1="830.9016994374947" x2="692.7050983124843" y1="404.8943483704845" y2="785.3169548885461"/>
<line stroke="blue" x1="830.9016994374947" x2="288.1966011250106" y1="404.8943483704845" y2="771.4412273172572"/>
<line stroke="blue" x1="830.9016994374947" x2="176.39320225002103" y1="404.8943483704845" y2="382.4429495415054"/>
<line stroke="blue" x1="830.9016994374947" x2="511.80339887498945" y1="404.8943483704845" y2="155.9045198822066"/>
<line stroke="blue" x1="830.9016994374947" x2="830.9016994374947" y1="404.8943483704845" y2="404.8943483704845"/>
</svg>