<svg viewBox="0 0 1000 1000" xmlns="http://www.w3.org/2000/svg">
<path d="M782.8427,782.8427 L217.15729,782.8427 L217.15729,217.15729 L782.8427,217.15729 L782.8427,782.8427 z" fill="none" stroke="green" stroke-width="1"/>
<line stroke="blue" x1="782.842712474619" x2="217.15728752538104" y1="782.842712474619" y2="782.842712474619"/>
<line stroke="purple" x1="712.1320343559643" x2="217.15728752538104" y1="782.842712474619" y2="712.1320343559643"/>
<line stroke="red" x1="641.4213562373095" x2="217.157287525381" y1="782.842712474619" y2="641.4213562373095"/>
<line stroke="orange" x1="570.7106781186548" x2="217.15728752538098" y1="782.842712474619" y2="570.7106781186548"/>
<line stroke="yellow" x1="500" x2="217.15728752538098" y1="782.842712474619" y2="500"/>
<line stroke="green" x1="429.28932188134524" x2="217.15728752538098" y1="782.842712474619" y2="429.28932188134524"/>
<line stroke="brown" x1="358.5786437626905" x2="217.15728752538095" y1="782.842712474619" y2="358.5786437626905"/>
<line stroke="grey" x1="287.86796564403573" x2="217.15728752538092" y1="782.842712474619" y2="287.86796564403573"/>
<line stroke="blue" x1="217.15728752538104" x2="217.15728752538092" y1="782.842712474619" y2="217.15728752538104"/>
<line stroke="purple" x1="217.15728752538104" x2="287.8679656440357" y1="712.1320343559643" y2="217.15728752538104"/>
<line stroke="red" x1="217.157287525381" x2="358.57864376269043" y1="641.4213562373095" y2="217.157287525381"/>
<line stroke="orange" x1="217.15728752538098" x2="429.2893218813452" y1="570.7106781186548" y2="217.15728752538098"/>
<line stroke="yellow" x1="217.15728752538098" x2="499.99999999999994" y1="500" y2="217.15728752538098"/>
<line stroke="green" x1="217.15728752538098" x2="570.7106781186548" y1="429.28932188134524" y2="217.15728752538098"/>
<line stroke="brown" x1="217.15728752538095" x2="641.4213562373095" y1="358.5786437626905" y2="217.15728752538095"/>
<line stroke="grey" x1="217.15728752538092" x2="712.1320343559643" y1="287.86796564403573" y2="217.15728752538092"/>
<line stroke="blue" x1="217.15728752538092" x2="782.842712474619" y1="217.15728752538104" y2="217.15728752538092"/>
<line stroke="purple" x1="287.8679656440357" x2="782.842712474619" y1="217.15728752538104" y2="287.8679656440357"/>
<line stroke="red" x1="358.57864376269043" x2="782.842712474619" y1="217.157287525381" y2="358.57864376269043"/>
<line stroke="orange" x1="429.2893218813452" x2="782.842712474619" y1="217.15728752538098" y2="429.2893218813452"/>
<line stroke="yellow" x1="499.99999999999994" x2="782.842712474619" y1="217.15728752538098" y2="499.99999999999994"/>
<line stroke="green" x1="570.7106781186548" x2="782.842712474619" y1="217.15728752538098" y2="570.7106781186548"/>
<line stroke="brown" x1="641.4213562373095" x2="782.842712474619" y1="217.15728752538095" y2="641.4213562373095"/>
<line stroke="grey" x1="712.1320343559643" x2="782.842712474619" y1="217.15728752538092" y2="712.1320343559643"/>
<line stroke="blue" x1="782.842712474619" x2="782.842712474619" y1="217.15728752538092" y2="782.842712474619"/>
<line stroke="purple" x1="782.842712474619" x2="712.1320343559643" y1="287.8679656440357" y2="782.842712474619"/>
<line stroke="red" x1="782.842712474619" x2="641.4213562373095" y1="358.57864376269043" y2="782.842712474619"/>
<line stroke="orange" x1="782.842712474619" x2="570.7106781186548" y1="429.2893218813452" y2="782.842712474619"/>
<line stroke="yellow" x1="782.842712474619" x2="500" y1="499.99999999999994" y2="782.842712474619"/>
<line stroke="green" x1="782.842712474619" x2="429.28932188134524" y1="570.7106781186548" y2="782.842712474619"/>
<line stroke="brown" x1="782.842712474619" x2="358.5786437626905" y1="641.4213562373095" y2="782.842712474619"/>
<line stroke="grey" x1="782.842712474619" x2="287.86796564403573" y1="712.1320343559643" y2="782.842712474619"/>
</svg>