<svg viewBox="0 0 1000 1000" xmlns="http://www.w3.org/2000/svg">
<path d="M300,846.41016 L300,153.58984 L900,500 L300,846.41016 z" fill="none" stroke="green" stroke-width="1"/>
<line stroke="blue" x1="300" x2="300" y1="846.4101615137755" y2="846.4101615137755"/>
<line stroke="blue" x1="300" x2="299.99999999999983" y1="846.4101615137755" y2="153.58983848622472"/>
<line stroke="blue" x1="300" x2="900" y1="846.4101615137755" y2="499.9999999999999"/>
<line stroke="blue" x1="300" x2="300" y1="846.4101615137755" y2="846.4101615137755"/>
<line stroke="blue" x1="300" x2="299.99999999999983" y1="846.4101615137755" y2="153.58983848622472"/>
<line stroke="blue" x1="300" x2="900" y1="846.4101615137755" y2="499.9999999999999"/>
<line stroke="blue" x1="300" x2="300" y1="846.4101615137755" y2="846.4101615137755"/>
<line stroke="blue" x1="300" x2="299.99999999999983" y1="846.4101615137755" y2="153.58983848622472"/>
<line stroke="blue" x1="300" x2="900" y1="846.4101615137755" y2="499.9999999999999"/>
<line stroke="blue" x1="300" x2="300" y1="846.4101615137755" y2="846.4101615137755"/>
<line stroke="blue" x1="300" x2="299.99999999999983" y1="846.4101615137755" y2="153.58983848622472"/>
<line stroke="blue" x1="300" x2="900" y1="846.4101615137755" y2="499.9999999999999"/>
<line stroke="blue" x1="300" x2="300" y1="846.4101615137755" y2="846.4101615137755"/>
<line stroke="blue" x1="300" x2="299.99999999999983" y1="846.4101615137755" y2="153.58983848622472"/>
<line stroke="blue" x1="300" x2="900" y1="846.4101615137755" y2="499.9999999999999"/>
<line stroke="blue" x1="300" x2="300" y1="846.4101615137755" y2="846.4101615137755"/>
<line stroke="blue" x1="343.30127018922195" x2="949.519052838329" y1="889.7114317029974" y2="1495.9292143521045"/>
<line stroke="blue" x1="343.30127018922195" x2="949.5190528383287" y1="889.7114317029974" y2="803.1088913245536"/>
<line stroke="blue" x1="343.30127018922195" x2="1549.5190528383291" y1="889.7114317029974" y2="1149.5190528383291"/>
<line stroke="blue" x1="343.30127018922195" x2="949.519052838329" y1="889.7114317029974" y2="1495.9292143521045"/>
<line stroke="blue" x1="343.30127018922195" x2="949.5190528383287" y1="889.7114317029974" y2="803.1088913245536"/>
<line stroke="blue" x1="343.30127018922195" x2="1549.5190528383291" y1="889.7114317029974" y2="1149.5190528383291"/>
<line stroke="blue" x1="343.30127018922195" x2="949.519052838329" y1="889.7114317029974" y2="1495.9292143521045"/>
<line stroke="blue" x1="343.30127018922195" x2="949.5190528383287" y1="889.7114317029974" y2="803.1088913245536"/>
<line stroke="blue" x1="343.30127018922195" x2="1549.5190528383291" y1="889.7114317029974" y2="1149.5190528383291"/>
<line stroke="blue" x1="343.30127018922195" x2="949.519052838329" y1="889.7114317029974" y2="1495.9292143521045"/>
<line stroke="blue" x1="343.30127018922195" x2="949.5190528383287" y1="889.7114317029974" y2="803.1088913245536"/>
<line stroke="blue" x1="343.30127018922195" x2="1549.5190528383291" y1="889.7114317029974" y2="1149.5190528383291"/>
<line stroke="blue" x1="343.30127018922195" x2="949.519052838329" y1="889.7114317029974" y2="1495.9292143521045"/>
<line stroke="blue" x1="343.30127018922195" x2="949.5190528383287" y1="889.7114317029974" y2="803.1088913245536"/>
<line stroke="blue" x1="343.30127018922195" x2="1549.5190528383291" y1="889.7114317029974" y2="1149.5190528383291"/>
<line stroke="blue" x1="343.30127018922195" x2="949.519052838329" y1="889.7114317029974" y2="1495.9292143521045"/>
<line stroke="blue" x1="386.60254037844385" x2="906.217782649107" y1="933.0127018922194" y2="1452.6279441628826"/>
<line stroke="blue" x1="386.60254037844385" x2="906.2177826491068" y1="933.0127018922194" y2="759.8076211353317"/>
<line stroke="blue" x1="386.60254037844385" x2="1506.217782649107" y1="933.0127018922194" y2="1106.217782649107"/>
<line stroke="blue" x1="386.60254037844385" x2="906.217782649107" y1="933.0127018922194" y2="1452.6279441628826"/>
<line stroke="blue" x1="386.60254037844385" x2="906.2177826491068" y1="933.0127018922194" y2="759.8076211353317"/>
<line stroke="blue" x1="386.60254037844385" x2="1506.217782649107" y1="933.0127018922194" y2="1106.217782649107"/>
<line stroke="blue" x1="386.60254037844385" x2="906.217782649107" y1="933.0127018922194" y2="1452.6279441628826"/>
<line stroke="blue" x1="386.60254037844385" x2="906.2177826491068" y1="933.0127018922194" y2="759.8076211353317"/>
<line stroke="blue" x1="386.60254037844385" x2="1506.217782649107" y1="933.0127018922194" y2="1106.217782649107"/>
<line stroke="blue" x1="386.60254037844385" x2="906.217782649107" y1="933.0127018922194" y2="1452.6279441628826"/>
<line stroke="blue" x1="386.60254037844385" x2="906.2177826491068" y1="933.0127018922194" y2="759.8076211353317"/>
<line stroke="blue" x1="386.60254037844385" x2="1506.217782649107" y1="933.0127018922194" y2="1106.217782649107"/>
<line stroke="blue" x1="386.60254037844385" x2="906.217782649107" y1="933.0127018922194" y2="1452.6279441628826"/>
<line stroke="blue" x1="386.60254037844385" x2="906.2177826491068" y1="933.0127018922194" y2="759.8076211353317"/>
<line stroke="blue" x1="386.60254037844385" x2="1506.217782649107" y1="933.0127018922194" y2="1106.217782649107"/>
<line stroke="blue" x1="386.60254037844385" x2="906.217782649107" y1="933.0127018922194" y2="1452.6279441628826"/>
<line stroke="blue" x1="429.9038105676658" x2="862.9165124598851" y1="976.3139720814413" y2="1409.3266739736605"/>
<line stroke="blue" x1="429.9038105676658" x2="862.9165124598849" y1="976.3139720814413" y2="716.5063509461097"/>
<line stroke="blue" x1="429.9038105676658" x2="1462.9165124598853" y1="976.3139720814413" y2="1062.916512459885"/>
<line stroke="blue" x1="429.9038105676658" x2="862.9165124598851" y1="976.3139720814413" y2="1409.3266739736605"/>
<line stroke="blue" x1="429.9038105676658" x2="862.9165124598849" y1="976.3139720814413" y2="716.5063509461097"/>
<line stroke="blue" x1="429.9038105676658" x2="1462.9165124598853" y1="976.3139720814413" y2="1062.916512459885"/>
<line stroke="blue" x1="429.9038105676658" x2="862.9165124598851" y1="976.3139720814413" y2="1409.3266739736605"/>
<line stroke="blue" x1="429.9038105676658" x2="862.9165124598849" y1="976.3139720814413" y2="716.5063509461097"/>
<line stroke="blue" x1="429.9038105676658" x2="1462.9165124598853" y1="976.3139720814413" y2="1062.916512459885"/>
<line stroke="blue" x1="429.9038105676658" x2="862.9165124598851" y1="976.3139720814413" y2="1409.3266739736605"/>
<line stroke="blue" x1="429.9038105676658" x2="862.9165124598849" y1="976.3139720814413" y2="716.5063509461097"/>
<line stroke="blue" x1="429.9038105676658" x2="1462.9165124598853" y1="976.3139720814413" y2="1062.916512459885"/>
<line stroke="blue" x1="429.9038105676658" x2="862.9165124598851" y1="976.3139720814413" y2="1409.3266739736605"/>
<line stroke="blue" x1="429.9038105676658" x2="862.9165124598849" y1="976.3139720814413" y2="716.5063509461097"/>
<line stroke="blue" x1="429.9038105676658" x2="1462.9165124598853" y1="976.3139720814413" y2="1062.916512459885"/>
<line stroke="blue" x1="429.9038105676658" x2="862.9165124598851" y1="976.3139720814413" y2="1409.3266739736605"/>
<line stroke="blue" x1="473.2050807568877" x2="819.6152422706632" y1="1019.6152422706632" y2="1366.0254037844388"/>
<line stroke="blue" x1="473.2050807568877" x2="819.615242270663" y1="1019.6152422706632" y2="673.2050807568878"/>
<line stroke="blue" x1="473.2050807568877" x2="1419.6152422706632" y1="1019.6152422706632" y2="1019.6152422706631"/>
<line stroke="blue" x1="473.2050807568877" x2="819.6152422706632" y1="1019.6152422706632" y2="1366.0254037844388"/>
<line stroke="blue" x1="473.2050807568877" x2="819.615242270663" y1="1019.6152422706632" y2="673.2050807568878"/>
<line stroke="blue" x1="473.2050807568877" x2="1419.6152422706632" y1="1019.6152422706632" y2="1019.6152422706631"/>
<line stroke="blue" x1="473.2050807568877" x2="819.6152422706632" y1="1019.6152422706632" y2="1366.0254037844388"/>
<line stroke="blue" x1="473.2050807568877" x2="819.615242270663" y1="1019.6152422706632" y2="673.2050807568878"/>
<line stroke="blue" x1="473.2050807568877" x2="1419.6152422706632" y1="1019.6152422706632" y2="1019.6152422706631"/>
<line stroke="blue" x1="473.2050807568877" x2="819.6152422706632" y1="1019.6152422706632" y2="1366.0254037844388"/>
<line stroke="blue" x1="473.2050807568877" x2="819.615242270663" y1="1019.6152422706632" y2="673.2050807568878"/>
<line stroke="blue" x1="473.2050807568877" x2="1419.6152422706632" y1="1019.6152422706632" y2="1019.6152422706631"/>
<line stroke="blue" x1="473.2050807568877" x2="819.6152422706632" y1="1019.6152422706632" y2="1366.0254037844388"/>
<line stroke="blue" x1="473.2050807568877" x2="819.615242270663" y1="1019.6152422706632" y2="673.2050807568878"/>
<line stroke="blue" x1="473.2050807568877" x2="1419.6152422706632" y1="1019.6152422706632" y2="1019.6152422706631"/>
<line stroke="blue" x1="473.2050807568877" x2="819.6152422706632" y1="1019.6152422706632" y2="1366.0254037844388"/>
<line stroke="blue" x1="516.5063509461097" x2="776.3139720814413" y1="1062.916512459885" y2="1322.7241335952167"/>
<line stroke="blue" x1="516.5063509461097" x2="776.3139720814411" y1="1062.916512459885" y2="629.9038105676659"/>
<line stroke="blue" x1="516.5063509461097" x2="1376.3139720814413" y1="1062.916512459885" y2="976.3139720814412"/>
<line stroke="blue" x1="516.5063509461097" x2="776.3139720814413" y1="1062.916512459885" y2="1322.7241335952167"/>
<line stroke="blue" x1="516.5063509461097" x2="776.3139720814411" y1="1062.916512459885" y2="629.9038105676659"/>
<line stroke="blue" x1="516.5063509461097" x2="1376.3139720814413" y1="1062.916512459885" y2="976.3139720814412"/>
<line stroke="blue" x1="516.5063509461097" x2="776.3139720814413" y1="1062.916512459885" y2="1322.7241335952167"/>
<line stroke="blue" x1="516.5063509461097" x2="776.3139720814411" y1="1062.916512459885" y2="629.9038105676659"/>
<line stroke="blue" x1="516.5063509461097" x2="1376.3139720814413" y1="1062.916512459885" y2="976.3139720814412"/>
<line stroke="blue" x1="516.5063509461097" x2="776.3139720814413" y1="1062.916512459885" y2="1322.7241335952167"/>
<line stroke="blue" x1="516.5063509461097" x2="776.3139720814411" y1="1062.916512459885" y2="629.9038105676659"/>
<line stroke="blue" x1="516.5063509461097" x2="1376.3139720814413" y1="1062.916512459885" y2="976.3139720814412"/>
<line stroke="blue" x1="516.5063509461097" x2="776.3139720814413" y1="1062.916512459885" y2="1322.7241335952167"/>
<line stroke="blue" x1="516.5063509461097" x2="776.3139720814411" y1="1062.916512459885" y2="629.9038105676659"/>
<line stroke="blue" x1="516.5063509461097" x2="1376.3139720814413" y1="1062.916512459885" y2="976.3139720814412"/>
<line stroke="blue" x1="516.5063509461097" x2="776.3139720814413" y1="1062.916512459885" y2="1322.7241335952167"/>
<line stroke="blue" x1="559.8076211353316" x2="733.0127018922193" y1="1106.217782649107" y2="1279.4228634059948"/>
<line stroke="blue" x1="559.8076211353316" x2="733.0127018922191" y1="1106.217782649107" y2="586.602540378444"/>
<line stroke="blue" x1="559.8076211353316" x2="1333.0127018922194" y1="1106.217782649107" y2="933.0127018922193"/>
<line stroke="blue" x1="559.8076211353316" x2="733.0127018922193" y1="1106.217782649107" y2="1279.4228634059948"/>
<line stroke="blue" x1="559.8076211353316" x2="733.0127018922191" y1="1106.217782649107" y2="586.602540378444"/>
<line stroke="blue" x1="559.8076211353316" x2="1333.0127018922194" y1="1106.217782649107" y2="933.0127018922193"/>
<line stroke="blue" x1="559.8076211353316" x2="733.0127018922193" y1="1106.217782649107" y2="1279.4228634059948"/>
<line stroke="blue" x1="559.8076211353316" x2="733.0127018922191" y1="1106.217782649107" y2="586.602540378444"/>
<line stroke="blue" x1="559.8076211353316" x2="1333.0127018922194" y1="1106.217782649107" y2="933.0127018922193"/>
<line stroke="blue" x1="559.8076211353316" x2="733.0127018922193" y1="1106.217782649107" y2="1279.4228634059948"/>
<line stroke="blue" x1="559.8076211353316" x2="733.0127018922191" y1="1106.217782649107" y2="586.602540378444"/>
<line stroke="blue" x1="559.8076211353316" x2="1333.0127018922194" y1="1106.217782649107" y2="933.0127018922193"/>
<line stroke="blue" x1="559.8076211353316" x2="733.0127018922193" y1="1106.217782649107" y2="1279.4228634059948"/>
<line stroke="blue" x1="559.8076211353316" x2="733.0127018922191" y1="1106.217782649107" y2="586.602540378444"/>
<line stroke="blue" x1="559.8076211353316" x2="1333.0127018922194" y1="1106.217782649107" y2="933.0127018922193"/>
<line stroke="blue" x1="559.8076211353316" x2="733.0127018922193" y1="1106.217782649107" y2="1279.4228634059948"/>
<line stroke="blue" x1="603.1088913245535" x2="689.7114317029974" y1="1149.5190528383291" y2="1236.121593216773"/>
<line stroke="blue" x1="603.1088913245535" x2="689.7114317029971" y1="1149.5190528383291" y2="543.301270189222"/>
<line stroke="blue" x1="603.1088913245535" x2="1289.7114317029975" y1="1149.5190528383291" y2="889.7114317029973"/>
<line stroke="blue" x1="603.1088913245535" x2="689.7114317029974" y1="1149.5190528383291" y2="1236.121593216773"/>
<line stroke="blue" x1="603.1088913245535" x2="689.7114317029971" y1="1149.5190528383291" y2="543.301270189222"/>
<line stroke="blue" x1="603.1088913245535" x2="1289.7114317029975" y1="1149.5190528383291" y2="889.7114317029973"/>
<line stroke="blue" x1="603.1088913245535" x2="689.7114317029974" y1="1149.5190528383291" y2="1236.121593216773"/>
<line stroke="blue" x1="603.1088913245535" x2="689.7114317029971" y1="1149.5190528383291" y2="543.301270189222"/>
<line stroke="blue" x1="603.1088913245535" x2="1289.7114317029975" y1="1149.5190528383291" y2="889.7114317029973"/>
<line stroke="blue" x1="603.1088913245535" x2="689.7114317029974" y1="1149.5190528383291" y2="1236.121593216773"/>
<line stroke="blue" x1="603.1088913245535" x2="689.7114317029971" y1="1149.5190528383291" y2="543.301270189222"/>
<line stroke="blue" x1="603.1088913245535" x2="1289.7114317029975" y1="1149.5190528383291" y2="889.7114317029973"/>
<line stroke="blue" x1="603.1088913245535" x2="689.7114317029974" y1="1149.5190528383291" y2="1236.121593216773"/>
<line stroke="blue" x1="603.1088913245535" x2="689.7114317029971" y1="1149.5190528383291" y2="543.301270189222"/>
<line stroke="blue" x1="603.1088913245535" x2="1289.7114317029975" y1="1149.5190528383291" y2="889.7114317029973"/>
<line stroke="blue" x1="603.1088913245535" x2="689.7114317029974" y1="1149.5190528383291" y2="1236.121593216773"/>
<line stroke="blue" x1="646.4101615137754" x2="646.4101615137754" y1="1192.820323027551" y2="1192.820323027551"/>
<line stroke="blue" x1="646.4101615137754" x2="646.4101615137752" y1="1192.820323027551" y2="500.0000000000001"/>
<line stroke="blue" x1="646.4101615137754" x2="1246.4101615137756" y1="1192.820323027551" y2="846.4101615137754"/>
<line stroke="blue" x1="646.4101615137754" x2="646.4101615137754" y1="1192.820323027551" y2="1192.820323027551"/>
<line stroke="blue" x1="646.4101615137754" x2="646.4101615137752" y1="1192.820323027551" y2="500.0000000000001"/>
<line stroke="blue" x1="646.4101615137754" x2="1246.4101615137756" y1="1192.820323027551" y2="846.4101615137754"/>
<line stroke="blue" x1="646.4101615137754" x2="646.4101615137754" y1="1192.820323027551" y2="1192.820323027551"/>
<line stroke="blue" x1="646.4101615137754" x2="646.4101615137752" y1="1192.820323027551" y2="500.0000000000001"/>
<line stroke="blue" x1="646.4101615137754" x2="1246.4101615137756" y1="1192.820323027551" y2="846.4101615137754"/>
<line stroke="blue" x1="646.4101615137754" x2="646.4101615137754" y1="1192.820323027551" y2="1192.820323027551"/>
<line stroke="blue" x1="646.4101615137754" x2="646.4101615137752" y1="1192.820323027551" y2="500.0000000000001"/>
<line stroke="blue" x1="646.4101615137754" x2="1246.4101615137756" y1="1192.820323027551" y2="846.4101615137754"/>
<line stroke="blue" x1="646.4101615137754" x2="646.4101615137754" y1="1192.820323027551" y2="1192.820323027551"/>
<line stroke="blue" x1="646.4101615137754" x2="646.4101615137752" y1="1192.820323027551" y2="500.0000000000001"/>
<line stroke="blue" x1="646.4101615137754" x2="1246.4101615137756" y1="1192.820323027551" y2="846.4101615137754"/>
<line stroke="blue" x1="646.4101615137754" x2="646.4101615137754" y1="1192.820323027551" y2="1192.820323027551"/>
<line stroke="blue" x1="689.7114317029974" x2="603.1088913245535" y1="1236.121593216773" y2="1149.5190528383291"/>
<line stroke="blue" x1="689.7114317029974" x2="603.1088913245533" y1="1236.121593216773" y2="456.6987298107782"/>
<line stroke="blue" x1="689.7114317029974" x2="1203.1088913245535" y1="1236.121593216773" y2="803.1088913245535"/>
<line stroke="blue" x1="689.7114317029974" x2="603.1088913245535" y1="1236.121593216773" y2="1149.5190528383291"/>
<line stroke="blue" x1="689.7114317029974" x2="603.1088913245533" y1="1236.121593216773" y2="456.6987298107782"/>
<line stroke="blue" x1="689.7114317029974" x2="1203.1088913245535" y1="1236.121593216773" y2="803.1088913245535"/>
<line stroke="blue" x1="689.7114317029974" x2="603.1088913245535" y1="1236.121593216773" y2="1149.5190528383291"/>
<line stroke="blue" x1="689.7114317029974" x2="603.1088913245533" y1="1236.121593216773" y2="456.6987298107782"/>
<line stroke="blue" x1="689.7114317029974" x2="1203.1088913245535" y1="1236.121593216773" y2="803.1088913245535"/>
<line stroke="blue" x1="689.7114317029974" x2="603.1088913245535" y1="1236.121593216773" y2="1149.5190528383291"/>
<line stroke="blue" x1="689.7114317029974" x2="603.1088913245533" y1="1236.121593216773" y2="456.6987298107782"/>
<line stroke="blue" x1="689.7114317029974" x2="1203.1088913245535" y1="1236.121593216773" y2="803.1088913245535"/>
<line stroke="blue" x1="689.7114317029974" x2="603.1088913245535" y1="1236.121593216773" y2="1149.5190528383291"/>
<line stroke="blue" x1="689.7114317029974" x2="603.1088913245533" y1="1236.121593216773" y2="456.6987298107782"/>
<line stroke="blue" x1="689.7114317029974" x2="1203.1088913245535" y1="1236.121593216773" y2="803.1088913245535"/>
<line stroke="blue" x1="689.7114317029974" x2="603.1088913245535" y1="1236.121593216773" y2="1149.5190528383291"/>
<line stroke="blue" x1="733.0127018922193" x2="559.8076211353316" y1="1279.4228634059948" y2="1106.217782649107"/>
<line stroke="blue" x1="733.0127018922193" x2="559.8076211353314" y1="1279.4228634059948" y2="413.39745962155627"/>
<line stroke="blue" x1="733.0127018922193" x2="1159.8076211353316" y1="1279.4228634059948" y2="759.8076211353315"/>
<line stroke="blue" x1="733.0127018922193" x2="559.8076211353316" y1="1279.4228634059948" y2="1106.217782649107"/>
<line stroke="blue" x1="733.0127018922193" x2="559.8076211353314" y1="1279.4228634059948" y2="413.39745962155627"/>
<line stroke="blue" x1="733.0127018922193" x2="1159.8076211353316" y1="1279.4228634059948" y2="759.8076211353315"/>
<line stroke="blue" x1="733.0127018922193" x2="559.8076211353316" y1="1279.4228634059948" y2="1106.217782649107"/>
<line stroke="blue" x1="733.0127018922193" x2="559.8076211353314" y1="1279.4228634059948" y2="413.39745962155627"/>
<line stroke="blue" x1="733.0127018922193" x2="1159.8076211353316" y1="1279.4228634059948" y2="759.8076211353315"/>
<line stroke="blue" x1="733.0127018922193" x2="559.8076211353316" y1="1279.4228634059948" y2="1106.217782649107"/>
<line stroke="blue" x1="733.0127018922193" x2="559.8076211353314" y1="1279.4228634059948" y2="413.39745962155627"/>
<line stroke="blue" x1="733.0127018922193" x2="1159.8076211353316" y1="1279.4228634059948" y2="759.8076211353315"/>
<line stroke="blue" x1="733.0127018922193" x2="559.8076211353316" y1="1279.4228634059948" y2="1106.217782649107"/>
<line stroke="blue" x1="733.0127018922193" x2="559.8076211353314" y1="1279.4228634059948" y2="413.39745962155627"/>
<line stroke="blue" x1="733.0127018922193" x2="1159.8076211353316" y1="1279.4228634059948" y2="759.8076211353315"/>
<line stroke="blue" x1="733.0127018922193" x2="559.8076211353316" y1="1279.4228634059948" y2="1106.217782649107"/>
<line stroke="blue" x1="776.3139720814413" x2="516.5063509461097" y1="1322.7241335952167" y2="1062.916512459885"/>
<line stroke="blue" x1="776.3139720814413" x2="516.5063509461095" y1="1322.7241335952167" y2="370.0961894323343"/>
<line stroke="blue" x1="776.3139720814413" x2="1116.5063509461097" y1="1322.7241335952167" y2="716.5063509461096"/>
<line stroke="blue" x1="776.3139720814413" x2="516.5063509461097" y1="1322.7241335952167" y2="1062.916512459885"/>
<line stroke="blue" x1="776.3139720814413" x2="516.5063509461095" y1="1322.7241335952167" y2="370.0961894323343"/>
<line stroke="blue" x1="776.3139720814413" x2="1116.5063509461097" y1="1322.7241335952167" y2="716.5063509461096"/>
<line stroke="blue" x1="776.3139720814413" x2="516.5063509461097" y1="1322.7241335952167" y2="1062.916512459885"/>
<line stroke="blue" x1="776.3139720814413" x2="516.5063509461095" y1="1322.7241335952167" y2="370.0961894323343"/>
<line stroke="blue" x1="776.3139720814413" x2="1116.5063509461097" y1="1322.7241335952167" y2="716.5063509461096"/>
<line stroke="blue" x1="776.3139720814413" x2="516.5063509461097" y1="1322.7241335952167" y2="1062.916512459885"/>
<line stroke="blue" x1="776.3139720814413" x2="516.5063509461095" y1="1322.7241335952167" y2="370.0961894323343"/>
<line stroke="blue" x1="776.3139720814413" x2="1116.5063509461097" y1="1322.7241335952167" y2="716.5063509461096"/>
<line stroke="blue" x1="776.3139720814413" x2="516.5063509461097" y1="1322.7241335952167" y2="1062.916512459885"/>
<line stroke="blue" x1="776.3139720814413" x2="516.5063509461095" y1="1322.7241335952167" y2="370.0961894323343"/>
<line stroke="blue" x1="776.3139720814413" x2="1116.5063509461097" y1="1322.7241335952167" y2="716.5063509461096"/>
<line stroke="blue" x1="776.3139720814413" x2="516.5063509461097" y1="1322.7241335952167" y2="1062.916512459885"/>
<line stroke="blue" x1="819.6152422706632" x2="473.2050807568877" y1="1366.0254037844388" y2="1019.6152422706632"/>
<line stroke="blue" x1="819.6152422706632" x2="473.2050807568875" y1="1366.0254037844388" y2="326.7949192431124"/>
<line stroke="blue" x1="819.6152422706632" x2="1073.2050807568878" y1="1366.0254037844388" y2="673.2050807568876"/>
<line stroke="blue" x1="819.6152422706632" x2="473.2050807568877" y1="1366.0254037844388" y2="1019.6152422706632"/>
<line stroke="blue" x1="819.6152422706632" x2="473.2050807568875" y1="1366.0254037844388" y2="326.7949192431124"/>
<line stroke="blue" x1="819.6152422706632" x2="1073.2050807568878" y1="1366.0254037844388" y2="673.2050807568876"/>
<line stroke="blue" x1="819.6152422706632" x2="473.2050807568877" y1="1366.0254037844388" y2="1019.6152422706632"/>
<line stroke="blue" x1="819.6152422706632" x2="473.2050807568875" y1="1366.0254037844388" y2="326.7949192431124"/>
<line stroke="blue" x1="819.6152422706632" x2="1073.2050807568878" y1="1366.0254037844388" y2="673.2050807568876"/>
<line stroke="blue" x1="819.6152422706632" x2="473.2050807568877" y1="1366.0254037844388" y2="1019.6152422706632"/>
<line stroke="blue" x1="819.6152422706632" x2="473.2050807568875" y1="1366.0254037844388" y2="326.7949192431124"/>
<line stroke="blue" x1="819.6152422706632" x2="1073.2050807568878" y1="1366.0254037844388" y2="673.2050807568876"/>
<line stroke="blue" x1="819.6152422706632" x2="473.2050807568877" y1="1366.0254037844388" y2="1019.6152422706632"/>
<line stroke="blue" x1="819.6152422706632" x2="473.2050807568875" y1="1366.0254037844388" y2="326.7949192431124"/>
<line stroke="blue" x1="819.6152422706632" x2="1073.2050807568878" y1="1366.0254037844388" y2="673.2050807568876"/>
<line stroke="blue" x1="819.6152422706632" x2="473.2050807568877" y1="1366.0254037844388" y2="1019.6152422706632"/>
<line stroke="blue" x1="862.9165124598851" x2="429.9038105676658" y1="1409.3266739736605" y2="976.3139720814413"/>
<line stroke="blue" x1="862.9165124598851" x2="429.9038105676656" y1="1409.3266739736605" y2="283.4936490538905"/>
<line stroke="blue" x1="862.9165124598851" x2="1029.903810567666" y1="1409.3266739736605" y2="629.9038105676657"/>
<line stroke="blue" x1="862.9165124598851" x2="429.9038105676658" y1="1409.3266739736605" y2="976.3139720814413"/>
<line stroke="blue" x1="862.9165124598851" x2="429.9038105676656" y1="1409.3266739736605" y2="283.4936490538905"/>
<line stroke="blue" x1="862.9165124598851" x2="1029.903810567666" y1="1409.3266739736605" y2="629.9038105676657"/>
<line stroke="blue" x1="862.9165124598851" x2="429.9038105676658" y1="1409.3266739736605" y2="976.3139720814413"/>
<line stroke="blue" x1="862.9165124598851" x2="429.9038105676656" y1="1409.3266739736605" y2="283.4936490538905"/>
<line stroke="blue" x1="862.9165124598851" x2="1029.903810567666" y1="1409.3266739736605" y2="629.9038105676657"/>
<line stroke="blue" x1="862.9165124598851" x2="429.9038105676658" y1="1409.3266739736605" y2="976.3139720814413"/>
<line stroke="blue" x1="862.9165124598851" x2="429.9038105676656" y1="1409.3266739736605" y2="283.4936490538905"/>
<line stroke="blue" x1="862.9165124598851" x2="1029.903810567666" y1="1409.3266739736605" y2="629.9038105676657"/>
<line stroke="blue" x1="862.9165124598851" x2="429.9038105676658" y1="1409.3266739736605" y2="976.3139720814413"/>
<line stroke="blue" x1="862.9165124598851" x2="429.9038105676656" y1="1409.3266739736605" y2="283.4936490538905"/>
<line stroke="blue" x1="862.9165124598851" x2="1029.903810567666" y1="1409.3266739736605" y2="629.9038105676657"/>
<line stroke="blue" x1="862.9165124598851" x2="429.9038105676658" y1="1409.3266739736605" y2="976.3139720814413"/>
<line stroke="blue" x1="906.217782649107" x2="386.60254037844385" y1="1452.6279441628826" y2="933.0127018922194"/>
<line stroke="blue" x1="906.217782649107" x2="386.6025403784437" y1="1452.6279441628826" y2="240.19237886466857"/>
<line stroke="blue" x1="906.217782649107" x2="986.6025403784439" y1="1452.6279441628826" y2="586.6025403784438"/>
<line stroke="blue" x1="906.217782649107" x2="386.60254037844385" y1="1452.6279441628826" y2="933.0127018922194"/>
<line stroke="blue" x1="906.217782649107" x2="386.6025403784437" y1="1452.6279441628826" y2="240.19237886466857"/>
<line stroke="blue" x1="906.217782649107" x2="986.6025403784439" y1="1452.6279441628826" y2="586.6025403784438"/>
<line stroke="blue" x1="906.217782649107" x2="386.60254037844385" y1="1452.6279441628826" y2="933.0127018922194"/>
<line stroke="blue" x1="906.217782649107" x2="386.6025403784437" y1="1452.6279441628826" y2="240.19237886466857"/>
<line stroke="blue" x1="906.217782649107" x2="986.6025403784439" y1="1452.6279441628826" y2="586.6025403784438"/>
<line stroke="blue" x1="906.217782649107" x2="386.60254037844385" y1="1452.6279441628826" y2="933.0127018922194"/>
<line stroke="blue" x1="906.217782649107" x2="386.6025403784437" y1="1452.6279441628826" y2="240.19237886466857"/>
<line stroke="blue" x1="906.217782649107" x2="986.6025403784439" y1="1452.6279441628826" y2="586.6025403784438"/>
<line stroke="blue" x1="906.217782649107" x2="386.60254037844385" y1="1452.6279441628826" y2="933.0127018922194"/>
<line stroke="blue" x1="906.217782649107" x2="386.6025403784437" y1="1452.6279441628826" y2="240.19237886466857"/>
<line stroke="blue" x1="906.217782649107" x2="986.6025403784439" y1="1452.6279441628826" y2="586.6025403784438"/>
<line stroke="blue" x1="906.217782649107" x2="386.60254037844385" y1="1452.6279441628826" y2="933.0127018922194"/>
<line stroke="blue" x1="949.519052838329" x2="343.30127018922195" y1="1495.9292143521045" y2="889.7114317029974"/>
<line stroke="blue" x1="949.519052838329" x2="343.3012701892218" y1="1495.9292143521045" y2="196.89110867544665"/>
<line stroke="blue" x1="949.519052838329" x2="943.3012701892219" y1="1495.9292143521045" y2="543.3012701892218"/>
<line stroke="blue" x1="949.519052838329" x2="343.30127018922195" y1="1495.9292143521045" y2="889.7114317029974"/>
<line stroke="blue" x1="949.519052838329" x2="343.3012701892218" y1="1495.9292143521045" y2="196.89110867544665"/>
<line stroke="blue" x1="949.519052838329" x2="943.3012701892219" y1="1495.9292143521045" y2="543.3012701892218"/>
<line stroke="blue" x1="949.519052838329" x2="343.30127018922195" y1="1495.9292143521045" y2="889.7114317029974"/>
<line stroke="blue" x1="949.519052838329" x2="343.3012701892218" y1="1495.9292143521045" y2="196.89110867544665"/>
<line stroke="blue" x1="949.519052838329" x2="943.3012701892219" y1="1495.9292143521045" y2="543.3012701892218"/>
<line stroke="blue" x1="949.519052838329" x2="343.30127018922195" y1="1495.9292143521045" y2="889.7114317029974"/>
<line stroke="blue" x1="949.519052838329" x2="343.3012701892218" y1="1495.9292143521045" y2="196.89110867544665"/>
<line stroke="blue" x1="949.519052838329" x2="943.3012701892219" y1="1495.9292143521045" y2="543.3012701892218"/>
<line stroke="blue" x1="949.519052838329" x2="343.30127018922195" y1="1495.9292143521045" y2="889.7114317029974"/>
<line stroke="blue" x1="949.519052838329" x2="343.3012701892218" y1="1495.9292143521045" y2="196.89110867544665"/>
<line stroke="blue" x1="949.519052838329" x2="943.3012701892219" y1="1495.9292143521045" y2="543.3012701892218"/>
<line stroke="blue" x1="949.519052838329" x2="343.30127018922195" y1="1495.9292143521045" y2="889.7114317029974"/>
<line stroke="blue" x1="299.99999999999983" x2="299.99999999999983" y1="153.58983848622472" y2="153.58983848622472"/>
<line stroke="blue" x1="299.99999999999983" x2="900" y1="153.58983848622472" y2="499.9999999999999"/>
<line stroke="blue" x1="299.99999999999983" x2="300" y1="153.58983848622472" y2="846.4101615137755"/>
<line stroke="blue" x1="299.99999999999983" x2="299.99999999999983" y1="153.58983848622472" y2="153.58983848622472"/>
<line stroke="blue" x1="299.99999999999983" x2="900" y1="153.58983848622472" y2="499.9999999999999"/>
<line stroke="blue" x1="299.99999999999983" x2="300" y1="153.58983848622472" y2="846.4101615137755"/>
<line stroke="blue" x1="299.99999999999983" x2="299.99999999999983" y1="153.58983848622472" y2="153.58983848622472"/>
<line stroke="blue" x1="299.99999999999983" x2="900" y1="153.58983848622472" y2="499.9999999999999"/>
<line stroke="blue" x1="299.99999999999983" x2="300" y1="153.58983848622472" y2="846.4101615137755"/>
<line stroke="blue" x1="299.99999999999983" x2="299.99999999999983" y1="153.58983848622472" y2="153.58983848622472"/>
<line stroke="blue" x1="299.99999999999983" x2="900" y1="153.58983848622472" y2="499.9999999999999"/>
<line stroke="blue" x1="299.99999999999983" x2="300" y1="153.58983848622472" y2="846.4101615137755"/>
<line stroke="blue" x1="299.99999999999983" x2="299.99999999999983" y1="153.58983848622472" y2="153.58983848622472"/>
<line stroke="blue" x1="299.99999999999983" x2="900" y1="153.58983848622472" y2="499.9999999999999"/>
<line stroke="blue" x1="299.99999999999983" x2="300" y1="153.58983848622472" y2="846.4101615137755"/>
<line stroke="blue" x1="299.99999999999983" x2="299.99999999999983" y1="153.58983848622472" y2="153.58983848622472"/>
<line stroke="blue" x1="343.3012701892218" x2="949.5190528383287" y1="196.89110867544665" y2="803.1088913245536"/>
<line stroke="blue" x1="343.3012701892218" x2="1549.5190528383291" y1="196.89110867544665" y2="1149.5190528383291"/>
<line stroke="blue" x1="343.3012701892218" x2="949.519052838329" y1="196.89110867544665" y2="1495.9292143521045"/>
<line stroke="blue" x1="343.3012701892218" x2="949.5190528383287" y1="196.89110867544665" y2="803.1088913245536"/>
<line stroke="blue" x1="343.3012701892218" x2="1549.5190528383291" y1="196.89110867544665" y2="1149.5190528383291"/>
<line stroke="blue" x1="343.3012701892218" x2="949.519052838329" y1="196.89110867544665" y2="1495.9292143521045"/>
<line stroke="blue" x1="343.3012701892218" x2="949.5190528383287" y1="196.89110867544665" y2="803.1088913245536"/>
<line stroke="blue" x1="343.3012701892218" x2="1549.5190528383291" y1="196.89110867544665" y2="1149.5190528383291"/>
<line stroke="blue" x1="343.3012701892218" x2="949.519052838329" y1="196.89110867544665" y2="1495.9292143521045"/>
<line stroke="blue" x1="343.3012701892218" x2="949.5190528383287" y1="196.89110867544665" y2="803.1088913245536"/>
<line stroke="blue" x1="343.3012701892218" x2="1549.5190528383291" y1="196.89110867544665" y2="1149.5190528383291"/>
<line stroke="blue" x1="343.3012701892218" x2="949.519052838329" y1="196.89110867544665" y2="1495.9292143521045"/>
<line stroke="blue" x1="343.3012701892218" x2="949.5190528383287" y1="196.89110867544665" y2="803.1088913245536"/>
<line stroke="blue" x1="343.3012701892218" x2="1549.5190528383291" y1="196.89110867544665" y2="1149.5190528383291"/>
<line stroke="blue" x1="343.3012701892218" x2="949.519052838329" y1="196.89110867544665" y2="1495.9292143521045"/>
<line stroke="blue" x1="343.3012701892218" x2="949.5190528383287" y1="196.89110867544665" y2="803.1088913245536"/>
<line stroke="blue" x1="386.6025403784437" x2="906.2177826491068" y1="240.19237886466857" y2="759.8076211353317"/>
<line stroke="blue" x1="386.6025403784437" x2="1506.217782649107" y1="240.19237886466857" y2="1106.217782649107"/>
<line stroke="blue" x1="386.6025403784437" x2="906.217782649107" y1="240.19237886466857" y2="1452.6279441628826"/>
<line stroke="blue" x1="386.6025403784437" x2="906.2177826491068" y1="240.19237886466857" y2="759.8076211353317"/>
<line stroke="blue" x1="386.6025403784437" x2="1506.217782649107" y1="240.19237886466857" y2="1106.217782649107"/>
<line stroke="blue" x1="386.6025403784437" x2="906.217782649107" y1="240.19237886466857" y2="1452.6279441628826"/>
<line stroke="blue" x1="386.6025403784437" x2="906.2177826491068" y1="240.19237886466857" y2="759.8076211353317"/>
<line stroke="blue" x1="386.6025403784437" x2="1506.217782649107" y1="240.19237886466857" y2="1106.217782649107"/>
<line stroke="blue" x1="386.6025403784437" x2="906.217782649107" y1="240.19237886466857" y2="1452.6279441628826"/>
<line stroke="blue" x1="386.6025403784437" x2="906.2177826491068" y1="240.19237886466857" y2="759.8076211353317"/>
<line stroke="blue" x1="386.6025403784437" x2="1506.217782649107" y1="240.19237886466857" y2="1106.217782649107"/>
<line stroke="blue" x1="386.6025403784437" x2="906.217782649107" y1="240.19237886466857" y2="1452.6279441628826"/>
<line stroke="blue" x1="386.6025403784437" x2="906.2177826491068" y1="240.19237886466857" y2="759.8076211353317"/>
<line stroke="blue" x1="386.6025403784437" x2="1506.217782649107" y1="240.19237886466857" y2="1106.217782649107"/>
<line stroke="blue" x1="386.6025403784437" x2="906.217782649107" y1="240.19237886466857" y2="1452.6279441628826"/>
<line stroke="blue" x1="386.6025403784437" x2="906.2177826491068" y1="240.19237886466857" y2="759.8076211353317"/>
<line stroke="blue" x1="429.9038105676656" x2="862.9165124598849" y1="283.4936490538905" y2="716.5063509461097"/>
<line stroke="blue" x1="429.9038105676656" x2="1462.9165124598853" y1="283.4936490538905" y2="1062.916512459885"/>
<line stroke="blue" x1="429.9038105676656" x2="862.9165124598851" y1="283.4936490538905" y2="1409.3266739736605"/>
<line stroke="blue" x1="429.9038105676656" x2="862.9165124598849" y1="283.4936490538905" y2="716.5063509461097"/>
<line stroke="blue" x1="429.9038105676656" x2="1462.9165124598853" y1="283.4936490538905" y2="1062.916512459885"/>
<line stroke="blue" x1="429.9038105676656" x2="862.9165124598851" y1="283.4936490538905" y2="1409.3266739736605"/>
<line stroke="blue" x1="429.9038105676656" x2="862.9165124598849" y1="283.4936490538905" y2="716.5063509461097"/>
<line stroke="blue" x1="429.9038105676656" x2="1462.9165124598853" y1="283.4936490538905" y2="1062.916512459885"/>
<line stroke="blue" x1="429.9038105676656" x2="862.9165124598851" y1="283.4936490538905" y2="1409.3266739736605"/>
<line stroke="blue" x1="429.9038105676656" x2="862.9165124598849" y1="283.4936490538905" y2="716.5063509461097"/>
<line stroke="blue" x1="429.9038105676656" x2="1462.9165124598853" y1="283.4936490538905" y2="1062.916512459885"/>
<line stroke="blue" x1="429.9038105676656" x2="862.9165124598851" y1="283.4936490538905" y2="1409.3266739736605"/>
<line stroke="blue" x1="429.9038105676656" x2="862.9165124598849" y1="283.4936490538905" y2="716.5063509461097"/>
<line stroke="blue" x1="429.9038105676656" x2="1462.9165124598853" y1="283.4936490538905" y2="1062.916512459885"/>
<line stroke="blue" x1="429.9038105676656" x2="862.9165124598851" y1="283.4936490538905" y2="1409.3266739736605"/>
<line stroke="blue" x1="429.9038105676656" x2="862.9165124598849" y1="283.4936490538905" y2="716.5063509461097"/>
<line stroke="blue" x1="473.2050807568875" x2="819.615242270663" y1="326.7949192431124" y2="673.2050807568878"/>
<line stroke="blue" x1="473.2050807568875" x2="1419.6152422706632" y1="326.7949192431124" y2="1019.6152422706631"/>
<line stroke="blue" x1="473.2050807568875" x2="819.6152422706632" y1="326.7949192431124" y2="1366.0254037844388"/>
<line stroke="blue" x1="473.2050807568875" x2="819.615242270663" y1="326.7949192431124" y2="673.2050807568878"/>
<line stroke="blue" x1="473.2050807568875" x2="1419.6152422706632" y1="326.7949192431124" y2="1019.6152422706631"/>
<line stroke="blue" x1="473.2050807568875" x2="819.6152422706632" y1="326.7949192431124" y2="1366.0254037844388"/>
<line stroke="blue" x1="473.2050807568875" x2="819.615242270663" y1="326.7949192431124" y2="673.2050807568878"/>
<line stroke="blue" x1="473.2050807568875" x2="1419.6152422706632" y1="326.7949192431124" y2="1019.6152422706631"/>
<line stroke="blue" x1="473.2050807568875" x2="819.6152422706632" y1="326.7949192431124" y2="1366.0254037844388"/>
<line stroke="blue" x1="473.2050807568875" x2="819.615242270663" y1="326.7949192431124" y2="673.2050807568878"/>
<line stroke="blue" x1="473.2050807568875" x2="1419.6152422706632" y1="326.7949192431124" y2="1019.6152422706631"/>
<line stroke="blue" x1="473.2050807568875" x2="819.6152422706632" y1="326.7949192431124" y2="1366.0254037844388"/>
<line stroke="blue" x1="473.2050807568875" x2="819.615242270663" y1="326.7949192431124" y2="673.2050807568878"/>
<line stroke="blue" x1="473.2050807568875" x2="1419.6152422706632" y1="326.7949192431124" y2="1019.6152422706631"/>
<line stroke="blue" x1="473.2050807568875" x2="819.6152422706632" y1="326.7949192431124" y2="1366.0254037844388"/>
<line stroke="blue" x1="473.2050807568875" x2="819.615242270663" y1="326.7949192431124" y2="673.2050807568878"/>
<line stroke="blue" x1="516.5063509461095" x2="776.3139720814411" y1="370.0961894323343" y2="629.9038105676659"/>
<line stroke="blue" x1="516.5063509461095" x2="1376.3139720814413" y1="370.0961894323343" y2="976.3139720814412"/>
<line stroke="blue" x1="516.5063509461095" x2="776.3139720814413" y1="370.0961894323343" y2="1322.7241335952167"/>
<line stroke="blue" x1="516.5063509461095" x2="776.3139720814411" y1="370.0961894323343" y2="629.9038105676659"/>
<line stroke="blue" x1="516.5063509461095" x2="1376.3139720814413" y1="370.0961894323343" y2="976.3139720814412"/>
<line stroke="blue" x1="516.5063509461095" x2="776.3139720814413" y1="370.0961894323343" y2="1322.7241335952167"/>
<line stroke="blue" x1="516.5063509461095" x2="776.3139720814411" y1="370.0961894323343" y2="629.9038105676659"/>
<line stroke="blue" x1="516.5063509461095" x2="1376.3139720814413" y1="370.0961894323343" y2="976.3139720814412"/>
<line stroke="blue" x1="516.5063509461095" x2="776.3139720814413" y1="370.0961894323343" y2="1322.7241335952167"/>
<line stroke="blue" x1="516.5063509461095" x2="776.3139720814411" y1="370.0961894323343" y2="629.9038105676659"/>
<line stroke="blue" x1="516.5063509461095" x2="1376.3139720814413" y1="370.0961894323343" y2="976.3139720814412"/>
<line stroke="blue" x1="516.5063509461095" x2="776.3139720814413" y1="370.0961894323343" y2="1322.7241335952167"/>
<line stroke="blue" x1="516.5063509461095" x2="776.3139720814411" y1="370.0961894323343" y2="629.9038105676659"/>
<line stroke="blue" x1="516.5063509461095" x2="1376.3139720814413" y1="370.0961894323343" y2="976.3139720814412"/>
<line stroke="blue" x1="516.5063509461095" x2="776.3139720814413" y1="370.0961894323343" y2="1322.7241335952167"/>
<line stroke="blue" x1="516.5063509461095" x2="776.3139720814411" y1="370.0961894323343" y2="629.9038105676659"/>
<line stroke="blue" x1="559.8076211353314" x2="733.0127018922191" y1="413.39745962155627" y2="586.602540378444"/>
<line stroke="blue" x1="559.8076211353314" x2="1333.0127018922194" y1="413.39745962155627" y2="933.0127018922193"/>
<line stroke="blue" x1="559.8076211353314" x2="733.0127018922193" y1="413.39745962155627" y2="1279.4228634059948"/>
<line stroke="blue" x1="559.8076211353314" x2="733.0127018922191" y1="413.39745962155627" y2="586.602540378444"/>
<line stroke="blue" x1="559.8076211353314" x2="1333.0127018922194" y1="413.39745962155627" y2="933.0127018922193"/>
<line stroke="blue" x1="559.8076211353314" x2="733.0127018922193" y1="413.39745962155627" y2="1279.4228634059948"/>
<line stroke="blue" x1="559.8076211353314" x2="733.0127018922191" y1="413.39745962155627" y2="586.602540378444"/>
<line stroke="blue" x1="559.8076211353314" x2="1333.0127018922194" y1="413.39745962155627" y2="933.0127018922193"/>
<line stroke="blue" x1="559.8076211353314" x2="733.0127018922193" y1="413.39745962155627" y2="1279.4228634059948"/>
<line stroke="blue" x1="559.8076211353314" x2="733.0127018922191" y1="413.39745962155627" y2="586.602540378444"/>
<line stroke="blue" x1="559.8076211353314" x2="1333.0127018922194" y1="413.39745962155627" y2="933.0127018922193"/>
<line stroke="blue" x1="559.8076211353314" x2="733.0127018922193" y1="413.39745962155627" y2="1279.4228634059948"/>
<line stroke="blue" x1="559.8076211353314" x2="733.0127018922191" y1="413.39745962155627" y2="586.602540378444"/>
<line stroke="blue" x1="559.8076211353314" x2="1333.0127018922194" y1="413.39745962155627" y2="933.0127018922193"/>
<line stroke="blue" x1="559.8076211353314" x2="733.0127018922193" y1="413.39745962155627" y2="1279.4228634059948"/>
<line stroke="blue" x1="559.8076211353314" x2="733.0127018922191" y1="413.39745962155627" y2="586.602540378444"/>
<line stroke="blue" x1="603.1088913245533" x2="689.7114317029971" y1="456.6987298107782" y2="543.301270189222"/>
<line stroke="blue" x1="603.1088913245533" x2="1289.7114317029975" y1="456.6987298107782" y2="889.7114317029973"/>
<line stroke="blue" x1="603.1088913245533" x2="689.7114317029974" y1="456.6987298107782" y2="1236.121593216773"/>
<line stroke="blue" x1="603.1088913245533" x2="689.7114317029971" y1="456.6987298107782" y2="543.301270189222"/>
<line stroke="blue" x1="603.1088913245533" x2="1289.7114317029975" y1="456.6987298107782" y2="889.7114317029973"/>
<line stroke="blue" x1="603.1088913245533" x2="689.7114317029974" y1="456.6987298107782" y2="1236.121593216773"/>
<line stroke="blue" x1="603.1088913245533" x2="689.7114317029971" y1="456.6987298107782" y2="543.301270189222"/>
<line stroke="blue" x1="603.1088913245533" x2="1289.7114317029975" y1="456.6987298107782" y2="889.7114317029973"/>
<line stroke="blue" x1="603.1088913245533" x2="689.7114317029974" y1="456.6987298107782" y2="1236.121593216773"/>
<line stroke="blue" x1="603.1088913245533" x2="689.7114317029971" y1="456.6987298107782" y2="543.301270189222"/>
<line stroke="blue" x1="603.1088913245533" x2="1289.7114317029975" y1="456.6987298107782" y2="889.7114317029973"/>
<line stroke="blue" x1="603.1088913245533" x2="689.7114317029974" y1="456.6987298107782" y2="1236.121593216773"/>
<line stroke="blue" x1="603.1088913245533" x2="689.7114317029971" y1="456.6987298107782" y2="543.301270189222"/>
<line stroke="blue" x1="603.1088913245533" x2="1289.7114317029975" y1="456.6987298107782" y2="889.7114317029973"/>
<line stroke="blue" x1="603.1088913245533" x2="689.7114317029974" y1="456.6987298107782" y2="1236.121593216773"/>
<line stroke="blue" x1="603.1088913245533" x2="689.7114317029971" y1="456.6987298107782" y2="543.301270189222"/>
<line stroke="blue" x1="646.4101615137752" x2="646.4101615137752" y1="500.0000000000001" y2="500.0000000000001"/>
<line stroke="blue" x1="646.4101615137752" x2="1246.4101615137756" y1="500.0000000000001" y2="846.4101615137754"/>
<line stroke="blue" x1="646.4101615137752" x2="646.4101615137754" y1="500.0000000000001" y2="1192.820323027551"/>
<line stroke="blue" x1="646.4101615137752" x2="646.4101615137752" y1="500.0000000000001" y2="500.0000000000001"/>
<line stroke="blue" x1="646.4101615137752" x2="1246.4101615137756" y1="500.0000000000001" y2="846.4101615137754"/>
<line stroke="blue" x1="646.4101615137752" x2="646.4101615137754" y1="500.0000000000001" y2="1192.820323027551"/>
<line stroke="blue" x1="646.4101615137752" x2="646.4101615137752" y1="500.0000000000001" y2="500.0000000000001"/>
<line stroke="blue" x1="646.4101615137752" x2="1246.4101615137756" y1="500.0000000000001" y2="846.4101615137754"/>
<line stroke="blue" x1="646.4101615137752" x2="646.4101615137754" y1="500.0000000000001" y2="1192.820323027551"/>
<line stroke="blue" x1="646.4101615137752" x2="646.4101615137752" y1="500.0000000000001" y2="500.0000000000001"/>
<line stroke="blue" x1="646.4101615137752" x2="1246.4101615137756" y1="500.0000000000001" y2="846.4101615137754"/>
<line stroke="blue" x1="646.4101615137752" x2="646.4101615137754" y1="500.0000000000001" y2="1192.820323027551"/>
<line stroke="blue" x1="646.4101615137752" x2="646.4101615137752" y1="500.0000000000001" y2="500.0000000000001"/>
<line stroke="blue" x1="646.4101615137752" x2="1246.4101615137756" y1="500.0000000000001" y2="846.4101615137754"/>
<line stroke="blue" x1="646.4101615137752" x2="646.4101615137754" y1="500.0000000000001" y2="1192.820323027551"/>
<line stroke="blue" x1="646.4101615137752" x2="646.4101615137752" y1="500.0000000000001" y2="500.0000000000001"/>
<line stroke="blue" x1="689.7114317029971" x2="603.1088913245533" y1="543.301270189222" y2="456.6987298107782"/>
<line stroke="blue" x1="689.7114317029971" x2="1203.1088913245535" y1="543.301270189222" y2="803.1088913245535"/>
<line stroke="blue" x1="689.7114317029971" x2="603.1088913245535" y1="543.301270189222" y2="1149.5190528383291"/>
<line stroke="blue" x1="689.7114317029971" x2="603.1088913245533" y1="543.301270189222" y2="456.6987298107782"/>
<line stroke="blue" x1="689.7114317029971" x2="1203.1088913245535" y1="543.301270189222" y2="803.1088913245535"/>
<line stroke="blue" x1="689.7114317029971" x2="603.1088913245535" y1="543.301270189222" y2="1149.5190528383291"/>
<line stroke="blue" x1="689.7114317029971" x2="603.1088913245533" y1="543.301270189222" y2="456.6987298107782"/>
<line stroke="blue" x1="689.7114317029971" x2="1203.1088913245535" y1="543.301270189222" y2="803.1088913245535"/>
<line stroke="blue" x1="689.7114317029971" x2="603.1088913245535" y1="543.301270189222" y2="1149.5190528383291"/>
<line stroke="blue" x1="689.7114317029971" x2="603.1088913245533" y1="543.301270189222" y2="456.6987298107782"/>
<line stroke="blue" x1="689.7114317029971" x2="1203.1088913245535" y1="543.301270189222" y2="803.1088913245535"/>
<line stroke="blue" x1="689.7114317029971" x2="603.1088913245535" y1="543.301270189222" y2="1149.5190528383291"/>
<line stroke="blue" x1="689.7114317029971" x2="603.1088913245533" y1="543.301270189222" y2="456.6987298107782"/>
<line stroke="blue" x1="689.7114317029971" x2="1203.1088913245535" y1="543.301270189222" y2="803.1088913245535"/>
<line stroke="blue" x1="689.7114317029971" x2="603.1088913245535" y1="543.301270189222" y2="1149.5190528383291"/>
<line stroke="blue" x1="689.7114317029971" x2="603.1088913245533" y1="543.301270189222" y2="456.6987298107782"/>
<line stroke="blue" x1="733.0127018922191" x2="559.8076211353314" y1="586.602540378444" y2="413.39745962155627"/>
<line stroke="blue" x1="733.0127018922191" x2="1159.8076211353316" y1="586.602540378444" y2="759.8076211353315"/>
<line stroke="blue" x1="733.0127018922191" x2="559.8076211353316" y1="586.602540378444" y2="1106.217782649107"/>
<line stroke="blue" x1="733.0127018922191" x2="559.8076211353314" y1="586.602540378444" y2="413.39745962155627"/>
<line stroke="blue" x1="733.0127018922191" x2="1159.8076211353316" y1="586.602540378444" y2="759.8076211353315"/>
<line stroke="blue" x1="733.0127018922191" x2="559.8076211353316" y1="586.602540378444" y2="1106.217782649107"/>
<line stroke="blue" x1="733.0127018922191" x2="559.8076211353314" y1="586.602540378444" y2="413.39745962155627"/>
<line stroke="blue" x1="733.0127018922191" x2="1159.8076211353316" y1="586.602540378444" y2="759.8076211353315"/>
<line stroke="blue" x1="733.0127018922191" x2="559.8076211353316" y1="586.602540378444" y2="1106.217782649107"/>
<line stroke="blue" x1="733.0127018922191" x2="559.8076211353314" y1="586.602540378444" y2="413.39745962155627"/>
<line stroke="blue" x1="733.0127018922191" x2="1159.8076211353316" y1="586.602540378444" y2="759.8076211353315"/>
<line stroke="blue" x1="733.0127018922191" x2="559.8076211353316" y1="586.602540378444" y2="1106.217782649107"/>
<line stroke="blue" x1="733.0127018922191" x2="559.8076211353314" y1="586.602540378444" y2="413.39745962155627"/>
<line stroke="blue" x1="733.0127018922191" x2="1159.8076211353316" y1="586.602540378444" y2="759.8076211353315"/>
<line stroke="blue" x1="733.0127018922191" x2="559.8076211353316" y1="586.602540378444" y2="1106.217782649107"/>
<line stroke="blue" x1="733.0127018922191" x2="559.8076211353314" y1="586.602540378444" y2="413.39745962155627"/>
<line stroke="blue" x1="776.3139720814411" x2="516.5063509461095" y1="629.9038105676659" y2="370.0961894323343"/>
<line stroke="blue" x1="776.3139720814411" x2="1116.5063509461097" y1="629.9038105676659" y2="716.5063509461096"/>
<line stroke="blue" x1="776.3139720814411" x2="516.5063509461097" y1="629.9038105676659" y2="1062.916512459885"/>
<line stroke="blue" x1="776.3139720814411" x2="516.5063509461095" y1="629.9038105676659" y2="370.0961894323343"/>
<line stroke="blue" x1="776.3139720814411" x2="1116.5063509461097" y1="629.9038105676659" y2="716.5063509461096"/>
<line stroke="blue" x1="776.3139720814411" x2="516.5063509461097" y1="629.9038105676659" y2="1062.916512459885"/>
<line stroke="blue" x1="776.3139720814411" x2="516.5063509461095" y1="629.9038105676659" y2="370.0961894323343"/>
<line stroke="blue" x1="776.3139720814411" x2="1116.5063509461097" y1="629.9038105676659" y2="716.5063509461096"/>
<line stroke="blue" x1="776.3139720814411" x2="516.5063509461097" y1="629.9038105676659" y2="1062.916512459885"/>
<line stroke="blue" x1="776.3139720814411" x2="516.5063509461095" y1="629.9038105676659" y2="370.0961894323343"/>
<line stroke="blue" x1="776.3139720814411" x2="1116.5063509461097" y1="629.9038105676659" y2="716.5063509461096"/>
<line stroke="blue" x1="776.3139720814411" x2="516.5063509461097" y1="629.9038105676659" y2="1062.916512459885"/>
<line stroke="blue" x1="776.3139720814411" x2="516.5063509461095" y1="629.9038105676659" y2="370.0961894323343"/>
<line stroke="blue" x1="776.3139720814411" x2="1116.5063509461097" y1="629.9038105676659" y2="716.5063509461096"/>
<line stroke="blue" x1="776.3139720814411" x2="516.5063509461097" y1="629.9038105676659" y2="1062.916512459885"/>
<line stroke="blue" x1="776.3139720814411" x2="516.5063509461095" y1="629.9038105676659" y2="370.0961894323343"/>
<line stroke="blue" x1="819.615242270663" x2="473.2050807568875" y1="673.2050807568878" y2="326.7949192431124"/>
<line stroke="blue" x1="819.615242270663" x2="1073.2050807568878" y1="673.2050807568878" y2="673.2050807568876"/>
<line stroke="blue" x1="819.615242270663" x2="473.2050807568877" y1="673.2050807568878" y2="1019.6152422706632"/>
<line stroke="blue" x1="819.615242270663" x2="473.2050807568875" y1="673.2050807568878" y2="326.7949192431124"/>
<line stroke="blue" x1="819.615242270663" x2="1073.2050807568878" y1="673.2050807568878" y2="673.2050807568876"/>
<line stroke="blue" x1="819.615242270663" x2="473.2050807568877" y1="673.2050807568878" y2="1019.6152422706632"/>
<line stroke="blue" x1="819.615242270663" x2="473.2050807568875" y1="673.2050807568878" y2="326.7949192431124"/>
<line stroke="blue" x1="819.615242270663" x2="1073.2050807568878" y1="673.2050807568878" y2="673.2050807568876"/>
<line stroke="blue" x1="819.615242270663" x2="473.2050807568877" y1="673.2050807568878" y2="1019.6152422706632"/>
<line stroke="blue" x1="819.615242270663" x2="473.2050807568875" y1="673.2050807568878" y2="326.7949192431124"/>
<line stroke="blue" x1="819.615242270663" x2="1073.2050807568878" y1="673.2050807568878" y2="673.2050807568876"/>
<line stroke="blue" x1="819.615242270663" x2="473.2050807568877" y1="673.2050807568878" y2="1019.6152422706632"/>
<line stroke="blue" x1="819.615242270663" x2="473.2050807568875" y1="673.2050807568878" y2="326.7949192431124"/>
<line stroke="blue" x1="819.615242270663" x2="1073.2050807568878" y1="673.2050807568878" y2="673.2050807568876"/>
<line stroke="blue" x1="819.615242270663" x2="473.2050807568877" y1="673.2050807568878" y2="1019.6152422706632"/>
<line stroke="blue" x1="819.615242270663" x2="473.2050807568875" y1="673.2050807568878" y2="326.7949192431124"/>
<line stroke="blue" x1="862.9165124598849" x2="429.9038105676656" y1="716.5063509461097" y2="283.4936490538905"/>
<line stroke="blue" x1="862.9165124598849" x2="1029.903810567666" y1="716.5063509461097" y2="629.9038105676657"/>
<line stroke="blue" x1="862.9165124598849" x2="429.9038105676658" y1="716.5063509461097" y2="976.3139720814413"/>
<line stroke="blue" x1="862.9165124598849" x2="429.9038105676656" y1="716.5063509461097" y2="283.4936490538905"/>
<line stroke="blue" x1="862.9165124598849" x2="1029.903810567666" y1="716.5063509461097" y2="629.9038105676657"/>
<line stroke="blue" x1="862.9165124598849" x2="429.9038105676658" y1="716.5063509461097" y2="976.3139720814413"/>
<line stroke="blue" x1="862.9165124598849" x2="429.9038105676656" y1="716.5063509461097" y2="283.4936490538905"/>
<line stroke="blue" x1="862.9165124598849" x2="1029.903810567666" y1="716.5063509461097" y2="629.9038105676657"/>
<line stroke="blue" x1="862.9165124598849" x2="429.9038105676658" y1="716.5063509461097" y2="976.3139720814413"/>
<line stroke="blue" x1="862.9165124598849" x2="429.9038105676656" y1="716.5063509461097" y2="283.4936490538905"/>
<line stroke="blue" x1="862.9165124598849" x2="1029.903810567666" y1="716.5063509461097" y2="629.9038105676657"/>
<line stroke="blue" x1="862.9165124598849" x2="429.9038105676658" y1="716.5063509461097" y2="976.3139720814413"/>
<line stroke="blue" x1="862.9165124598849" x2="429.9038105676656" y1="716.5063509461097" y2="283.4936490538905"/>
<line stroke="blue" x1="862.9165124598849" x2="1029.903810567666" y1="716.5063509461097" y2="629.9038105676657"/>
<line stroke="blue" x1="862.9165124598849" x2="429.9038105676658" y1="716.5063509461097" y2="976.3139720814413"/>
<line stroke="blue" x1="862.9165124598849" x2="429.9038105676656" y1="716.5063509461097" y2="283.4936490538905"/>
<line stroke="blue" x1="906.2177826491068" x2="386.6025403784437" y1="759.8076211353317" y2="240.19237886466857"/>
<line stroke="blue" x1="906.2177826491068" x2="986.6025403784439" y1="759.8076211353317" y2="586.6025403784438"/>
<line stroke="blue" x1="906.2177826491068" x2="386.60254037844385" y1="759.8076211353317" y2="933.0127018922194"/>
<line stroke="blue" x1="906.2177826491068" x2="386.6025403784437" y1="759.8076211353317" y2="240.19237886466857"/>
<line stroke="blue" x1="906.2177826491068" x2="986.6025403784439" y1="759.8076211353317" y2="586.6025403784438"/>
<line stroke="blue" x1="906.2177826491068" x2="386.60254037844385" y1="759.8076211353317" y2="933.0127018922194"/>
<line stroke="blue" x1="906.2177826491068" x2="386.6025403784437" y1="759.8076211353317" y2="240.19237886466857"/>
<line stroke="blue" x1="906.2177826491068" x2="986.6025403784439" y1="759.8076211353317" y2="586.6025403784438"/>
<line stroke="blue" x1="906.2177826491068" x2="386.60254037844385" y1="759.8076211353317" y2="933.0127018922194"/>
<line stroke="blue" x1="906.2177826491068" x2="386.6025403784437" y1="759.8076211353317" y2="240.19237886466857"/>
<line stroke="blue" x1="906.2177826491068" x2="986.6025403784439" y1="759.8076211353317" y2="586.6025403784438"/>
<line stroke="blue" x1="906.2177826491068" x2="386.60254037844385" y1="759.8076211353317" y2="933.0127018922194"/>
<line stroke="blue" x1="906.2177826491068" x2="386.6025403784437" y1="759.8076211353317" y2="240.19237886466857"/>
<line stroke="blue" x1="906.2177826491068" x2="986.6025403784439" y1="759.8076211353317" y2="586.6025403784438"/>
<line stroke="blue" x1="906.2177826491068" x2="386.60254037844385" y1="759.8076211353317" y2="933.0127018922194"/>
<line stroke="blue" x1="906.2177826491068" x2="386.6025403784437" y1="759.8076211353317" y2="240.19237886466857"/>
<line stroke="blue" x1="949.5190528383287" x2="343.3012701892218" y1="803.1088913245536" y2="196.89110867544665"/>
<line stroke="blue" x1="949.5190528383287" x2="943.3012701892219" y1="803.1088913245536" y2="543.3012701892218"/>
<line stroke="blue" x1="949.5190528383287" x2="343.30127018922195" y1="803.1088913245536" y2="889.7114317029974"/>
<line stroke="blue" x1="949.5190528383287" x2="343.3012701892218" y1="803.1088913245536" y2="196.89110867544665"/>
<line stroke="blue" x1="949.5190528383287" x2="943.3012701892219" y1="803.1088913245536" y2="543.3012701892218"/>
<line stroke="blue" x1="949.5190528383287" x2="343.30127018922195" y1="803.1088913245536" y2="889.7114317029974"/>
<line stroke="blue" x1="949.5190528383287" x2="343.3012701892218" y1="803.1088913245536" y2="196.89110867544665"/>
<line stroke="blue" x1="949.5190528383287" x2="943.3012701892219" y1="803.1088913245536" y2="543.3012701892218"/>
<line stroke="blue" x1="949.5190528383287" x2="343.30127018922195" y1="803.1088913245536" y2="889.7114317029974"/>
<line stroke="blue" x1="949.5190528383287" x2="343.3012701892218" y1="803.1088913245536" y2="196.89110867544665"/>
<line stroke="blue" x1="949.5190528383287" x2="943.3012701892219" y1="803.1088913245536" y2="543.3012701892218"/>
<line stroke="blue" x1="949.5190528383287" x2="343.30127018922195" y1="803.1088913245536" y2="889.7114317029974"/>
<line stroke="blue" x1="949.5190528383287" x2="343.3012701892218" y1="803.1088913245536" y2="196.89110867544665"/>
<line stroke="blue" x1="949.5190528383287" x2="943.3012701892219" y1="803.1088913245536" y2="543.3012701892218"/>
<line stroke="blue" x1="949.5190528383287" x2="343.30127018922195" y1="803.1088913245536" y2="889.7114317029974"/>
<line stroke="blue" x1="949.5190528383287" x2="343.3012701892218" y1="803.1088913245536" y2="196.89110867544665"/>
<line stroke="blue" x1="900" x2="900" y1="499.9999999999999" y2="499.9999999999999"/>
<line stroke="blue" x1="900" x2="300" y1="499.9999999999999" y2="846.4101615137755"/>
<line stroke="blue" x1="900" x2="299.99999999999983" y1="499.9999999999999" y2="153.58983848622472"/>
<line stroke="blue" x1="900" x2="900" y1="499.9999999999999" y2="499.9999999999999"/>
<line stroke="blue" x1="900" x2="300" y1="499.9999999999999" y2="846.4101615137755"/>
<line stroke="blue" x1="900" x2="299.99999999999983" y1="499.9999999999999" y2="153.58983848622472"/>
<line stroke="blue" x1="900" x2="900" y1="499.9999999999999" y2="499.9999999999999"/>
<line stroke="blue" x1="900" x2="300" y1="499.9999999999999" y2="846.4101615137755"/>
<line stroke="blue" x1="900" x2="299.99999999999983" y1="499.9999999999999" y2="153.58983848622472"/>
<line stroke="blue" x1="900" x2="900" y1="499.9999999999999" y2="499.9999999999999"/>
<line stroke="blue" x1="900" x2="300" y1="499.9999999999999" y2="846.4101615137755"/>
<line stroke="blue" x1="900" x2="299.99999999999983" y1="499.9999999999999" y2="153.58983848622472"/>
<line stroke="blue" x1="900" x2="900" y1="499.9999999999999" y2="499.9999999999999"/>
<line stroke="blue" x1="900" x2="300" y1="499.9999999999999" y2="846.4101615137755"/>
<line stroke="blue" x1="900" x2="299.99999999999983" y1="499.9999999999999" y2="153.58983848622472"/>
<line stroke="blue" x1="900" x2="900" y1="499.9999999999999" y2="499.9999999999999"/>
<line stroke="blue" x1="943.3012701892219" x2="1549.5190528383291" y1="543.3012701892218" y2="1149.5190528383291"/>
<line stroke="blue" x1="943.3012701892219" x2="949.519052838329" y1="543.3012701892218" y2="1495.9292143521045"/>
<line stroke="blue" x1="943.3012701892219" x2="949.5190528383287" y1="543.3012701892218" y2="803.1088913245536"/>
<line stroke="blue" x1="943.3012701892219" x2="1549.5190528383291" y1="543.3012701892218" y2="1149.5190528383291"/>
<line stroke="blue" x1="943.3012701892219" x2="949.519052838329" y1="543.3012701892218" y2="1495.9292143521045"/>
<line stroke="blue" x1="943.3012701892219" x2="949.5190528383287" y1="543.3012701892218" y2="803.1088913245536"/>
<line stroke="blue" x1="943.3012701892219" x2="1549.5190528383291" y1="543.3012701892218" y2="1149.5190528383291"/>
<line stroke="blue" x1="943.3012701892219" x2="949.519052838329" y1="543.3012701892218" y2="1495.9292143521045"/>
<line stroke="blue" x1="943.3012701892219" x2="949.5190528383287" y1="543.3012701892218" y2="803.1088913245536"/>
<line stroke="blue" x1="943.3012701892219" x2="1549.5190528383291" y1="543.3012701892218" y2="1149.5190528383291"/>
<line stroke="blue" x1="943.3012701892219" x2="949.519052838329" y1="543.3012701892218" y2="1495.9292143521045"/>
<line stroke="blue" x1="943.3012701892219" x2="949.5190528383287" y1="543.3012701892218" y2="803.1088913245536"/>
<line stroke="blue" x1="943.3012701892219" x2="1549.5190528383291" y1="543.3012701892218" y2="1149.5190528383291"/>
<line stroke="blue" x1="943.3012701892219" x2="949.519052838329" y1="543.3012701892218" y2="1495.9292143521045"/>
<line stroke="blue" x1="943.3012701892219" x2="949.5190528383287" y1="543.3012701892218" y2="803.1088913245536"/>
<line stroke="blue" x1="943.3012701892219" x2="1549.5190528383291" y1="543.3012701892218" y2="1149.5190528383291"/>
<line stroke="blue" x1="986.6025403784439" x2="1506.217782649107" y1="586.6025403784438" y2="1106.217782649107"/>
<line stroke="blue" x1="986.6025403784439" x2="906.217782649107" y1="586.6025403784438" y2="1452.6279441628826"/>
<line stroke="blue" x1="986.6025403784439" x2="906.2177826491068" y1="586.6025403784438" y2="759.8076211353317"/>
<line stroke="blue" x1="986.6025403784439" x2="1506.217782649107" y1="586.6025403784438" y2="1106.217782649107"/>
<line stroke="blue" x1="986.6025403784439" x2="906.217782649107" y1="586.6025403784438" y2="1452.6279441628826"/>
<line stroke="blue" x1="986.6025403784439" x2="906.2177826491068" y1="586.6025403784438" y2="759.8076211353317"/>
<line stroke="blue" x1="986.6025403784439" x2="1506.217782649107" y1="586.6025403784438" y2="1106.217782649107"/>
<line stroke="blue" x1="986.6025403784439" x2="906.217782649107" y1="586.6025403784438" y2="1452.6279441628826"/>
<line stroke="blue" x1="986.6025403784439" x2="906.2177826491068" y1="586.6025403784438" y2="759.8076211353317"/>
<line stroke="blue" x1="986.6025403784439" x2="1506.217782649107" y1="586.6025403784438" y2="1106.217782649107"/>
<line stroke="blue" x1="986.6025403784439" x2="906.217782649107" y1="586.6025403784438" y2="1452.6279441628826"/>
<line stroke="blue" x1="986.6025403784439" x2="906.2177826491068" y1="586.6025403784438" y2="759.8076211353317"/>
<line stroke="blue" x1="986.6025403784439" x2="1506.217782649107" y1="586.6025403784438" y2="1106.217782649107"/>
<line stroke="blue" x1="986.6025403784439" x2="906.217782649107" y1="586.6025403784438" y2="1452.6279441628826"/>
<line stroke="blue" x1="986.6025403784439" x2="906.2177826491068" y1="586.6025403784438" y2="759.8076211353317"/>
<line stroke="blue" x1="986.6025403784439" x2="1506.217782649107" y1="586.6025403784438" y2="1106.217782649107"/>
<line stroke="blue" x1="1029.903810567666" x2="1462.9165124598853" y1="629.9038105676657" y2="1062.916512459885"/>
<line stroke="blue" x1="1029.903810567666" x2="862.9165124598851" y1="629.9038105676657" y2="1409.3266739736605"/>
<line stroke="blue" x1="1029.903810567666" x2="862.9165124598849" y1="629.9038105676657" y2="716.5063509461097"/>
<line stroke="blue" x1="1029.903810567666" x2="1462.9165124598853" y1="629.9038105676657" y2="1062.916512459885"/>
<line stroke="blue" x1="1029.903810567666" x2="862.9165124598851" y1="629.9038105676657" y2="1409.3266739736605"/>
<line stroke="blue" x1="1029.903810567666" x2="862.9165124598849" y1="629.9038105676657" y2="716.5063509461097"/>
<line stroke="blue" x1="1029.903810567666" x2="1462.9165124598853" y1="629.9038105676657" y2="1062.916512459885"/>
<line stroke="blue" x1="1029.903810567666" x2="862.9165124598851" y1="629.9038105676657" y2="1409.3266739736605"/>
<line stroke="blue" x1="1029.903810567666" x2="862.9165124598849" y1="629.9038105676657" y2="716.5063509461097"/>
<line stroke="blue" x1="1029.903810567666" x2="1462.9165124598853" y1="629.9038105676657" y2="1062.916512459885"/>
<line stroke="blue" x1="1029.903810567666" x2="862.9165124598851" y1="629.9038105676657" y2="1409.3266739736605"/>
<line stroke="blue" x1="1029.903810567666" x2="862.9165124598849" y1="629.9038105676657" y2="716.5063509461097"/>
<line stroke="blue" x1="1029.903810567666" x2="1462.9165124598853" y1="629.9038105676657" y2="1062.916512459885"/>
<line stroke="blue" x1="1029.903810567666" x2="862.9165124598851" y1="629.9038105676657" y2="1409.3266739736605"/>
<line stroke="blue" x1="1029.903810567666" x2="862.9165124598849" y1="629.9038105676657" y2="716.5063509461097"/>
<line stroke="blue" x1="1029.903810567666" x2="1462.9165124598853" y1="629.9038105676657" y2="1062.916512459885"/>
<line stroke="blue" x1="1073.2050807568878" x2="1419.6152422706632" y1="673.2050807568876" y2="1019.6152422706631"/>
<line stroke="blue" x1="1073.2050807568878" x2="819.6152422706632" y1="673.2050807568876" y2="1366.0254037844388"/>
<line stroke="blue" x1="1073.2050807568878" x2="819.615242270663" y1="673.2050807568876" y2="673.2050807568878"/>
<line stroke="blue" x1="1073.2050807568878" x2="1419.6152422706632" y1="673.2050807568876" y2="1019.6152422706631"/>
<line stroke="blue" x1="1073.2050807568878" x2="819.6152422706632" y1="673.2050807568876" y2="1366.0254037844388"/>
<line stroke="blue" x1="1073.2050807568878" x2="819.615242270663" y1="673.2050807568876" y2="673.2050807568878"/>
<line stroke="blue" x1="1073.2050807568878" x2="1419.6152422706632" y1="673.2050807568876" y2="1019.6152422706631"/>
<line stroke="blue" x1="1073.2050807568878" x2="819.6152422706632" y1="673.2050807568876" y2="1366.0254037844388"/>
<line stroke="blue" x1="1073.2050807568878" x2="819.615242270663" y1="673.2050807568876" y2="673.2050807568878"/>
<line stroke="blue" x1="1073.2050807568878" x2="1419.6152422706632" y1="673.2050807568876" y2="1019.6152422706631"/>
<line stroke="blue" x1="1073.2050807568878" x2="819.6152422706632" y1="673.2050807568876" y2="1366.0254037844388"/>
<line stroke="blue" x1="1073.2050807568878" x2="819.615242270663" y1="673.2050807568876" y2="673.2050807568878"/>
<line stroke="blue" x1="1073.2050807568878" x2="1419.6152422706632" y1="673.2050807568876" y2="1019.6152422706631"/>
<line stroke="blue" x1="1073.2050807568878" x2="819.6152422706632" y1="673.2050807568876" y2="1366.0254037844388"/>
<line stroke="blue" x1="1073.2050807568878" x2="819.615242270663" y1="673.2050807568876" y2="673.2050807568878"/>
<line stroke="blue" x1="1073.2050807568878" x2="1419.6152422706632" y1="673.2050807568876" y2="1019.6152422706631"/>
<line stroke="blue" x1="1116.5063509461097" x2="1376.3139720814413" y1="716.5063509461096" y2="976.3139720814412"/>
<line stroke="blue" x1="1116.5063509461097" x2="776.3139720814413" y1="716.5063509461096" y2="1322.7241335952167"/>
<line stroke="blue" x1="1116.5063509461097" x2="776.3139720814411" y1="716.5063509461096" y2="629.9038105676659"/>
<line stroke="blue" x1="1116.5063509461097" x2="1376.3139720814413" y1="716.5063509461096" y2="976.3139720814412"/>
<line stroke="blue" x1="1116.5063509461097" x2="776.3139720814413" y1="716.5063509461096" y2="1322.7241335952167"/>
<line stroke="blue" x1="1116.5063509461097" x2="776.3139720814411" y1="716.5063509461096" y2="629.9038105676659"/>
<line stroke="blue" x1="1116.5063509461097" x2="1376.3139720814413" y1="716.5063509461096" y2="976.3139720814412"/>
<line stroke="blue" x1="1116.5063509461097" x2="776.3139720814413" y1="716.5063509461096" y2="1322.7241335952167"/>
<line stroke="blue" x1="1116.5063509461097" x2="776.3139720814411" y1="716.5063509461096" y2="629.9038105676659"/>
<line stroke="blue" x1="1116.5063509461097" x2="1376.3139720814413" y1="716.5063509461096" y2="976.3139720814412"/>
<line stroke="blue" x1="1116.5063509461097" x2="776.3139720814413" y1="716.5063509461096" y2="1322.7241335952167"/>
<line stroke="blue" x1="1116.5063509461097" x2="776.3139720814411" y1="716.5063509461096" y2="629.9038105676659"/>
<line stroke="blue" x1="1116.5063509461097" x2="1376.3139720814413" y1="716.5063509461096" y2="976.3139720814412"/>
<line stroke="blue" x1="1116.5063509461097" x2="776.3139720814413" y1="716.5063509461096" y2="1322.7241335952167"/>
<line stroke="blue" x1="1116.5063509461097" x2="776.3139720814411" y1="716.5063509461096" y2="629.9038105676659"/>
<line stroke="blue" x1="1116.5063509461097" x2="1376.3139720814413" y1="716.5063509461096" y2="976.3139720814412"/>
<line stroke="blue" x1="1159.8076211353316" x2="1333.0127018922194" y1="759.8076211353315" y2="933.0127018922193"/>
<line stroke="blue" x1="1159.8076211353316" x2="733.0127018922193" y1="759.8076211353315" y2="1279.4228634059948"/>
<line stroke="blue" x1="1159.8076211353316" x2="733.0127018922191" y1="759.8076211353315" y2="586.602540378444"/>
<line stroke="blue" x1="1159.8076211353316" x2="1333.0127018922194" y1="759.8076211353315" y2="933.0127018922193"/>
<line stroke="blue" x1="1159.8076211353316" x2="733.0127018922193" y1="759.8076211353315" y2="1279.4228634059948"/>
<line stroke="blue" x1="1159.8076211353316" x2="733.0127018922191" y1="759.8076211353315" y2="586.602540378444"/>
<line stroke="blue" x1="1159.8076211353316" x2="1333.0127018922194" y1="759.8076211353315" y2="933.0127018922193"/>
<line stroke="blue" x1="1159.8076211353316" x2="733.0127018922193" y1="759.8076211353315" y2="1279.4228634059948"/>
<line stroke="blue" x1="1159.8076211353316" x2="733.0127018922191" y1="759.8076211353315" y2="586.602540378444"/>
<line stroke="blue" x1="1159.8076211353316" x2="1333.0127018922194" y1="759.8076211353315" y2="933.0127018922193"/>
<line stroke="blue" x1="1159.8076211353316" x2="733.0127018922193" y1="759.8076211353315" y2="1279.4228634059948"/>
<line stroke="blue" x1="1159.8076211353316" x2="733.0127018922191" y1="759.8076211353315" y2="586.602540378444"/>
<line stroke="blue" x1="1159.8076211353316" x2="1333.0127018922194" y1="759.8076211353315" y2="933.0127018922193"/>
<line stroke="blue" x1="1159.8076211353316" x2="733.0127018922193" y1="759.8076211353315" y2="1279.4228634059948"/>
<line stroke="blue" x1="1159.8076211353316" x2="733.0127018922191" y1="759.8076211353315" y2="586.602540378444"/>
<line stroke="blue" x1="1159.8076211353316" x2="1333.0127018922194" y1="759.8076211353315" y2="933.0127018922193"/>
<line stroke="blue" x1="1203.1088913245535" x2="1289.7114317029975" y1="803.1088913245535" y2="889.7114317029973"/>
<line stroke="blue" x1="1203.1088913245535" x2="689.7114317029974" y1="803.1088913245535" y2="1236.121593216773"/>
<line stroke="blue" x1="1203.1088913245535" x2="689.7114317029971" y1="803.1088913245535" y2="543.301270189222"/>
<line stroke="blue" x1="1203.1088913245535" x2="1289.7114317029975" y1="803.1088913245535" y2="889.7114317029973"/>
<line stroke="blue" x1="1203.1088913245535" x2="689.7114317029974" y1="803.1088913245535" y2="1236.121593216773"/>
<line stroke="blue" x1="1203.1088913245535" x2="689.7114317029971" y1="803.1088913245535" y2="543.301270189222"/>
<line stroke="blue" x1="1203.1088913245535" x2="1289.7114317029975" y1="803.1088913245535" y2="889.7114317029973"/>
<line stroke="blue" x1="1203.1088913245535" x2="689.7114317029974" y1="803.1088913245535" y2="1236.121593216773"/>
<line stroke="blue" x1="1203.1088913245535" x2="689.7114317029971" y1="803.1088913245535" y2="543.301270189222"/>
<line stroke="blue" x1="1203.1088913245535" x2="1289.7114317029975" y1="803.1088913245535" y2="889.7114317029973"/>
<line stroke="blue" x1="1203.1088913245535" x2="689.7114317029974" y1="803.1088913245535" y2="1236.121593216773"/>
<line stroke="blue" x1="1203.1088913245535" x2="689.7114317029971" y1="803.1088913245535" y2="543.301270189222"/>
<line stroke="blue" x1="1203.1088913245535" x2="1289.7114317029975" y1="803.1088913245535" y2="889.7114317029973"/>
<line stroke="blue" x1="1203.1088913245535" x2="689.7114317029974" y1="803.1088913245535" y2="1236.121593216773"/>
<line stroke="blue" x1="1203.1088913245535" x2="689.7114317029971" y1="803.1088913245535" y2="543.301270189222"/>
<line stroke="blue" x1="1203.1088913245535" x2="1289.7114317029975" y1="803.1088913245535" y2="889.7114317029973"/>
<line stroke="blue" x1="1246.4101615137756" x2="1246.4101615137756" y1="846.4101615137754" y2="846.4101615137754"/>
<line stroke="blue" x1="1246.4101615137756" x2="646.4101615137754" y1="846.4101615137754" y2="1192.820323027551"/>
<line stroke="blue" x1="1246.4101615137756" x2="646.4101615137752" y1="846.4101615137754" y2="500.0000000000001"/>
<line stroke="blue" x1="1246.4101615137756" x2="1246.4101615137756" y1="846.4101615137754" y2="846.4101615137754"/>
<line stroke="blue" x1="1246.4101615137756" x2="646.4101615137754" y1="846.4101615137754" y2="1192.820323027551"/>
<line stroke="blue" x1="1246.4101615137756" x2="646.4101615137752" y1="846.4101615137754" y2="500.0000000000001"/>
<line stroke="blue" x1="1246.4101615137756" x2="1246.4101615137756" y1="846.4101615137754" y2="846.4101615137754"/>
<line stroke="blue" x1="1246.4101615137756" x2="646.4101615137754" y1="846.4101615137754" y2="1192.820323027551"/>
<line stroke="blue" x1="1246.4101615137756" x2="646.4101615137752" y1="846.4101615137754" y2="500.0000000000001"/>
<line stroke="blue" x1="1246.4101615137756" x2="1246.4101615137756" y1="846.4101615137754" y2="846.4101615137754"/>
<line stroke="blue" x1="1246.4101615137756" x2="646.4101615137754" y1="846.4101615137754" y2="1192.820323027551"/>
<line stroke="blue" x1="1246.4101615137756" x2="646.4101615137752" y1="846.4101615137754" y2="500.0000000000001"/>
<line stroke="blue" x1="1246.4101615137756" x2="1246.4101615137756" y1="846.4101615137754" y2="846.4101615137754"/>
<line stroke="blue" x1="1246.4101615137756" x2="646.4101615137754" y1="846.4101615137754" y2="1192.820323027551"/>
<line stroke="blue" x1="1246.4101615137756" x2="646.4101615137752" y1="846.4101615137754" y2="500.0000000000001"/>
<line stroke="blue" x1="1246.4101615137756" x2="1246.4101615137756" y1="846.4101615137754" y2="846.4101615137754"/>
<line stroke="blue" x1="1289.7114317029975" x2="1203.1088913245535" y1="889.7114317029973" y2="803.1088913245535"/>
<line stroke="blue" x1="1289.7114317029975" x2="603.1088913245535" y1="889.7114317029973" y2="1149.5190528383291"/>
<line stroke="blue" x1="1289.7114317029975" x2="603.1088913245533" y1="889.7114317029973" y2="456.6987298107782"/>
<line stroke="blue" x1="1289.7114317029975" x2="1203.1088913245535" y1="889.7114317029973" y2="803.1088913245535"/>
<line stroke="blue" x1="1289.7114317029975" x2="603.1088913245535" y1="889.7114317029973" y2="1149.5190528383291"/>
<line stroke="blue" x1="1289.7114317029975" x2="603.1088913245533" y1="889.7114317029973" y2="456.6987298107782"/>
<line stroke="blue" x1="1289.7114317029975" x2="1203.1088913245535" y1="889.7114317029973" y2="803.1088913245535"/>
<line stroke="blue" x1="1289.7114317029975" x2="603.1088913245535" y1="889.7114317029973" y2="1149.5190528383291"/>
<line stroke="blue" x1="1289.7114317029975" x2="603.1088913245533" y1="889.7114317029973" y2="456.6987298107782"/>
<line stroke="blue" x1="1289.7114317029975" x2="1203.1088913245535" y1="889.7114317029973" y2="803.1088913245535"/>
<line stroke="blue" x1="1289.7114317029975" x2="603.1088913245535" y1="889.7114317029973" y2="1149.5190528383291"/>
<line stroke="blue" x1="1289.7114317029975" x2="603.1088913245533" y1="889.7114317029973" y2="456.6987298107782"/>
<line stroke="blue" x1="1289.7114317029975" x2="1203.1088913245535" y1="889.7114317029973" y2="803.1088913245535"/>
<line stroke="blue" x1="1289.7114317029975" x2="603.1088913245535" y1="889.7114317029973" y2="1149.5190528383291"/>
<line stroke="blue" x1="1289.7114317029975" x2="603.1088913245533" y1="889.7114317029973" y2="456.6987298107782"/>
<line stroke="blue" x1="1289.7114317029975" x2="1203.1088913245535" y1="889.7114317029973" y2="803.1088913245535"/>
<line stroke="blue" x1="1333.0127018922194" x2="1159.8076211353316" y1="933.0127018922193" y2="759.8076211353315"/>
<line stroke="blue" x1="1333.0127018922194" x2="559.8076211353316" y1="933.0127018922193" y2="1106.217782649107"/>
<line stroke="blue" x1="1333.0127018922194" x2="559.8076211353314" y1="933.0127018922193" y2="413.39745962155627"/>
<line stroke="blue" x1="1333.0127018922194" x2="1159.8076211353316" y1="933.0127018922193" y2="759.8076211353315"/>
<line stroke="blue" x1="1333.0127018922194" x2="559.8076211353316" y1="933.0127018922193" y2="1106.217782649107"/>
<line stroke="blue" x1="1333.0127018922194" x2="559.8076211353314" y1="933.0127018922193" y2="413.39745962155627"/>
<line stroke="blue" x1="1333.0127018922194" x2="1159.8076211353316" y1="933.0127018922193" y2="759.8076211353315"/>
<line stroke="blue" x1="1333.0127018922194" x2="559.8076211353316" y1="933.0127018922193" y2="1106.217782649107"/>
<line stroke="blue" x1="1333.0127018922194" x2="559.8076211353314" y1="933.0127018922193" y2="413.39745962155627"/>
<line stroke="blue" x1="1333.0127018922194" x2="1159.8076211353316" y1="933.0127018922193" y2="759.8076211353315"/>
<line stroke="blue" x1="1333.0127018922194" x2="559.8076211353316" y1="933.0127018922193" y2="1106.217782649107"/>
<line stroke="blue" x1="1333.0127018922194" x2="559.8076211353314" y1="933.0127018922193" y2="413.39745962155627"/>
<line stroke="blue" x1="1333.0127018922194" x2="1159.8076211353316" y1="933.0127018922193" y2="759.8076211353315"/>
<line stroke="blue" x1="1333.0127018922194" x2="559.8076211353316" y1="933.0127018922193" y2="1106.217782649107"/>
<line stroke="blue" x1="1333.0127018922194" x2="559.8076211353314" y1="933.0127018922193" y2="413.39745962155627"/>
<line stroke="blue" x1="1333.0127018922194" x2="1159.8076211353316" y1="933.0127018922193" y2="759.8076211353315"/>
<line stroke="blue" x1="1376.3139720814413" x2="1116.5063509461097" y1="976.3139720814412" y2="716.5063509461096"/>
<line stroke="blue" x1="1376.3139720814413" x2="516.5063509461097" y1="976.3139720814412" y2="1062.916512459885"/>
<line stroke="blue" x1="1376.3139720814413" x2="516.5063509461095" y1="976.3139720814412" y2="370.0961894323343"/>
<line stroke="blue" x1="1376.3139720814413" x2="1116.5063509461097" y1="976.3139720814412" y2="716.5063509461096"/>
<line stroke="blue" x1="1376.3139720814413" x2="516.5063509461097" y1="976.3139720814412" y2="1062.916512459885"/>
<line stroke="blue" x1="1376.3139720814413" x2="516.5063509461095" y1="976.3139720814412" y2="370.0961894323343"/>
<line stroke="blue" x1="1376.3139720814413" x2="1116.5063509461097" y1="976.3139720814412" y2="716.5063509461096"/>
<line stroke="blue" x1="1376.3139720814413" x2="516.5063509461097" y1="976.3139720814412" y2="1062.916512459885"/>
<line stroke="blue" x1="1376.3139720814413" x2="516.5063509461095" y1="976.3139720814412" y2="370.0961894323343"/>
<line stroke="blue" x1="1376.3139720814413" x2="1116.5063509461097" y1="976.3139720814412" y2="716.5063509461096"/>
<line stroke="blue" x1="1376.3139720814413" x2="516.5063509461097" y1="976.3139720814412" y2="1062.916512459885"/>
<line stroke="blue" x1="1376.3139720814413" x2="516.5063509461095" y1="976.3139720814412" y2="370.0961894323343"/>
<line stroke="blue" x1="1376.3139720814413" x2="1116.5063509461097" y1="976.3139720814412" y2="716.5063509461096"/>
<line stroke="blue" x1="1376.3139720814413" x2="516.5063509461097" y1="976.3139720814412" y2="1062.916512459885"/>
<line stroke="blue" x1="1376.3139720814413" x2="516.5063509461095" y1="976.3139720814412" y2="370.0961894323343"/>
<line stroke="blue" x1="1376.3139720814413" x2="1116.5063509461097" y1="976.3139720814412" y2="716.5063509461096"/>
<line stroke="blue" x1="1419.6152422706632" x2="1073.2050807568878" y1="1019.6152422706631" y2="673.2050807568876"/>
<line stroke="blue" x1="1419.6152422706632" x2="473.2050807568877" y1="1019.6152422706631" y2="1019.6152422706632"/>
<line stroke="blue" x1="1419.6152422706632" x2="473.2050807568875" y1="1019.6152422706631" y2="326.7949192431124"/>
<line stroke="blue" x1="1419.6152422706632" x2="1073.2050807568878" y1="1019.6152422706631" y2="673.2050807568876"/>
<line stroke="blue" x1="1419.6152422706632" x2="473.2050807568877" y1="1019.6152422706631" y2="1019.6152422706632"/>
<line stroke="blue" x1="1419.6152422706632" x2="473.2050807568875" y1="1019.6152422706631" y2="326.7949192431124"/>
<line stroke="blue" x1="1419.6152422706632" x2="1073.2050807568878" y1="1019.6152422706631" y2="673.2050807568876"/>
<line stroke="blue" x1="1419.6152422706632" x2="473.2050807568877" y1="1019.6152422706631" y2="1019.6152422706632"/>
<line stroke="blue" x1="1419.6152422706632" x2="473.2050807568875" y1="1019.6152422706631" y2="326.7949192431124"/>
<line stroke="blue" x1="1419.6152422706632" x2="1073.2050807568878" y1="1019.6152422706631" y2="673.2050807568876"/>
<line stroke="blue" x1="1419.6152422706632" x2="473.2050807568877" y1="1019.6152422706631" y2="1019.6152422706632"/>
<line stroke="blue" x1="1419.6152422706632" x2="473.2050807568875" y1="1019.6152422706631" y2="326.7949192431124"/>
<line stroke="blue" x1="1419.6152422706632" x2="1073.2050807568878" y1="1019.6152422706631" y2="673.2050807568876"/>
<line stroke="blue" x1="1419.6152422706632" x2="473.2050807568877" y1="1019.6152422706631" y2="1019.6152422706632"/>
<line stroke="blue" x1="1419.6152422706632" x2="473.2050807568875" y1="1019.6152422706631" y2="326.7949192431124"/>
<line stroke="blue" x1="1419.6152422706632" x2="1073.2050807568878" y1="1019.6152422706631" y2="673.2050807568876"/>
<line stroke="blue" x1="1462.9165124598853" x2="1029.903810567666" y1="1062.916512459885" y2="629.9038105676657"/>
<line stroke="blue" x1="1462.9165124598853" x2="429.9038105676658" y1="1062.916512459885" y2="976.3139720814413"/>
<line stroke="blue" x1="1462.9165124598853" x2="429.9038105676656" y1="1062.916512459885" y2="283.4936490538905"/>
<line stroke="blue" x1="1462.9165124598853" x2="1029.903810567666" y1="1062.916512459885" y2="629.9038105676657"/>
<line stroke="blue" x1="1462.9165124598853" x2="429.9038105676658" y1="1062.916512459885" y2="976.3139720814413"/>
<line stroke="blue" x1="1462.9165124598853" x2="429.9038105676656" y1="1062.916512459885" y2="283.4936490538905"/>
<line stroke="blue" x1="1462.9165124598853" x2="1029.903810567666" y1="1062.916512459885" y2="629.9038105676657"/>
<line stroke="blue" x1="1462.9165124598853" x2="429.9038105676658" y1="1062.916512459885" y2="976.3139720814413"/>
<line stroke="blue" x1="1462.9165124598853" x2="429.9038105676656" y1="1062.916512459885" y2="283.4936490538905"/>
<line stroke="blue" x1="1462.9165124598853" x2="1029.903810567666" y1="1062.916512459885" y2="629.9038105676657"/>
<line stroke="blue" x1="1462.9165124598853" x2="429.9038105676658" y1="1062.916512459885" y2="976.3139720814413"/>
<line stroke="blue" x1="1462.9165124598853" x2="429.9038105676656" y1="1062.916512459885" y2="283.4936490538905"/>
<line stroke="blue" x1="1462.9165124598853" x2="1029.903810567666" y1="1062.916512459885" y2="629.9038105676657"/>
<line stroke="blue" x1="1462.9165124598853" x2="429.9038105676658" y1="1062.916512459885" y2="976.3139720814413"/>
<line stroke="blue" x1="1462.9165124598853" x2="429.9038105676656" y1="1062.916512459885" y2="283.4936490538905"/>
<line stroke="blue" x1="1462.9165124598853" x2="1029.903810567666" y1="1062.916512459885" y2="629.9038105676657"/>
<line stroke="blue" x1="1506.217782649107" x2="986.6025403784439" y1="1106.217782649107" y2="586.6025403784438"/>
<line stroke="blue" x1="1506.217782649107" x2="386.60254037844385" y1="1106.217782649107" y2="933.0127018922194"/>
<line stroke="blue" x1="1506.217782649107" x2="386.6025403784437" y1="1106.217782649107" y2="240.19237886466857"/>
<line stroke="blue" x1="1506.217782649107" x2="986.6025403784439" y1="1106.217782649107" y2="586.6025403784438"/>
<line stroke="blue" x1="1506.217782649107" x2="386.60254037844385" y1="1106.217782649107" y2="933.0127018922194"/>
<line stroke="blue" x1="1506.217782649107" x2="386.6025403784437" y1="1106.217782649107" y2="240.19237886466857"/>
<line stroke="blue" x1="1506.217782649107" x2="986.6025403784439" y1="1106.217782649107" y2="586.6025403784438"/>
<line stroke="blue" x1="1506.217782649107" x2="386.60254037844385" y1="1106.217782649107" y2="933.0127018922194"/>
<line stroke="blue" x1="1506.217782649107" x2="386.6025403784437" y1="1106.217782649107" y2="240.19237886466857"/>
<line stroke="blue" x1="1506.217782649107" x2="986.6025403784439" y1="1106.217782649107" y2="586.6025403784438"/>
<line stroke="blue" x1="1506.217782649107" x2="386.60254037844385" y1="1106.217782649107" y2="933.0127018922194"/>
<line stroke="blue" x1="1506.217782649107" x2="386.6025403784437" y1="1106.217782649107" y2="240.19237886466857"/>
<line stroke="blue" x1="1506.217782649107" x2="986.6025403784439" y1="1106.217782649107" y2="586.6025403784438"/>
<line stroke="blue" x1="1506.217782649107" x2="386.60254037844385" y1="1106.217782649107" y2="933.0127018922194"/>
<line stroke="blue" x1="1506.217782649107" x2="386.6025403784437" y1="1106.217782649107" y2="240.19237886466857"/>
<line stroke="blue" x1="1506.217782649107" x2="986.6025403784439" y1="1106.217782649107" y2="586.6025403784438"/>
<line stroke="blue" x1="1549.5190528383291" x2="943.3012701892219" y1="1149.5190528383291" y2="543.3012701892218"/>
<line stroke="blue" x1="1549.5190528383291" x2="343.30127018922195" y1="1149.5190528383291" y2="889.7114317029974"/>
<line stroke="blue" x1="1549.5190528383291" x2="343.3012701892218" y1="1149.5190528383291" y2="196.89110867544665"/>
<line stroke="blue" x1="1549.5190528383291" x2="943.3012701892219" y1="1149.5190528383291" y2="543.3012701892218"/>
<line stroke="blue" x1="1549.5190528383291" x2="343.30127018922195" y1="1149.5190528383291" y2="889.7114317029974"/>
<line stroke="blue" x1="1549.5190528383291" x2="343.3012701892218" y1="1149.5190528383291" y2="196.89110867544665"/>
<line stroke="blue" x1="1549.5190528383291" x2="943.3012701892219" y1="1149.5190528383291" y2="543.3012701892218"/>
<line stroke="blue" x1="1549.5190528383291" x2="343.30127018922195" y1="1149.5190528383291" y2="889.7114317029974"/>
<line stroke="blue" x1="1549.5190528383291" x2="343.3012701892218" y1="1149.5190528383291" y2="196.89110867544665"/>
<line stroke="blue" x1="1549.5190528383291" x2="943.3012701892219" y1="1149.5190528383291" y2="543.3012701892218"/>
<line stroke="blue" x1="1549.5190528383291" x2="343.30127018922195" y1="1149.5190528383291" y2="889.7114317029974"/>
<line stroke="blue" x1="1549.5190528383291" x2="343.3012701892218" y1="1149.5190528383291" y2="196.89110867544665"/>
<line stroke="blue" x1="1549.5190528383291" x2="943.3012701892219" y1="1149.5190528383291" y2="543.3012701892218"/>
<line stroke="blue" x1="1549.5190528383291" x2="343.30127018922195" y1="1149.5190528383291" y2="889.7114317029974"/>
<line stroke="blue" x1="1549.5190528383291" x2="343.3012701892218" y1="1149.5190528383291" y2="196.89110867544665"/>
<line stroke="blue" x1="1549.5190528383291" x2="943.3012701892219" y1="1149.5190528383291" y2="543.3012701892218"/>
</svg>